<?xml version="1.0" encoding="utf-8" standalone="no"?>
<!DOCTYPE svg PUBLIC "-//W3C//DTD SVG 1.1//EN"
  "http://www.w3.org/Graphics/SVG/1.1/DTD/svg11.dtd">
<svg xmlns:xlink="http://www.w3.org/1999/xlink" width="792pt" height="374.4pt" viewBox="0 0 792 374.4" xmlns="http://www.w3.org/2000/svg" version="1.1">
 <title>LensGen Figure 2 patent lens parameter diagram</title>
 <metadata>
  <rdf:RDF xmlns:dc="http://purl.org/dc/elements/1.1/" xmlns:cc="http://creativecommons.org/ns#" xmlns:rdf="http://www.w3.org/1999/02/22-rdf-syntax-ns#">
   <cc:Work>
    <dc:type rdf:resource="http://purl.org/dc/dcmitype/StillImage"/>
    <dc:title>LensGen Figure 2 patent lens parameter diagram</dc:title>
    <dc:date>2026-07-13</dc:date>
    <dc:format>image/svg+xml</dc:format>
    <dc:creator>
     <cc:Agent>
      <dc:title>LensGen</dc:title>
     </cc:Agent>
    </dc:creator>
   </cc:Work>
  </rdf:RDF>
 </metadata>
 <defs>
  <style type="text/css">*{stroke-linejoin: round; stroke-linecap: butt}</style>
 </defs>
 <g id="figure_1">
  <g id="patch_1">
   <path d="M 0 374.4
L 792 374.4
L 792 0
L 0 0
z
" style="fill: #ffffff"/>
  </g>
  <g id="axes_1">
   <g id="line2d_1">
    <path d="M 121.925215 187.2
L 670.074785 187.2
" clip-path="url(#p9212d3a8d5)" style="fill: none; stroke: #aab2bd; stroke-width: 0.8; stroke-linecap: square"/>
   </g>
   <g id="patch_2">
    <path d="M 249.588077 77.448649
L 249.588077 114.032432
L 250.018574 115.510565
L 250.439564 116.988698
L 250.851095 118.46683
L 251.253215 119.944963
L 251.645969 121.423096
L 252.0294 122.901229
L 252.403552 124.379361
L 252.768465 125.857494
L 253.124181 127.335627
L 253.470737 128.813759
L 253.808172 130.291892
L 254.136522 131.770025
L 254.455822 133.248157
L 254.766106 134.72629
L 255.067408 136.204423
L 255.359759 137.682555
L 255.643191 139.160688
L 255.917733 140.638821
L 256.183414 142.116953
L 256.440261 143.595086
L 256.688301 145.073219
L 256.92756 146.551351
L 257.158062 148.029484
L 257.379831 149.507617
L 257.592889 150.985749
L 257.797259 152.463882
L 257.992961 153.942015
L 258.180015 155.420147
L 258.358439 156.89828
L 258.528252 158.376413
L 258.689471 159.854545
L 258.842111 161.332678
L 258.986189 162.810811
L 259.121717 164.288943
L 259.248711 165.767076
L 259.367182 167.245209
L 259.477142 168.723342
L 259.578603 170.201474
L 259.671573 171.679607
L 259.756062 173.15774
L 259.832079 174.635872
L 259.899631 176.114005
L 259.958724 177.592138
L 260.009365 179.07027
L 260.051558 180.548403
L 260.085307 182.026536
L 260.110616 183.504668
L 260.127488 184.982801
L 260.135923 186.460934
L 260.135923 187.939066
L 260.127488 189.417199
L 260.110616 190.895332
L 260.085307 192.373464
L 260.051558 193.851597
L 260.009365 195.32973
L 259.958724 196.807862
L 259.899631 198.285995
L 259.832079 199.764128
L 259.756062 201.24226
L 259.671573 202.720393
L 259.578603 204.198526
L 259.477142 205.676658
L 259.367182 207.154791
L 259.248711 208.632924
L 259.121717 210.111057
L 258.986189 211.589189
L 258.842111 213.067322
L 258.689471 214.545455
L 258.528252 216.023587
L 258.358439 217.50172
L 258.180015 218.979853
L 257.992961 220.457985
L 257.797259 221.936118
L 257.592889 223.414251
L 257.379831 224.892383
L 257.158062 226.370516
L 256.92756 227.848649
L 256.688301 229.326781
L 256.440261 230.804914
L 256.183414 232.283047
L 255.917733 233.761179
L 255.643191 235.239312
L 255.359759 236.717445
L 255.067408 238.195577
L 254.766106 239.67371
L 254.455822 241.151843
L 254.136522 242.629975
L 253.808172 244.108108
L 253.470737 245.586241
L 253.124181 247.064373
L 252.768465 248.542506
L 252.403552 250.020639
L 252.0294 251.498771
L 251.645969 252.976904
L 251.253215 254.455037
L 250.851095 255.93317
L 250.439564 257.411302
L 250.018574 258.889435
L 249.588077 260.367568
L 249.588077 296.951351
L 283.828436 296.951351
L 283.38389 294.734152
L 282.94877 292.516953
L 282.523052 290.299754
L 282.106716 288.082555
L 281.699738 285.865356
L 281.302099 283.648157
L 280.913777 281.430958
L 280.534754 279.213759
L 280.165009 276.99656
L 279.804523 274.779361
L 279.453279 272.562162
L 279.111258 270.344963
L 278.778444 268.127764
L 278.454818 265.910565
L 278.140366 263.693366
L 277.835071 261.476167
L 277.538918 259.258968
L 277.251892 257.041769
L 276.973979 254.82457
L 276.705165 252.607371
L 276.445436 250.390172
L 276.194781 248.172973
L 275.953185 245.955774
L 275.720638 243.738575
L 275.497127 241.521376
L 275.282643 239.304177
L 275.077173 237.086978
L 274.880709 234.869779
L 274.693241 232.65258
L 274.514759 230.435381
L 274.345254 228.218182
L 274.184719 226.000983
L 274.033145 223.783784
L 273.890526 221.566585
L 273.756854 219.349386
L 273.632122 217.132187
L 273.516325 214.914988
L 273.409457 212.697789
L 273.311513 210.48059
L 273.222488 208.263391
L 273.142378 206.046192
L 273.071179 203.828993
L 273.008887 201.611794
L 272.955499 199.394595
L 272.911014 197.177396
L 272.875428 194.960197
L 272.84874 192.742998
L 272.830949 190.525799
L 272.822053 188.3086
L 272.822053 186.0914
L 272.830949 183.874201
L 272.84874 181.657002
L 272.875428 179.439803
L 272.911014 177.222604
L 272.955499 175.005405
L 273.008887 172.788206
L 273.071179 170.571007
L 273.142378 168.353808
L 273.222488 166.136609
L 273.311513 163.91941
L 273.409457 161.702211
L 273.516325 159.485012
L 273.632122 157.267813
L 273.756854 155.050614
L 273.890526 152.833415
L 274.033145 150.616216
L 274.184719 148.399017
L 274.345254 146.181818
L 274.514759 143.964619
L 274.693241 141.74742
L 274.880709 139.530221
L 275.077173 137.313022
L 275.282643 135.095823
L 275.497127 132.878624
L 275.720638 130.661425
L 275.953185 128.444226
L 276.194781 126.227027
L 276.445436 124.009828
L 276.705165 121.792629
L 276.973979 119.57543
L 277.251892 117.358231
L 277.538918 115.141032
L 277.835071 112.923833
L 278.140366 110.706634
L 278.454818 108.489435
L 278.778444 106.272236
L 279.111258 104.055037
L 279.453279 101.837838
L 279.804523 99.620639
L 280.165009 97.40344
L 280.534754 95.186241
L 280.913777 92.969042
L 281.302099 90.751843
L 281.699738 88.534644
L 282.106716 86.317445
L 282.523052 84.100246
L 282.94877 81.883047
L 283.38389 79.665848
L 283.828436 77.448649
z
" clip-path="url(#p9212d3a8d5)" style="fill: #7678ed; opacity: 0.42"/>
   </g>
   <g id="patch_3">
    <path d="M 284.844821 77.448649
L 284.844821 77.448649
L 284.433918 79.665848
L 284.03168 81.883047
L 283.638088 84.100246
L 283.253127 86.317445
L 282.876777 88.534644
L 282.509024 90.751843
L 282.149851 92.969042
L 281.799243 95.186241
L 281.457183 97.40344
L 281.123657 99.620639
L 280.798651 101.837838
L 280.482151 104.055037
L 280.174142 106.272236
L 279.874612 108.489435
L 279.583548 110.706634
L 279.300937 112.923833
L 279.026767 115.141032
L 278.761027 117.358231
L 278.503705 119.57543
L 278.254789 121.792629
L 278.014271 124.009828
L 277.782138 126.227027
L 277.558383 128.444226
L 277.342994 130.661425
L 277.135963 132.878624
L 276.937281 135.095823
L 276.74694 137.313022
L 276.564931 139.530221
L 276.391248 141.74742
L 276.225882 143.964619
L 276.068828 146.181818
L 275.920077 148.399017
L 275.779625 150.616216
L 275.647465 152.833415
L 275.523591 155.050614
L 275.407999 157.267813
L 275.300684 159.485012
L 275.201641 161.702211
L 275.110866 163.91941
L 275.028355 166.136609
L 274.954105 168.353808
L 274.888113 170.571007
L 274.830375 172.788206
L 274.780891 175.005405
L 274.739657 177.222604
L 274.706672 179.439803
L 274.681934 181.657002
L 274.665443 183.874201
L 274.657197 186.0914
L 274.657197 188.3086
L 274.665443 190.525799
L 274.681934 192.742998
L 274.706672 194.960197
L 274.739657 197.177396
L 274.780891 199.394595
L 274.830375 201.611794
L 274.888113 203.828993
L 274.954105 206.046192
L 275.028355 208.263391
L 275.110866 210.48059
L 275.201641 212.697789
L 275.300684 214.914988
L 275.407999 217.132187
L 275.523591 219.349386
L 275.647465 221.566585
L 275.779625 223.783784
L 275.920077 226.000983
L 276.068828 228.218182
L 276.225882 230.435381
L 276.391248 232.65258
L 276.564931 234.869779
L 276.74694 237.086978
L 276.937281 239.304177
L 277.135963 241.521376
L 277.342994 243.738575
L 277.558383 245.955774
L 277.782138 248.172973
L 278.014271 250.390172
L 278.254789 252.607371
L 278.503705 254.82457
L 278.761027 257.041769
L 279.026767 259.258968
L 279.300937 261.476167
L 279.583548 263.693366
L 279.874612 265.910565
L 280.174142 268.127764
L 280.482151 270.344963
L 280.798651 272.562162
L 281.123657 274.779361
L 281.457183 276.99656
L 281.799243 279.213759
L 282.149851 281.430958
L 282.509024 283.648157
L 282.876777 285.865356
L 283.253127 288.082555
L 283.638088 290.299754
L 284.03168 292.516953
L 284.433918 294.734152
L 284.844821 296.951351
L 284.844821 296.951351
L 310.100553 296.951351
L 311.349072 294.734152
L 312.564352 292.516953
L 313.74701 290.299754
L 314.897634 288.082555
L 316.016782 285.865356
L 317.104984 283.648157
L 318.162745 281.430958
L 319.190543 279.213759
L 320.188835 276.99656
L 321.158057 274.779361
L 322.098621 272.562162
L 323.010922 270.344963
L 323.895334 268.127764
L 324.752216 265.910565
L 325.581908 263.693366
L 326.384735 261.476167
L 327.161005 259.258968
L 327.911013 257.041769
L 328.635039 254.82457
L 329.33335 252.607371
L 330.0062 250.390172
L 330.65383 248.172973
L 331.27647 245.955774
L 331.874337 243.738575
L 332.44764 241.521376
L 332.996573 239.304177
L 333.521323 237.086978
L 334.022067 234.869779
L 334.49897 232.65258
L 334.95219 230.435381
L 335.381874 228.218182
L 335.788162 226.000983
L 336.171185 223.783784
L 336.531064 221.566585
L 336.867914 219.349386
L 337.18184 217.132187
L 337.472942 214.914988
L 337.741309 212.697789
L 337.987025 210.48059
L 338.210165 208.263391
L 338.410799 206.046192
L 338.588986 203.828993
L 338.744783 201.611794
L 338.878235 199.394595
L 338.989384 197.177396
L 339.078263 194.960197
L 339.144899 192.742998
L 339.189311 190.525799
L 339.211514 188.3086
L 339.211514 186.0914
L 339.189311 183.874201
L 339.144899 181.657002
L 339.078263 179.439803
L 338.989384 177.222604
L 338.878235 175.005405
L 338.744783 172.788206
L 338.588986 170.571007
L 338.410799 168.353808
L 338.210165 166.136609
L 337.987025 163.91941
L 337.741309 161.702211
L 337.472942 159.485012
L 337.18184 157.267813
L 336.867914 155.050614
L 336.531064 152.833415
L 336.171185 150.616216
L 335.788162 148.399017
L 335.381874 146.181818
L 334.95219 143.964619
L 334.49897 141.74742
L 334.022067 139.530221
L 333.521323 137.313022
L 332.996573 135.095823
L 332.44764 132.878624
L 331.874337 130.661425
L 331.27647 128.444226
L 330.65383 126.227027
L 330.0062 124.009828
L 329.33335 121.792629
L 328.635039 119.57543
L 327.911013 117.358231
L 327.161005 115.141032
L 326.384735 112.923833
L 325.581908 110.706634
L 324.752216 108.489435
L 323.895334 106.272236
L 323.010922 104.055037
L 322.098621 101.837838
L 321.158057 99.620639
L 320.188835 97.40344
L 319.190543 95.186241
L 318.162745 92.969042
L 317.104984 90.751843
L 316.016782 88.534644
L 314.897634 86.317445
L 313.74701 84.100246
L 312.564352 81.883047
L 311.349072 79.665848
L 310.100553 77.448649
z
" clip-path="url(#p9212d3a8d5)" style="fill: #7678ed; opacity: 0.42"/>
   </g>
   <g id="patch_4">
    <path d="M 346.443652 68.302703
L 346.443652 68.302703
L 346.227482 70.704668
L 346.015757 73.106634
L 345.808477 75.5086
L 345.605639 77.910565
L 345.407241 80.312531
L 345.21328 82.714496
L 345.023756 85.116462
L 344.838666 87.518428
L 344.658008 89.920393
L 344.48178 92.322359
L 344.30998 94.724324
L 344.142608 97.12629
L 343.979661 99.528256
L 343.821136 101.930221
L 343.667034 104.332187
L 343.517352 106.734152
L 343.372089 109.136118
L 343.231243 111.538084
L 343.094813 113.940049
L 342.962798 116.342015
L 342.835195 118.74398
L 342.712005 121.145946
L 342.593225 123.547912
L 342.478855 125.949877
L 342.368892 128.351843
L 342.263337 130.753808
L 342.162188 133.155774
L 342.065445 135.55774
L 341.973105 137.959705
L 341.885168 140.361671
L 341.801634 142.763636
L 341.722501 145.165602
L 341.647769 147.567568
L 341.577437 149.969533
L 341.511503 152.371499
L 341.449969 154.773464
L 341.392832 157.17543
L 341.340093 159.577396
L 341.29175 161.979361
L 341.247804 164.381327
L 341.208254 166.783292
L 341.173099 169.185258
L 341.142339 171.587224
L 341.115974 173.989189
L 341.094004 176.391155
L 341.076428 178.79312
L 341.063246 181.195086
L 341.054458 183.597052
L 341.050064 185.999017
L 341.050064 188.400983
L 341.054458 190.802948
L 341.063246 193.204914
L 341.076428 195.60688
L 341.094004 198.008845
L 341.115974 200.410811
L 341.142339 202.812776
L 341.173099 205.214742
L 341.208254 207.616708
L 341.247804 210.018673
L 341.29175 212.420639
L 341.340093 214.822604
L 341.392832 217.22457
L 341.449969 219.626536
L 341.511503 222.028501
L 341.577437 224.430467
L 341.647769 226.832432
L 341.722501 229.234398
L 341.801634 231.636364
L 341.885168 234.038329
L 341.973105 236.440295
L 342.065445 238.84226
L 342.162188 241.244226
L 342.263337 243.646192
L 342.368892 246.048157
L 342.478855 248.450123
L 342.593225 250.852088
L 342.712005 253.254054
L 342.835195 255.65602
L 342.962798 258.057985
L 343.094813 260.459951
L 343.231243 262.861916
L 343.372089 265.263882
L 343.517352 267.665848
L 343.667034 270.067813
L 343.821136 272.469779
L 343.979661 274.871744
L 344.142608 277.27371
L 344.30998 279.675676
L 344.48178 282.077641
L 344.658008 284.479607
L 344.838666 286.881572
L 345.023756 289.283538
L 345.21328 291.685504
L 345.407241 294.087469
L 345.605639 296.489435
L 345.808477 298.8914
L 346.015757 301.293366
L 346.227482 303.695332
L 346.443652 306.097297
L 346.443652 306.097297
L 372.154676 306.097297
L 372.861272 303.695332
L 373.552241 301.293366
L 374.227663 298.8914
L 374.887617 296.489435
L 375.532178 294.087469
L 376.161421 291.685504
L 376.775417 289.283538
L 377.374236 286.881572
L 377.957943 284.479607
L 378.526606 282.077641
L 379.080286 279.675676
L 379.619046 277.27371
L 380.142943 274.871744
L 380.652036 272.469779
L 381.146379 270.067813
L 381.626026 267.665848
L 382.091029 265.263882
L 382.541438 262.861916
L 382.9773 260.459951
L 383.398662 258.057985
L 383.805568 255.65602
L 384.198061 253.254054
L 384.576183 250.852088
L 384.939973 248.450123
L 385.289468 246.048157
L 385.624706 243.646192
L 385.94572 241.244226
L 386.252545 238.84226
L 386.54521 236.440295
L 386.823747 234.038329
L 387.088184 231.636364
L 387.338548 229.234398
L 387.574863 226.832432
L 387.797156 224.430467
L 388.005447 222.028501
L 388.199757 219.626536
L 388.380107 217.22457
L 388.546515 214.822604
L 388.698997 212.420639
L 388.837568 210.018673
L 388.962243 207.616708
L 389.073034 205.214742
L 389.169952 202.812776
L 389.253006 200.410811
L 389.322206 198.008845
L 389.377557 195.60688
L 389.419066 193.204914
L 389.446736 190.802948
L 389.46057 188.400983
L 389.46057 185.999017
L 389.446736 183.597052
L 389.419066 181.195086
L 389.377557 178.79312
L 389.322206 176.391155
L 389.253006 173.989189
L 389.169952 171.587224
L 389.073034 169.185258
L 388.962243 166.783292
L 388.837568 164.381327
L 388.698997 161.979361
L 388.546515 159.577396
L 388.380107 157.17543
L 388.199757 154.773464
L 388.005447 152.371499
L 387.797156 149.969533
L 387.574863 147.567568
L 387.338548 145.165602
L 387.088184 142.763636
L 386.823747 140.361671
L 386.54521 137.959705
L 386.252545 135.55774
L 385.94572 133.155774
L 385.624706 130.753808
L 385.289468 128.351843
L 384.939973 125.949877
L 384.576183 123.547912
L 384.198061 121.145946
L 383.805568 118.74398
L 383.398662 116.342015
L 382.9773 113.940049
L 382.541438 111.538084
L 382.091029 109.136118
L 381.626026 106.734152
L 381.146379 104.332187
L 380.652036 101.930221
L 380.142943 99.528256
L 379.619046 97.12629
L 379.080286 94.724324
L 378.526606 92.322359
L 377.957943 89.920393
L 377.374236 87.518428
L 376.775417 85.116462
L 376.161421 82.714496
L 375.532178 80.312531
L 374.887617 77.910565
L 374.227663 75.5086
L 373.552241 73.106634
L 372.861272 70.704668
L 372.154676 68.302703
z
" clip-path="url(#p9212d3a8d5)" style="fill: #7678ed; opacity: 0.42"/>
   </g>
   <g id="patch_5">
    <path d="M 410.424086 68.302703
L 410.424086 68.302703
L 409.639634 70.704668
L 408.872842 73.106634
L 408.123597 75.5086
L 407.391791 77.910565
L 406.677318 80.312531
L 405.980077 82.714496
L 405.299969 85.116462
L 404.636898 87.518428
L 403.990772 89.920393
L 403.361501 92.322359
L 402.748999 94.724324
L 402.153181 97.12629
L 401.573969 99.528256
L 401.011282 101.930221
L 400.465046 104.332187
L 399.935187 106.734152
L 399.421637 109.136118
L 398.924327 111.538084
L 398.443191 113.940049
L 397.978168 116.342015
L 397.529197 118.74398
L 397.09622 121.145946
L 396.679182 123.547912
L 396.278029 125.949877
L 395.89271 128.351843
L 395.523176 130.753808
L 395.169381 133.155774
L 394.83128 135.55774
L 394.508832 137.959705
L 394.201994 140.361671
L 393.910731 142.763636
L 393.635005 145.165602
L 393.374781 147.567568
L 393.13003 149.969533
L 392.900719 152.371499
L 392.686821 154.773464
L 392.48831 157.17543
L 392.305162 159.577396
L 392.137354 161.979361
L 391.984865 164.381327
L 391.847679 166.783292
L 391.725776 169.185258
L 391.619144 171.587224
L 391.527769 173.989189
L 391.45164 176.391155
L 391.390747 178.79312
L 391.345085 181.195086
L 391.314646 183.597052
L 391.299427 185.999017
L 391.299427 188.400983
L 391.314646 190.802948
L 391.345085 193.204914
L 391.390747 195.60688
L 391.45164 198.008845
L 391.527769 200.410811
L 391.619144 202.812776
L 391.725776 205.214742
L 391.847679 207.616708
L 391.984865 210.018673
L 392.137354 212.420639
L 392.305162 214.822604
L 392.48831 217.22457
L 392.686821 219.626536
L 392.900719 222.028501
L 393.13003 224.430467
L 393.374781 226.832432
L 393.635005 229.234398
L 393.910731 231.636364
L 394.201994 234.038329
L 394.508832 236.440295
L 394.83128 238.84226
L 395.169381 241.244226
L 395.523176 243.646192
L 395.89271 246.048157
L 396.278029 248.450123
L 396.679182 250.852088
L 397.09622 253.254054
L 397.529197 255.65602
L 397.978168 258.057985
L 398.443191 260.459951
L 398.924327 262.861916
L 399.421637 265.263882
L 399.935187 267.665848
L 400.465046 270.067813
L 401.011282 272.469779
L 401.573969 274.871744
L 402.153181 277.27371
L 402.748999 279.675676
L 403.361501 282.077641
L 403.990772 284.479607
L 404.636898 286.881572
L 405.299969 289.283538
L 405.980077 291.685504
L 406.677318 294.087469
L 407.391791 296.489435
L 408.123597 298.8914
L 408.872842 301.293366
L 409.639634 303.695332
L 410.424086 306.097297
L 410.424086 306.097297
L 448.932898 306.097297
L 448.932898 303.695332
L 448.932898 301.293366
L 448.932898 298.8914
L 448.932898 296.489435
L 448.932898 294.087469
L 448.932898 291.685504
L 448.932898 289.283538
L 448.932898 286.881572
L 448.932898 284.479607
L 448.932898 282.077641
L 448.932898 279.675676
L 448.932898 277.27371
L 448.932898 274.871744
L 448.932898 272.469779
L 448.932898 270.067813
L 448.932898 267.665848
L 448.932898 265.263882
L 448.932898 262.861916
L 448.932898 260.459951
L 448.932898 258.057985
L 448.932898 255.65602
L 448.932898 253.254054
L 448.932898 250.852088
L 448.932898 248.450123
L 448.932898 246.048157
L 448.932898 243.646192
L 448.932898 241.244226
L 448.932898 238.84226
L 448.932898 236.440295
L 448.932898 234.038329
L 448.932898 231.636364
L 448.932898 229.234398
L 448.932898 226.832432
L 448.932898 224.430467
L 448.932898 222.028501
L 448.932898 219.626536
L 448.932898 217.22457
L 448.932898 214.822604
L 448.932898 212.420639
L 448.932898 210.018673
L 448.932898 207.616708
L 448.932898 205.214742
L 448.932898 202.812776
L 448.932898 200.410811
L 448.932898 198.008845
L 448.932898 195.60688
L 448.932898 193.204914
L 448.932898 190.802948
L 448.932898 188.400983
L 448.932898 185.999017
L 448.932898 183.597052
L 448.932898 181.195086
L 448.932898 178.79312
L 448.932898 176.391155
L 448.932898 173.989189
L 448.932898 171.587224
L 448.932898 169.185258
L 448.932898 166.783292
L 448.932898 164.381327
L 448.932898 161.979361
L 448.932898 159.577396
L 448.932898 157.17543
L 448.932898 154.773464
L 448.932898 152.371499
L 448.932898 149.969533
L 448.932898 147.567568
L 448.932898 145.165602
L 448.932898 142.763636
L 448.932898 140.361671
L 448.932898 137.959705
L 448.932898 135.55774
L 448.932898 133.155774
L 448.932898 130.753808
L 448.932898 128.351843
L 448.932898 125.949877
L 448.932898 123.547912
L 448.932898 121.145946
L 448.932898 118.74398
L 448.932898 116.342015
L 448.932898 113.940049
L 448.932898 111.538084
L 448.932898 109.136118
L 448.932898 106.734152
L 448.932898 104.332187
L 448.932898 101.930221
L 448.932898 99.528256
L 448.932898 97.12629
L 448.932898 94.724324
L 448.932898 92.322359
L 448.932898 89.920393
L 448.932898 87.518428
L 448.932898 85.116462
L 448.932898 82.714496
L 448.932898 80.312531
L 448.932898 77.910565
L 448.932898 75.5086
L 448.932898 73.106634
L 448.932898 70.704668
L 448.932898 68.302703
z
" clip-path="url(#p9212d3a8d5)" style="fill: #7678ed; opacity: 0.42"/>
   </g>
   <g id="line2d_2"/>
   <g id="line2d_3">
    <path d="M 213.675572 223.783784
L 213.675572 223.044717
L 213.675572 222.305651
L 213.675572 221.566585
L 213.675572 220.827518
L 213.675572 220.088452
L 213.675572 219.349386
L 213.675572 218.610319
L 213.675572 217.871253
L 213.675572 217.132187
L 213.675572 216.39312
L 213.675572 215.654054
L 213.675572 214.914988
L 213.675572 214.175921
L 213.675572 213.436855
L 213.675572 212.697789
L 213.675572 211.958722
L 213.675572 211.219656
L 213.675572 210.48059
L 213.675572 209.741523
L 213.675572 209.002457
L 213.675572 208.263391
L 213.675572 207.524324
L 213.675572 206.785258
L 213.675572 206.046192
L 213.675572 205.307125
L 213.675572 204.568059
L 213.675572 203.828993
L 213.675572 203.089926
L 213.675572 202.35086
L 213.675572 201.611794
L 213.675572 200.872727
L 213.675572 200.133661
L 213.675572 199.394595
L 213.675572 198.655528
L 213.675572 197.916462
L 213.675572 197.177396
L 213.675572 196.438329
L 213.675572 195.699263
L 213.675572 194.960197
L 213.675572 194.22113
L 213.675572 193.482064
L 213.675572 192.742998
L 213.675572 192.003931
L 213.675572 191.264865
L 213.675572 190.525799
L 213.675572 189.786732
L 213.675572 189.047666
L 213.675572 188.3086
L 213.675572 187.569533
L 213.675572 186.830467
L 213.675572 186.0914
L 213.675572 185.352334
L 213.675572 184.613268
L 213.675572 183.874201
L 213.675572 183.135135
L 213.675572 182.396069
L 213.675572 181.657002
L 213.675572 180.917936
L 213.675572 180.17887
L 213.675572 179.439803
L 213.675572 178.700737
L 213.675572 177.961671
L 213.675572 177.222604
L 213.675572 176.483538
L 213.675572 175.744472
L 213.675572 175.005405
L 213.675572 174.266339
L 213.675572 173.527273
L 213.675572 172.788206
L 213.675572 172.04914
L 213.675572 171.310074
L 213.675572 170.571007
L 213.675572 169.831941
L 213.675572 169.092875
L 213.675572 168.353808
L 213.675572 167.614742
L 213.675572 166.875676
L 213.675572 166.136609
L 213.675572 165.397543
L 213.675572 164.658477
L 213.675572 163.91941
L 213.675572 163.180344
L 213.675572 162.441278
L 213.675572 161.702211
L 213.675572 160.963145
L 213.675572 160.224079
L 213.675572 159.485012
L 213.675572 158.745946
L 213.675572 158.00688
L 213.675572 157.267813
L 213.675572 156.528747
L 213.675572 155.789681
L 213.675572 155.050614
L 213.675572 154.311548
L 213.675572 153.572482
L 213.675572 152.833415
L 213.675572 152.094349
L 213.675572 151.355283
L 213.675572 150.616216
" clip-path="url(#p9212d3a8d5)" style="fill: none; stroke: #d1495b; stroke-width: 1.9"/>
   </g>
   <g id="line2d_4">
    <path d="M 249.588077 260.367568
L 250.018574 258.889435
L 250.439564 257.411302
L 250.851095 255.93317
L 251.253215 254.455037
L 251.645969 252.976904
L 252.0294 251.498771
L 252.403552 250.020639
L 252.768465 248.542506
L 253.124181 247.064373
L 253.470737 245.586241
L 253.808172 244.108108
L 254.136522 242.629975
L 254.455822 241.151843
L 254.766106 239.67371
L 255.067408 238.195577
L 255.359759 236.717445
L 255.643191 235.239312
L 255.917733 233.761179
L 256.183414 232.283047
L 256.440261 230.804914
L 256.688301 229.326781
L 256.92756 227.848649
L 257.158062 226.370516
L 257.379831 224.892383
L 257.592889 223.414251
L 257.797259 221.936118
L 257.992961 220.457985
L 258.180015 218.979853
L 258.358439 217.50172
L 258.528252 216.023587
L 258.689471 214.545455
L 258.842111 213.067322
L 258.986189 211.589189
L 259.121717 210.111057
L 259.248711 208.632924
L 259.367182 207.154791
L 259.477142 205.676658
L 259.578603 204.198526
L 259.671573 202.720393
L 259.756062 201.24226
L 259.832079 199.764128
L 259.899631 198.285995
L 259.958724 196.807862
L 260.009365 195.32973
L 260.051558 193.851597
L 260.085307 192.373464
L 260.110616 190.895332
L 260.127488 189.417199
L 260.135923 187.939066
L 260.135923 186.460934
L 260.127488 184.982801
L 260.110616 183.504668
L 260.085307 182.026536
L 260.051558 180.548403
L 260.009365 179.07027
L 259.958724 177.592138
L 259.899631 176.114005
L 259.832079 174.635872
L 259.756062 173.15774
L 259.671573 171.679607
L 259.578603 170.201474
L 259.477142 168.723342
L 259.367182 167.245209
L 259.248711 165.767076
L 259.121717 164.288943
L 258.986189 162.810811
L 258.842111 161.332678
L 258.689471 159.854545
L 258.528252 158.376413
L 258.358439 156.89828
L 258.180015 155.420147
L 257.992961 153.942015
L 257.797259 152.463882
L 257.592889 150.985749
L 257.379831 149.507617
L 257.158062 148.029484
L 256.92756 146.551351
L 256.688301 145.073219
L 256.440261 143.595086
L 256.183414 142.116953
L 255.917733 140.638821
L 255.643191 139.160688
L 255.359759 137.682555
L 255.067408 136.204423
L 254.766106 134.72629
L 254.455822 133.248157
L 254.136522 131.770025
L 253.808172 130.291892
L 253.470737 128.813759
L 253.124181 127.335627
L 252.768465 125.857494
L 252.403552 124.379361
L 252.0294 122.901229
L 251.645969 121.423096
L 251.253215 119.944963
L 250.851095 118.46683
L 250.439564 116.988698
L 250.018574 115.510565
L 249.588077 114.032432
" clip-path="url(#p9212d3a8d5)" style="fill: none; stroke: #111827; stroke-width: 1.25"/>
   </g>
   <g id="line2d_5">
    <path d="M 283.828436 296.951351
L 283.38389 294.734152
L 282.94877 292.516953
L 282.523052 290.299754
L 282.106716 288.082555
L 281.699738 285.865356
L 281.302099 283.648157
L 280.913777 281.430958
L 280.534754 279.213759
L 280.165009 276.99656
L 279.804523 274.779361
L 279.453279 272.562162
L 279.111258 270.344963
L 278.778444 268.127764
L 278.454818 265.910565
L 278.140366 263.693366
L 277.835071 261.476167
L 277.538918 259.258968
L 277.251892 257.041769
L 276.973979 254.82457
L 276.705165 252.607371
L 276.445436 250.390172
L 276.194781 248.172973
L 275.953185 245.955774
L 275.720638 243.738575
L 275.497127 241.521376
L 275.282643 239.304177
L 275.077173 237.086978
L 274.880709 234.869779
L 274.693241 232.65258
L 274.514759 230.435381
L 274.345254 228.218182
L 274.184719 226.000983
L 274.033145 223.783784
L 273.890526 221.566585
L 273.756854 219.349386
L 273.632122 217.132187
L 273.516325 214.914988
L 273.409457 212.697789
L 273.311513 210.48059
L 273.222488 208.263391
L 273.142378 206.046192
L 273.071179 203.828993
L 273.008887 201.611794
L 272.955499 199.394595
L 272.911014 197.177396
L 272.875428 194.960197
L 272.84874 192.742998
L 272.830949 190.525799
L 272.822053 188.3086
L 272.822053 186.0914
L 272.830949 183.874201
L 272.84874 181.657002
L 272.875428 179.439803
L 272.911014 177.222604
L 272.955499 175.005405
L 273.008887 172.788206
L 273.071179 170.571007
L 273.142378 168.353808
L 273.222488 166.136609
L 273.311513 163.91941
L 273.409457 161.702211
L 273.516325 159.485012
L 273.632122 157.267813
L 273.756854 155.050614
L 273.890526 152.833415
L 274.033145 150.616216
L 274.184719 148.399017
L 274.345254 146.181818
L 274.514759 143.964619
L 274.693241 141.74742
L 274.880709 139.530221
L 275.077173 137.313022
L 275.282643 135.095823
L 275.497127 132.878624
L 275.720638 130.661425
L 275.953185 128.444226
L 276.194781 126.227027
L 276.445436 124.009828
L 276.705165 121.792629
L 276.973979 119.57543
L 277.251892 117.358231
L 277.538918 115.141032
L 277.835071 112.923833
L 278.140366 110.706634
L 278.454818 108.489435
L 278.778444 106.272236
L 279.111258 104.055037
L 279.453279 101.837838
L 279.804523 99.620639
L 280.165009 97.40344
L 280.534754 95.186241
L 280.913777 92.969042
L 281.302099 90.751843
L 281.699738 88.534644
L 282.106716 86.317445
L 282.523052 84.100246
L 282.94877 81.883047
L 283.38389 79.665848
L 283.828436 77.448649
" clip-path="url(#p9212d3a8d5)" style="fill: none; stroke: #111827; stroke-width: 1.25"/>
   </g>
   <g id="line2d_6">
    <path d="M 249.588077 114.032432
L 249.588077 77.448649
" clip-path="url(#p9212d3a8d5)" style="fill: none; stroke-dasharray: 4.625,2; stroke-dashoffset: 0; stroke: #111827; stroke-width: 1.25"/>
   </g>
   <g id="line2d_7">
    <path d="M 249.588077 260.367568
L 249.588077 296.951351
" clip-path="url(#p9212d3a8d5)" style="fill: none; stroke-dasharray: 4.625,2; stroke-dashoffset: 0; stroke: #111827; stroke-width: 1.25"/>
   </g>
   <g id="line2d_8">
    <path d="M 249.588077 77.448649
L 283.828436 77.448649
" clip-path="url(#p9212d3a8d5)" style="fill: none; stroke: #111827; stroke-width: 1.25"/>
   </g>
   <g id="line2d_9">
    <path d="M 249.588077 296.951351
L 283.828436 296.951351
" clip-path="url(#p9212d3a8d5)" style="fill: none; stroke: #111827; stroke-width: 1.25"/>
   </g>
   <g id="line2d_10">
    <path d="M 284.844821 296.951351
L 284.433918 294.734152
L 284.03168 292.516953
L 283.638088 290.299754
L 283.253127 288.082555
L 282.876777 285.865356
L 282.509024 283.648157
L 282.149851 281.430958
L 281.799243 279.213759
L 281.457183 276.99656
L 281.123657 274.779361
L 280.798651 272.562162
L 280.482151 270.344963
L 280.174142 268.127764
L 279.874612 265.910565
L 279.583548 263.693366
L 279.300937 261.476167
L 279.026767 259.258968
L 278.761027 257.041769
L 278.503705 254.82457
L 278.254789 252.607371
L 278.014271 250.390172
L 277.782138 248.172973
L 277.558383 245.955774
L 277.342994 243.738575
L 277.135963 241.521376
L 276.937281 239.304177
L 276.74694 237.086978
L 276.564931 234.869779
L 276.391248 232.65258
L 276.225882 230.435381
L 276.068828 228.218182
L 275.920077 226.000983
L 275.779625 223.783784
L 275.647465 221.566585
L 275.523591 219.349386
L 275.407999 217.132187
L 275.300684 214.914988
L 275.201641 212.697789
L 275.110866 210.48059
L 275.028355 208.263391
L 274.954105 206.046192
L 274.888113 203.828993
L 274.830375 201.611794
L 274.780891 199.394595
L 274.739657 197.177396
L 274.706672 194.960197
L 274.681934 192.742998
L 274.665443 190.525799
L 274.657197 188.3086
L 274.657197 186.0914
L 274.665443 183.874201
L 274.681934 181.657002
L 274.706672 179.439803
L 274.739657 177.222604
L 274.780891 175.005405
L 274.830375 172.788206
L 274.888113 170.571007
L 274.954105 168.353808
L 275.028355 166.136609
L 275.110866 163.91941
L 275.201641 161.702211
L 275.300684 159.485012
L 275.407999 157.267813
L 275.523591 155.050614
L 275.647465 152.833415
L 275.779625 150.616216
L 275.920077 148.399017
L 276.068828 146.181818
L 276.225882 143.964619
L 276.391248 141.74742
L 276.564931 139.530221
L 276.74694 137.313022
L 276.937281 135.095823
L 277.135963 132.878624
L 277.342994 130.661425
L 277.558383 128.444226
L 277.782138 126.227027
L 278.014271 124.009828
L 278.254789 121.792629
L 278.503705 119.57543
L 278.761027 117.358231
L 279.026767 115.141032
L 279.300937 112.923833
L 279.583548 110.706634
L 279.874612 108.489435
L 280.174142 106.272236
L 280.482151 104.055037
L 280.798651 101.837838
L 281.123657 99.620639
L 281.457183 97.40344
L 281.799243 95.186241
L 282.149851 92.969042
L 282.509024 90.751843
L 282.876777 88.534644
L 283.253127 86.317445
L 283.638088 84.100246
L 284.03168 81.883047
L 284.433918 79.665848
L 284.844821 77.448649
" clip-path="url(#p9212d3a8d5)" style="fill: none; stroke: #111827; stroke-width: 1.25"/>
   </g>
   <g id="line2d_11">
    <path d="M 310.100553 296.951351
L 311.349072 294.734152
L 312.564352 292.516953
L 313.74701 290.299754
L 314.897634 288.082555
L 316.016782 285.865356
L 317.104984 283.648157
L 318.162745 281.430958
L 319.190543 279.213759
L 320.188835 276.99656
L 321.158057 274.779361
L 322.098621 272.562162
L 323.010922 270.344963
L 323.895334 268.127764
L 324.752216 265.910565
L 325.581908 263.693366
L 326.384735 261.476167
L 327.161005 259.258968
L 327.911013 257.041769
L 328.635039 254.82457
L 329.33335 252.607371
L 330.0062 250.390172
L 330.65383 248.172973
L 331.27647 245.955774
L 331.874337 243.738575
L 332.44764 241.521376
L 332.996573 239.304177
L 333.521323 237.086978
L 334.022067 234.869779
L 334.49897 232.65258
L 334.95219 230.435381
L 335.381874 228.218182
L 335.788162 226.000983
L 336.171185 223.783784
L 336.531064 221.566585
L 336.867914 219.349386
L 337.18184 217.132187
L 337.472942 214.914988
L 337.741309 212.697789
L 337.987025 210.48059
L 338.210165 208.263391
L 338.410799 206.046192
L 338.588986 203.828993
L 338.744783 201.611794
L 338.878235 199.394595
L 338.989384 197.177396
L 339.078263 194.960197
L 339.144899 192.742998
L 339.189311 190.525799
L 339.211514 188.3086
L 339.211514 186.0914
L 339.189311 183.874201
L 339.144899 181.657002
L 339.078263 179.439803
L 338.989384 177.222604
L 338.878235 175.005405
L 338.744783 172.788206
L 338.588986 170.571007
L 338.410799 168.353808
L 338.210165 166.136609
L 337.987025 163.91941
L 337.741309 161.702211
L 337.472942 159.485012
L 337.18184 157.267813
L 336.867914 155.050614
L 336.531064 152.833415
L 336.171185 150.616216
L 335.788162 148.399017
L 335.381874 146.181818
L 334.95219 143.964619
L 334.49897 141.74742
L 334.022067 139.530221
L 333.521323 137.313022
L 332.996573 135.095823
L 332.44764 132.878624
L 331.874337 130.661425
L 331.27647 128.444226
L 330.65383 126.227027
L 330.0062 124.009828
L 329.33335 121.792629
L 328.635039 119.57543
L 327.911013 117.358231
L 327.161005 115.141032
L 326.384735 112.923833
L 325.581908 110.706634
L 324.752216 108.489435
L 323.895334 106.272236
L 323.010922 104.055037
L 322.098621 101.837838
L 321.158057 99.620639
L 320.188835 97.40344
L 319.190543 95.186241
L 318.162745 92.969042
L 317.104984 90.751843
L 316.016782 88.534644
L 314.897634 86.317445
L 313.74701 84.100246
L 312.564352 81.883047
L 311.349072 79.665848
L 310.100553 77.448649
" clip-path="url(#p9212d3a8d5)" style="fill: none; stroke: #111827; stroke-width: 1.25"/>
   </g>
   <g id="line2d_12">
    <path d="M 284.844821 77.448649
L 284.844821 77.448649
" clip-path="url(#p9212d3a8d5)" style="fill: none; stroke-dasharray: 4.625,2; stroke-dashoffset: 0; stroke: #111827; stroke-width: 1.25"/>
   </g>
   <g id="line2d_13">
    <path d="M 284.844821 296.951351
L 284.844821 296.951351
" clip-path="url(#p9212d3a8d5)" style="fill: none; stroke-dasharray: 4.625,2; stroke-dashoffset: 0; stroke: #111827; stroke-width: 1.25"/>
   </g>
   <g id="line2d_14">
    <path d="M 284.844821 77.448649
L 310.100553 77.448649
" clip-path="url(#p9212d3a8d5)" style="fill: none; stroke: #111827; stroke-width: 1.25"/>
   </g>
   <g id="line2d_15">
    <path d="M 284.844821 296.951351
L 310.100553 296.951351
" clip-path="url(#p9212d3a8d5)" style="fill: none; stroke: #111827; stroke-width: 1.25"/>
   </g>
   <g id="line2d_16">
    <path d="M 346.443652 306.097297
L 346.227482 303.695332
L 346.015757 301.293366
L 345.808477 298.8914
L 345.605639 296.489435
L 345.407241 294.087469
L 345.21328 291.685504
L 345.023756 289.283538
L 344.838666 286.881572
L 344.658008 284.479607
L 344.48178 282.077641
L 344.30998 279.675676
L 344.142608 277.27371
L 343.979661 274.871744
L 343.821136 272.469779
L 343.667034 270.067813
L 343.517352 267.665848
L 343.372089 265.263882
L 343.231243 262.861916
L 343.094813 260.459951
L 342.962798 258.057985
L 342.835195 255.65602
L 342.712005 253.254054
L 342.593225 250.852088
L 342.478855 248.450123
L 342.368892 246.048157
L 342.263337 243.646192
L 342.162188 241.244226
L 342.065445 238.84226
L 341.973105 236.440295
L 341.885168 234.038329
L 341.801634 231.636364
L 341.722501 229.234398
L 341.647769 226.832432
L 341.577437 224.430467
L 341.511503 222.028501
L 341.449969 219.626536
L 341.392832 217.22457
L 341.340093 214.822604
L 341.29175 212.420639
L 341.247804 210.018673
L 341.208254 207.616708
L 341.173099 205.214742
L 341.142339 202.812776
L 341.115974 200.410811
L 341.094004 198.008845
L 341.076428 195.60688
L 341.063246 193.204914
L 341.054458 190.802948
L 341.050064 188.400983
L 341.050064 185.999017
L 341.054458 183.597052
L 341.063246 181.195086
L 341.076428 178.79312
L 341.094004 176.391155
L 341.115974 173.989189
L 341.142339 171.587224
L 341.173099 169.185258
L 341.208254 166.783292
L 341.247804 164.381327
L 341.29175 161.979361
L 341.340093 159.577396
L 341.392832 157.17543
L 341.449969 154.773464
L 341.511503 152.371499
L 341.577437 149.969533
L 341.647769 147.567568
L 341.722501 145.165602
L 341.801634 142.763636
L 341.885168 140.361671
L 341.973105 137.959705
L 342.065445 135.55774
L 342.162188 133.155774
L 342.263337 130.753808
L 342.368892 128.351843
L 342.478855 125.949877
L 342.593225 123.547912
L 342.712005 121.145946
L 342.835195 118.74398
L 342.962798 116.342015
L 343.094813 113.940049
L 343.231243 111.538084
L 343.372089 109.136118
L 343.517352 106.734152
L 343.667034 104.332187
L 343.821136 101.930221
L 343.979661 99.528256
L 344.142608 97.12629
L 344.30998 94.724324
L 344.48178 92.322359
L 344.658008 89.920393
L 344.838666 87.518428
L 345.023756 85.116462
L 345.21328 82.714496
L 345.407241 80.312531
L 345.605639 77.910565
L 345.808477 75.5086
L 346.015757 73.106634
L 346.227482 70.704668
L 346.443652 68.302703
" clip-path="url(#p9212d3a8d5)" style="fill: none; stroke: #111827; stroke-width: 1.25"/>
   </g>
   <g id="line2d_17">
    <path d="M 372.154676 306.097297
L 372.861272 303.695332
L 373.552241 301.293366
L 374.227663 298.8914
L 374.887617 296.489435
L 375.532178 294.087469
L 376.161421 291.685504
L 376.775417 289.283538
L 377.374236 286.881572
L 377.957943 284.479607
L 378.526606 282.077641
L 379.080286 279.675676
L 379.619046 277.27371
L 380.142943 274.871744
L 380.652036 272.469779
L 381.146379 270.067813
L 381.626026 267.665848
L 382.091029 265.263882
L 382.541438 262.861916
L 382.9773 260.459951
L 383.398662 258.057985
L 383.805568 255.65602
L 384.198061 253.254054
L 384.576183 250.852088
L 384.939973 248.450123
L 385.289468 246.048157
L 385.624706 243.646192
L 385.94572 241.244226
L 386.252545 238.84226
L 386.54521 236.440295
L 386.823747 234.038329
L 387.088184 231.636364
L 387.338548 229.234398
L 387.574863 226.832432
L 387.797156 224.430467
L 388.005447 222.028501
L 388.199757 219.626536
L 388.380107 217.22457
L 388.546515 214.822604
L 388.698997 212.420639
L 388.837568 210.018673
L 388.962243 207.616708
L 389.073034 205.214742
L 389.169952 202.812776
L 389.253006 200.410811
L 389.322206 198.008845
L 389.377557 195.60688
L 389.419066 193.204914
L 389.446736 190.802948
L 389.46057 188.400983
L 389.46057 185.999017
L 389.446736 183.597052
L 389.419066 181.195086
L 389.377557 178.79312
L 389.322206 176.391155
L 389.253006 173.989189
L 389.169952 171.587224
L 389.073034 169.185258
L 388.962243 166.783292
L 388.837568 164.381327
L 388.698997 161.979361
L 388.546515 159.577396
L 388.380107 157.17543
L 388.199757 154.773464
L 388.005447 152.371499
L 387.797156 149.969533
L 387.574863 147.567568
L 387.338548 145.165602
L 387.088184 142.763636
L 386.823747 140.361671
L 386.54521 137.959705
L 386.252545 135.55774
L 385.94572 133.155774
L 385.624706 130.753808
L 385.289468 128.351843
L 384.939973 125.949877
L 384.576183 123.547912
L 384.198061 121.145946
L 383.805568 118.74398
L 383.398662 116.342015
L 382.9773 113.940049
L 382.541438 111.538084
L 382.091029 109.136118
L 381.626026 106.734152
L 381.146379 104.332187
L 380.652036 101.930221
L 380.142943 99.528256
L 379.619046 97.12629
L 379.080286 94.724324
L 378.526606 92.322359
L 377.957943 89.920393
L 377.374236 87.518428
L 376.775417 85.116462
L 376.161421 82.714496
L 375.532178 80.312531
L 374.887617 77.910565
L 374.227663 75.5086
L 373.552241 73.106634
L 372.861272 70.704668
L 372.154676 68.302703
" clip-path="url(#p9212d3a8d5)" style="fill: none; stroke: #111827; stroke-width: 1.25"/>
   </g>
   <g id="line2d_18">
    <path d="M 346.443652 68.302703
L 346.443652 68.302703
" clip-path="url(#p9212d3a8d5)" style="fill: none; stroke-dasharray: 4.625,2; stroke-dashoffset: 0; stroke: #111827; stroke-width: 1.25"/>
   </g>
   <g id="line2d_19">
    <path d="M 346.443652 306.097297
L 346.443652 306.097297
" clip-path="url(#p9212d3a8d5)" style="fill: none; stroke-dasharray: 4.625,2; stroke-dashoffset: 0; stroke: #111827; stroke-width: 1.25"/>
   </g>
   <g id="line2d_20">
    <path d="M 346.443652 68.302703
L 372.154676 68.302703
" clip-path="url(#p9212d3a8d5)" style="fill: none; stroke: #111827; stroke-width: 1.25"/>
   </g>
   <g id="line2d_21">
    <path d="M 346.443652 306.097297
L 372.154676 306.097297
" clip-path="url(#p9212d3a8d5)" style="fill: none; stroke: #111827; stroke-width: 1.25"/>
   </g>
   <g id="line2d_22">
    <path d="M 410.424086 306.097297
L 409.639634 303.695332
L 408.872842 301.293366
L 408.123597 298.8914
L 407.391791 296.489435
L 406.677318 294.087469
L 405.980077 291.685504
L 405.299969 289.283538
L 404.636898 286.881572
L 403.990772 284.479607
L 403.361501 282.077641
L 402.748999 279.675676
L 402.153181 277.27371
L 401.573969 274.871744
L 401.011282 272.469779
L 400.465046 270.067813
L 399.935187 267.665848
L 399.421637 265.263882
L 398.924327 262.861916
L 398.443191 260.459951
L 397.978168 258.057985
L 397.529197 255.65602
L 397.09622 253.254054
L 396.679182 250.852088
L 396.278029 248.450123
L 395.89271 246.048157
L 395.523176 243.646192
L 395.169381 241.244226
L 394.83128 238.84226
L 394.508832 236.440295
L 394.201994 234.038329
L 393.910731 231.636364
L 393.635005 229.234398
L 393.374781 226.832432
L 393.13003 224.430467
L 392.900719 222.028501
L 392.686821 219.626536
L 392.48831 217.22457
L 392.305162 214.822604
L 392.137354 212.420639
L 391.984865 210.018673
L 391.847679 207.616708
L 391.725776 205.214742
L 391.619144 202.812776
L 391.527769 200.410811
L 391.45164 198.008845
L 391.390747 195.60688
L 391.345085 193.204914
L 391.314646 190.802948
L 391.299427 188.400983
L 391.299427 185.999017
L 391.314646 183.597052
L 391.345085 181.195086
L 391.390747 178.79312
L 391.45164 176.391155
L 391.527769 173.989189
L 391.619144 171.587224
L 391.725776 169.185258
L 391.847679 166.783292
L 391.984865 164.381327
L 392.137354 161.979361
L 392.305162 159.577396
L 392.48831 157.17543
L 392.686821 154.773464
L 392.900719 152.371499
L 393.13003 149.969533
L 393.374781 147.567568
L 393.635005 145.165602
L 393.910731 142.763636
L 394.201994 140.361671
L 394.508832 137.959705
L 394.83128 135.55774
L 395.169381 133.155774
L 395.523176 130.753808
L 395.89271 128.351843
L 396.278029 125.949877
L 396.679182 123.547912
L 397.09622 121.145946
L 397.529197 118.74398
L 397.978168 116.342015
L 398.443191 113.940049
L 398.924327 111.538084
L 399.421637 109.136118
L 399.935187 106.734152
L 400.465046 104.332187
L 401.011282 101.930221
L 401.573969 99.528256
L 402.153181 97.12629
L 402.748999 94.724324
L 403.361501 92.322359
L 403.990772 89.920393
L 404.636898 87.518428
L 405.299969 85.116462
L 405.980077 82.714496
L 406.677318 80.312531
L 407.391791 77.910565
L 408.123597 75.5086
L 408.872842 73.106634
L 409.639634 70.704668
L 410.424086 68.302703
" clip-path="url(#p9212d3a8d5)" style="fill: none; stroke: #111827; stroke-width: 1.25"/>
   </g>
   <g id="line2d_23">
    <path d="M 448.932898 306.097297
L 448.932898 303.695332
L 448.932898 301.293366
L 448.932898 298.8914
L 448.932898 296.489435
L 448.932898 294.087469
L 448.932898 291.685504
L 448.932898 289.283538
L 448.932898 286.881572
L 448.932898 284.479607
L 448.932898 282.077641
L 448.932898 279.675676
L 448.932898 277.27371
L 448.932898 274.871744
L 448.932898 272.469779
L 448.932898 270.067813
L 448.932898 267.665848
L 448.932898 265.263882
L 448.932898 262.861916
L 448.932898 260.459951
L 448.932898 258.057985
L 448.932898 255.65602
L 448.932898 253.254054
L 448.932898 250.852088
L 448.932898 248.450123
L 448.932898 246.048157
L 448.932898 243.646192
L 448.932898 241.244226
L 448.932898 238.84226
L 448.932898 236.440295
L 448.932898 234.038329
L 448.932898 231.636364
L 448.932898 229.234398
L 448.932898 226.832432
L 448.932898 224.430467
L 448.932898 222.028501
L 448.932898 219.626536
L 448.932898 217.22457
L 448.932898 214.822604
L 448.932898 212.420639
L 448.932898 210.018673
L 448.932898 207.616708
L 448.932898 205.214742
L 448.932898 202.812776
L 448.932898 200.410811
L 448.932898 198.008845
L 448.932898 195.60688
L 448.932898 193.204914
L 448.932898 190.802948
L 448.932898 188.400983
L 448.932898 185.999017
L 448.932898 183.597052
L 448.932898 181.195086
L 448.932898 178.79312
L 448.932898 176.391155
L 448.932898 173.989189
L 448.932898 171.587224
L 448.932898 169.185258
L 448.932898 166.783292
L 448.932898 164.381327
L 448.932898 161.979361
L 448.932898 159.577396
L 448.932898 157.17543
L 448.932898 154.773464
L 448.932898 152.371499
L 448.932898 149.969533
L 448.932898 147.567568
L 448.932898 145.165602
L 448.932898 142.763636
L 448.932898 140.361671
L 448.932898 137.959705
L 448.932898 135.55774
L 448.932898 133.155774
L 448.932898 130.753808
L 448.932898 128.351843
L 448.932898 125.949877
L 448.932898 123.547912
L 448.932898 121.145946
L 448.932898 118.74398
L 448.932898 116.342015
L 448.932898 113.940049
L 448.932898 111.538084
L 448.932898 109.136118
L 448.932898 106.734152
L 448.932898 104.332187
L 448.932898 101.930221
L 448.932898 99.528256
L 448.932898 97.12629
L 448.932898 94.724324
L 448.932898 92.322359
L 448.932898 89.920393
L 448.932898 87.518428
L 448.932898 85.116462
L 448.932898 82.714496
L 448.932898 80.312531
L 448.932898 77.910565
L 448.932898 75.5086
L 448.932898 73.106634
L 448.932898 70.704668
L 448.932898 68.302703
" clip-path="url(#p9212d3a8d5)" style="fill: none; stroke: #111827; stroke-width: 1.25"/>
   </g>
   <g id="line2d_24">
    <path d="M 410.424086 68.302703
L 410.424086 68.302703
" clip-path="url(#p9212d3a8d5)" style="fill: none; stroke-dasharray: 4.625,2; stroke-dashoffset: 0; stroke: #111827; stroke-width: 1.25"/>
   </g>
   <g id="line2d_25">
    <path d="M 410.424086 306.097297
L 410.424086 306.097297
" clip-path="url(#p9212d3a8d5)" style="fill: none; stroke-dasharray: 4.625,2; stroke-dashoffset: 0; stroke: #111827; stroke-width: 1.25"/>
   </g>
   <g id="line2d_26">
    <path d="M 410.424086 68.302703
L 448.932898 68.302703
" clip-path="url(#p9212d3a8d5)" style="fill: none; stroke: #111827; stroke-width: 1.25"/>
   </g>
   <g id="line2d_27">
    <path d="M 410.424086 306.097297
L 448.932898 306.097297
" clip-path="url(#p9212d3a8d5)" style="fill: none; stroke: #111827; stroke-width: 1.25"/>
   </g>
   <g id="line2d_28">
    <path d="M 410.424086 68.302703
L 519.510096 68.302703
" clip-path="url(#p9212d3a8d5)" style="fill: none; stroke-dasharray: 3.33,1.44; stroke-dashoffset: 0; stroke: #007c83; stroke-width: 0.9"/>
   </g>
   <g id="patch_6">
    <path d="M 438.738861 64.292503
Q 419.476782 87.149687 401.259384 108.767207
" style="fill: none; stroke: #007c83; stroke-width: 1.45; stroke-linecap: round"/>
    <path d="M 406.18778 106.643315
L 401.259384 108.767207
L 402.517308 103.550155
" style="fill: none; stroke: #007c83; stroke-width: 1.45; stroke-linecap: round"/>
   </g>
   <g id="text_1">
    <g id="patch_7">
     <path d="M 381.96495 62.266054
L 514.80495 62.266054
Q 517.80495 62.266054 517.80495 59.266054
L 517.80495 46.426054
Q 517.80495 43.426054 514.80495 43.426054
L 381.96495 43.426054
Q 378.96495 43.426054 378.96495 46.426054
L 378.96495 59.266054
Q 378.96495 62.266054 381.96495 62.266054
z
" style="fill: #ffffff; opacity: 0.96; stroke: #007c83; stroke-linejoin: miter"/>
    </g>
    <!-- Radius of curvature $R_j$ -->
    <g style="fill: #007c83" transform="translate(381.96495 55.546054) scale(0.12 -0.12)">
     <defs>
      <path id="DejaVuSans-52" d="M 2841 2188
Q 3044 2119 3236 1894
Q 3428 1669 3622 1275
L 4263 0
L 3584 0
L 2988 1197
Q 2756 1666 2539 1819
Q 2322 1972 1947 1972
L 1259 1972
L 1259 0
L 628 0
L 628 4666
L 2053 4666
Q 2853 4666 3247 4331
Q 3641 3997 3641 3322
Q 3641 2881 3436 2590
Q 3231 2300 2841 2188
z
M 1259 4147
L 1259 2491
L 2053 2491
Q 2509 2491 2742 2702
Q 2975 2913 2975 3322
Q 2975 3731 2742 3939
Q 2509 4147 2053 4147
L 1259 4147
z
" transform="scale(0.015625)"/>
      <path id="DejaVuSans-61" d="M 2194 1759
Q 1497 1759 1228 1600
Q 959 1441 959 1056
Q 959 750 1161 570
Q 1363 391 1709 391
Q 2188 391 2477 730
Q 2766 1069 2766 1631
L 2766 1759
L 2194 1759
z
M 3341 1997
L 3341 0
L 2766 0
L 2766 531
Q 2569 213 2275 61
Q 1981 -91 1556 -91
Q 1019 -91 701 211
Q 384 513 384 1019
Q 384 1609 779 1909
Q 1175 2209 1959 2209
L 2766 2209
L 2766 2266
Q 2766 2663 2505 2880
Q 2244 3097 1772 3097
Q 1472 3097 1187 3025
Q 903 2953 641 2809
L 641 3341
Q 956 3463 1253 3523
Q 1550 3584 1831 3584
Q 2591 3584 2966 3190
Q 3341 2797 3341 1997
z
" transform="scale(0.015625)"/>
      <path id="DejaVuSans-64" d="M 2906 2969
L 2906 4863
L 3481 4863
L 3481 0
L 2906 0
L 2906 525
Q 2725 213 2448 61
Q 2172 -91 1784 -91
Q 1150 -91 751 415
Q 353 922 353 1747
Q 353 2572 751 3078
Q 1150 3584 1784 3584
Q 2172 3584 2448 3432
Q 2725 3281 2906 2969
z
M 947 1747
Q 947 1113 1208 752
Q 1469 391 1925 391
Q 2381 391 2643 752
Q 2906 1113 2906 1747
Q 2906 2381 2643 2742
Q 2381 3103 1925 3103
Q 1469 3103 1208 2742
Q 947 2381 947 1747
z
" transform="scale(0.015625)"/>
      <path id="DejaVuSans-69" d="M 603 3500
L 1178 3500
L 1178 0
L 603 0
L 603 3500
z
M 603 4863
L 1178 4863
L 1178 4134
L 603 4134
L 603 4863
z
" transform="scale(0.015625)"/>
      <path id="DejaVuSans-75" d="M 544 1381
L 544 3500
L 1119 3500
L 1119 1403
Q 1119 906 1312 657
Q 1506 409 1894 409
Q 2359 409 2629 706
Q 2900 1003 2900 1516
L 2900 3500
L 3475 3500
L 3475 0
L 2900 0
L 2900 538
Q 2691 219 2414 64
Q 2138 -91 1772 -91
Q 1169 -91 856 284
Q 544 659 544 1381
z
M 1991 3584
L 1991 3584
z
" transform="scale(0.015625)"/>
      <path id="DejaVuSans-73" d="M 2834 3397
L 2834 2853
Q 2591 2978 2328 3040
Q 2066 3103 1784 3103
Q 1356 3103 1142 2972
Q 928 2841 928 2578
Q 928 2378 1081 2264
Q 1234 2150 1697 2047
L 1894 2003
Q 2506 1872 2764 1633
Q 3022 1394 3022 966
Q 3022 478 2636 193
Q 2250 -91 1575 -91
Q 1294 -91 989 -36
Q 684 19 347 128
L 347 722
Q 666 556 975 473
Q 1284 391 1588 391
Q 1994 391 2212 530
Q 2431 669 2431 922
Q 2431 1156 2273 1281
Q 2116 1406 1581 1522
L 1381 1569
Q 847 1681 609 1914
Q 372 2147 372 2553
Q 372 3047 722 3315
Q 1072 3584 1716 3584
Q 2034 3584 2315 3537
Q 2597 3491 2834 3397
z
" transform="scale(0.015625)"/>
      <path id="DejaVuSans-20" transform="scale(0.015625)"/>
      <path id="DejaVuSans-6f" d="M 1959 3097
Q 1497 3097 1228 2736
Q 959 2375 959 1747
Q 959 1119 1226 758
Q 1494 397 1959 397
Q 2419 397 2687 759
Q 2956 1122 2956 1747
Q 2956 2369 2687 2733
Q 2419 3097 1959 3097
z
M 1959 3584
Q 2709 3584 3137 3096
Q 3566 2609 3566 1747
Q 3566 888 3137 398
Q 2709 -91 1959 -91
Q 1206 -91 779 398
Q 353 888 353 1747
Q 353 2609 779 3096
Q 1206 3584 1959 3584
z
" transform="scale(0.015625)"/>
      <path id="DejaVuSans-66" d="M 2375 4863
L 2375 4384
L 1825 4384
Q 1516 4384 1395 4259
Q 1275 4134 1275 3809
L 1275 3500
L 2222 3500
L 2222 3053
L 1275 3053
L 1275 0
L 697 0
L 697 3053
L 147 3053
L 147 3500
L 697 3500
L 697 3744
Q 697 4328 969 4595
Q 1241 4863 1831 4863
L 2375 4863
z
" transform="scale(0.015625)"/>
      <path id="DejaVuSans-63" d="M 3122 3366
L 3122 2828
Q 2878 2963 2633 3030
Q 2388 3097 2138 3097
Q 1578 3097 1268 2742
Q 959 2388 959 1747
Q 959 1106 1268 751
Q 1578 397 2138 397
Q 2388 397 2633 464
Q 2878 531 3122 666
L 3122 134
Q 2881 22 2623 -34
Q 2366 -91 2075 -91
Q 1284 -91 818 406
Q 353 903 353 1747
Q 353 2603 823 3093
Q 1294 3584 2113 3584
Q 2378 3584 2631 3529
Q 2884 3475 3122 3366
z
" transform="scale(0.015625)"/>
      <path id="DejaVuSans-72" d="M 2631 2963
Q 2534 3019 2420 3045
Q 2306 3072 2169 3072
Q 1681 3072 1420 2755
Q 1159 2438 1159 1844
L 1159 0
L 581 0
L 581 3500
L 1159 3500
L 1159 2956
Q 1341 3275 1631 3429
Q 1922 3584 2338 3584
Q 2397 3584 2469 3576
Q 2541 3569 2628 3553
L 2631 2963
z
" transform="scale(0.015625)"/>
      <path id="DejaVuSans-76" d="M 191 3500
L 800 3500
L 1894 563
L 2988 3500
L 3597 3500
L 2284 0
L 1503 0
L 191 3500
z
" transform="scale(0.015625)"/>
      <path id="DejaVuSans-74" d="M 1172 4494
L 1172 3500
L 2356 3500
L 2356 3053
L 1172 3053
L 1172 1153
Q 1172 725 1289 603
Q 1406 481 1766 481
L 2356 481
L 2356 0
L 1766 0
Q 1100 0 847 248
Q 594 497 594 1153
L 594 3053
L 172 3053
L 172 3500
L 594 3500
L 594 4494
L 1172 4494
z
" transform="scale(0.015625)"/>
      <path id="DejaVuSans-65" d="M 3597 1894
L 3597 1613
L 953 1613
Q 991 1019 1311 708
Q 1631 397 2203 397
Q 2534 397 2845 478
Q 3156 559 3463 722
L 3463 178
Q 3153 47 2828 -22
Q 2503 -91 2169 -91
Q 1331 -91 842 396
Q 353 884 353 1716
Q 353 2575 817 3079
Q 1281 3584 2069 3584
Q 2775 3584 3186 3129
Q 3597 2675 3597 1894
z
M 3022 2063
Q 3016 2534 2758 2815
Q 2500 3097 2075 3097
Q 1594 3097 1305 2825
Q 1016 2553 972 2059
L 3022 2063
z
" transform="scale(0.015625)"/>
      <path id="DejaVuSans-Oblique-52" d="M 1613 4147
L 1294 2491
L 2106 2491
Q 2584 2491 2879 2755
Q 3175 3019 3175 3444
Q 3175 3784 2976 3965
Q 2778 4147 2406 4147
L 1613 4147
z
M 2772 2241
Q 2972 2194 3105 2009
Q 3238 1825 3413 1275
L 3809 0
L 3144 0
L 2778 1197
Q 2638 1659 2453 1815
Q 2269 1972 1888 1972
L 1191 1972
L 806 0
L 172 0
L 1081 4666
L 2503 4666
Q 3150 4666 3495 4373
Q 3841 4081 3841 3531
Q 3841 3044 3547 2687
Q 3253 2331 2772 2241
z
" transform="scale(0.015625)"/>
      <path id="DejaVuSans-Oblique-6a" d="M 928 3500
L 1503 3500
L 813 -63
L 809 -78
Q 694 -675 544 -897
Q 403 -1106 132 -1218
Q -138 -1331 -506 -1331
L -722 -1331
L -628 -844
L -481 -844
Q -144 -844 -1 -703
Q 141 -563 238 -63
L 928 3500
z
M 1197 4863
L 1772 4863
L 1631 4134
L 1056 4134
L 1197 4863
z
" transform="scale(0.015625)"/>
     </defs>
     <use xlink:href="#DejaVuSans-52" transform="translate(0 0.015625)"/>
     <use xlink:href="#DejaVuSans-61" transform="translate(69.482422 0.015625)"/>
     <use xlink:href="#DejaVuSans-64" transform="translate(130.761719 0.015625)"/>
     <use xlink:href="#DejaVuSans-69" transform="translate(194.238281 0.015625)"/>
     <use xlink:href="#DejaVuSans-75" transform="translate(222.021484 0.015625)"/>
     <use xlink:href="#DejaVuSans-73" transform="translate(285.400391 0.015625)"/>
     <use xlink:href="#DejaVuSans-20" transform="translate(337.5 0.015625)"/>
     <use xlink:href="#DejaVuSans-6f" transform="translate(369.287109 0.015625)"/>
     <use xlink:href="#DejaVuSans-66" transform="translate(430.46875 0.015625)"/>
     <use xlink:href="#DejaVuSans-20" transform="translate(465.673828 0.015625)"/>
     <use xlink:href="#DejaVuSans-63" transform="translate(497.460938 0.015625)"/>
     <use xlink:href="#DejaVuSans-75" transform="translate(552.441406 0.015625)"/>
     <use xlink:href="#DejaVuSans-72" transform="translate(615.820312 0.015625)"/>
     <use xlink:href="#DejaVuSans-76" transform="translate(656.933594 0.015625)"/>
     <use xlink:href="#DejaVuSans-61" transform="translate(716.113281 0.015625)"/>
     <use xlink:href="#DejaVuSans-74" transform="translate(777.392578 0.015625)"/>
     <use xlink:href="#DejaVuSans-75" transform="translate(816.601562 0.015625)"/>
     <use xlink:href="#DejaVuSans-72" transform="translate(879.980469 0.015625)"/>
     <use xlink:href="#DejaVuSans-65" transform="translate(921.09375 0.015625)"/>
     <use xlink:href="#DejaVuSans-20" transform="translate(982.617188 0.015625)"/>
     <use xlink:href="#DejaVuSans-Oblique-52" transform="translate(1014.404297 0.015625)"/>
     <use xlink:href="#DejaVuSans-Oblique-6a" transform="translate(1083.886719 -16.390625) scale(0.7)"/>
    </g>
   </g>
   <g id="patch_8">
    <path d="M 393.03238 187.2
Q 420.116163 187.2 447.199946 187.2
" style="fill: none; stroke: #007c83; stroke-width: 1.55; stroke-linecap: round"/>
    <path d="M 397.03238 189.2
L 393.03238 187.2
L 397.03238 185.2
" style="fill: none; stroke: #007c83; stroke-width: 1.55; stroke-linecap: round"/>
    <path d="M 443.199946 185.2
L 447.199946 187.2
L 443.199946 189.2
" style="fill: none; stroke: #007c83; stroke-width: 1.55; stroke-linecap: round"/>
   </g>
   <g id="patch_9">
    <path d="M 464.132876 155.486702
Q 442.937206 170.757824 423.056853 185.081283
" style="fill: none; stroke: #007c83; stroke-width: 1.45; stroke-linecap: round"/>
    <path d="M 428.354276 184.222617
L 423.056853 185.081283
L 425.548374 180.328145
" style="fill: none; stroke: #007c83; stroke-width: 1.45; stroke-linecap: round"/>
   </g>
   <g id="text_2">
    <g id="patch_10">
     <path d="M 444.24495 153.816973
L 514.80495 153.816973
Q 517.80495 153.816973 517.80495 150.816973
L 517.80495 137.976973
Q 517.80495 134.976973 514.80495 134.976973
L 444.24495 134.976973
Q 441.24495 134.976973 441.24495 137.976973
L 441.24495 150.816973
Q 441.24495 153.816973 444.24495 153.816973
z
" style="fill: #ffffff; opacity: 0.96; stroke: #007c83; stroke-linejoin: miter"/>
    </g>
    <!-- Thickness $t_j$ -->
    <g style="fill: #007c83" transform="translate(444.24495 147.096973) scale(0.12 -0.12)">
     <defs>
      <path id="DejaVuSans-54" d="M -19 4666
L 3928 4666
L 3928 4134
L 2272 4134
L 2272 0
L 1638 0
L 1638 4134
L -19 4134
L -19 4666
z
" transform="scale(0.015625)"/>
      <path id="DejaVuSans-68" d="M 3513 2113
L 3513 0
L 2938 0
L 2938 2094
Q 2938 2591 2744 2837
Q 2550 3084 2163 3084
Q 1697 3084 1428 2787
Q 1159 2491 1159 1978
L 1159 0
L 581 0
L 581 4863
L 1159 4863
L 1159 2956
Q 1366 3272 1645 3428
Q 1925 3584 2291 3584
Q 2894 3584 3203 3211
Q 3513 2838 3513 2113
z
" transform="scale(0.015625)"/>
      <path id="DejaVuSans-6b" d="M 581 4863
L 1159 4863
L 1159 1991
L 2875 3500
L 3609 3500
L 1753 1863
L 3688 0
L 2938 0
L 1159 1709
L 1159 0
L 581 0
L 581 4863
z
" transform="scale(0.015625)"/>
      <path id="DejaVuSans-6e" d="M 3513 2113
L 3513 0
L 2938 0
L 2938 2094
Q 2938 2591 2744 2837
Q 2550 3084 2163 3084
Q 1697 3084 1428 2787
Q 1159 2491 1159 1978
L 1159 0
L 581 0
L 581 3500
L 1159 3500
L 1159 2956
Q 1366 3272 1645 3428
Q 1925 3584 2291 3584
Q 2894 3584 3203 3211
Q 3513 2838 3513 2113
z
" transform="scale(0.015625)"/>
      <path id="DejaVuSans-Oblique-74" d="M 2706 3500
L 2619 3053
L 1472 3053
L 1100 1153
Q 1081 1047 1072 975
Q 1063 903 1063 863
Q 1063 663 1183 572
Q 1303 481 1569 481
L 2150 481
L 2053 0
L 1503 0
Q 991 0 739 200
Q 488 400 488 806
Q 488 878 497 964
Q 506 1050 525 1153
L 897 3053
L 409 3053
L 500 3500
L 978 3500
L 1172 4494
L 1747 4494
L 1556 3500
L 2706 3500
z
" transform="scale(0.015625)"/>
     </defs>
     <use xlink:href="#DejaVuSans-54" transform="translate(0 0.015625)"/>
     <use xlink:href="#DejaVuSans-68" transform="translate(61.083984 0.015625)"/>
     <use xlink:href="#DejaVuSans-69" transform="translate(124.462891 0.015625)"/>
     <use xlink:href="#DejaVuSans-63" transform="translate(152.246094 0.015625)"/>
     <use xlink:href="#DejaVuSans-6b" transform="translate(207.226562 0.015625)"/>
     <use xlink:href="#DejaVuSans-6e" transform="translate(265.136719 0.015625)"/>
     <use xlink:href="#DejaVuSans-65" transform="translate(328.515625 0.015625)"/>
     <use xlink:href="#DejaVuSans-73" transform="translate(390.039062 0.015625)"/>
     <use xlink:href="#DejaVuSans-73" transform="translate(442.138672 0.015625)"/>
     <use xlink:href="#DejaVuSans-20" transform="translate(494.238281 0.015625)"/>
     <use xlink:href="#DejaVuSans-Oblique-74" transform="translate(526.025391 0.015625)"/>
     <use xlink:href="#DejaVuSans-Oblique-6a" transform="translate(565.234375 -16.390625) scale(0.7)"/>
    </g>
   </g>
   <g id="patch_11">
    <path d="M 455.291948 243.035925
Q 438.659453 237.997844 423.57849 233.429732
" style="fill: none; stroke: #007c83; stroke-width: 1.45; stroke-linecap: round"/>
    <path d="M 427.47661 237.118182
L 423.57849 233.429732
L 428.868122 232.524306
" style="fill: none; stroke: #007c83; stroke-width: 1.45; stroke-linecap: round"/>
   </g>
   <g id="text_3">
    <g id="patch_12">
     <path d="M 458.88495 261.413514
L 514.80495 261.413514
Q 517.80495 261.413514 517.80495 258.413514
L 517.80495 246.773514
Q 517.80495 243.773514 514.80495 243.773514
L 458.88495 243.773514
Q 455.88495 243.773514 455.88495 246.773514
L 455.88495 258.413514
Q 455.88495 261.413514 458.88495 261.413514
z
" style="fill: #ffffff; opacity: 0.96; stroke: #007c83; stroke-linejoin: miter"/>
    </g>
    <!-- Material $j$ -->
    <g style="fill: #007c83" transform="translate(458.88495 255.893514) scale(0.12 -0.12)">
     <defs>
      <path id="DejaVuSans-4d" d="M 628 4666
L 1569 4666
L 2759 1491
L 3956 4666
L 4897 4666
L 4897 0
L 4281 0
L 4281 4097
L 3078 897
L 2444 897
L 1241 4097
L 1241 0
L 628 0
L 628 4666
z
" transform="scale(0.015625)"/>
      <path id="DejaVuSans-6c" d="M 603 4863
L 1178 4863
L 1178 0
L 603 0
L 603 4863
z
" transform="scale(0.015625)"/>
     </defs>
     <use xlink:href="#DejaVuSans-4d" transform="translate(0 0.015625)"/>
     <use xlink:href="#DejaVuSans-61" transform="translate(86.279297 0.015625)"/>
     <use xlink:href="#DejaVuSans-74" transform="translate(147.558594 0.015625)"/>
     <use xlink:href="#DejaVuSans-65" transform="translate(186.767578 0.015625)"/>
     <use xlink:href="#DejaVuSans-72" transform="translate(248.291016 0.015625)"/>
     <use xlink:href="#DejaVuSans-69" transform="translate(289.404297 0.015625)"/>
     <use xlink:href="#DejaVuSans-61" transform="translate(317.1875 0.015625)"/>
     <use xlink:href="#DejaVuSans-6c" transform="translate(378.466797 0.015625)"/>
     <use xlink:href="#DejaVuSans-20" transform="translate(406.25 0.015625)"/>
     <use xlink:href="#DejaVuSans-Oblique-6a" transform="translate(438.037109 0.015625)"/>
    </g>
   </g>
   <g id="patch_13">
    <path d="M 519.510096 185.467047
Q 519.510096 127.751351 519.510096 70.035655
" style="fill: none; stroke: #007c83; stroke-width: 1.55; stroke-linecap: round"/>
    <path d="M 521.510096 181.467047
L 519.510096 185.467047
L 517.510096 181.467047
" style="fill: none; stroke: #007c83; stroke-width: 1.55; stroke-linecap: round"/>
    <path d="M 517.510096 74.035655
L 519.510096 70.035655
L 521.510096 74.035655
" style="fill: none; stroke: #007c83; stroke-width: 1.55; stroke-linecap: round"/>
   </g>
   <g id="patch_14">
    <path d="M 525.41714 106.349838
Q 522.463618 106.349838 519.510096 106.349838
" style="fill: none; stroke: #007c83; stroke-width: 1.2; stroke-linecap: round"/>
   </g>
   <g id="text_4">
    <g id="patch_15">
     <path d="M 528.920389 115.769838
L 631.760389 115.769838
Q 634.760389 115.769838 634.760389 112.769838
L 634.760389 99.929838
Q 634.760389 96.929838 631.760389 96.929838
L 528.920389 96.929838
Q 525.920389 96.929838 525.920389 99.929838
L 525.920389 112.769838
Q 525.920389 115.769838 528.920389 115.769838
z
" style="fill: #ffffff; opacity: 0.96; stroke: #007c83; stroke-linejoin: miter"/>
    </g>
    <!-- Semi-diameter $h_j$ -->
    <g style="fill: #007c83" transform="translate(528.920389 109.049838) scale(0.12 -0.12)">
     <defs>
      <path id="DejaVuSans-53" d="M 3425 4513
L 3425 3897
Q 3066 4069 2747 4153
Q 2428 4238 2131 4238
Q 1616 4238 1336 4038
Q 1056 3838 1056 3469
Q 1056 3159 1242 3001
Q 1428 2844 1947 2747
L 2328 2669
Q 3034 2534 3370 2195
Q 3706 1856 3706 1288
Q 3706 609 3251 259
Q 2797 -91 1919 -91
Q 1588 -91 1214 -16
Q 841 59 441 206
L 441 856
Q 825 641 1194 531
Q 1563 422 1919 422
Q 2459 422 2753 634
Q 3047 847 3047 1241
Q 3047 1584 2836 1778
Q 2625 1972 2144 2069
L 1759 2144
Q 1053 2284 737 2584
Q 422 2884 422 3419
Q 422 4038 858 4394
Q 1294 4750 2059 4750
Q 2388 4750 2728 4690
Q 3069 4631 3425 4513
z
" transform="scale(0.015625)"/>
      <path id="DejaVuSans-6d" d="M 3328 2828
Q 3544 3216 3844 3400
Q 4144 3584 4550 3584
Q 5097 3584 5394 3201
Q 5691 2819 5691 2113
L 5691 0
L 5113 0
L 5113 2094
Q 5113 2597 4934 2840
Q 4756 3084 4391 3084
Q 3944 3084 3684 2787
Q 3425 2491 3425 1978
L 3425 0
L 2847 0
L 2847 2094
Q 2847 2600 2669 2842
Q 2491 3084 2119 3084
Q 1678 3084 1418 2786
Q 1159 2488 1159 1978
L 1159 0
L 581 0
L 581 3500
L 1159 3500
L 1159 2956
Q 1356 3278 1631 3431
Q 1906 3584 2284 3584
Q 2666 3584 2933 3390
Q 3200 3197 3328 2828
z
" transform="scale(0.015625)"/>
      <path id="DejaVuSans-2d" d="M 313 2009
L 1997 2009
L 1997 1497
L 313 1497
L 313 2009
z
" transform="scale(0.015625)"/>
      <path id="DejaVuSans-Oblique-68" d="M 3566 2113
L 3156 0
L 2578 0
L 2988 2091
Q 3016 2238 3031 2350
Q 3047 2463 3047 2528
Q 3047 2791 2881 2937
Q 2716 3084 2419 3084
Q 1956 3084 1617 2771
Q 1278 2459 1178 1941
L 800 0
L 225 0
L 1172 4863
L 1747 4863
L 1375 2950
Q 1594 3244 1934 3414
Q 2275 3584 2650 3584
Q 3113 3584 3367 3334
Q 3622 3084 3622 2631
Q 3622 2519 3608 2391
Q 3594 2263 3566 2113
z
" transform="scale(0.015625)"/>
     </defs>
     <use xlink:href="#DejaVuSans-53" transform="translate(0 0.015625)"/>
     <use xlink:href="#DejaVuSans-65" transform="translate(63.476562 0.015625)"/>
     <use xlink:href="#DejaVuSans-6d" transform="translate(125 0.015625)"/>
     <use xlink:href="#DejaVuSans-69" transform="translate(222.412109 0.015625)"/>
     <use xlink:href="#DejaVuSans-2d" transform="translate(250.195312 0.015625)"/>
     <use xlink:href="#DejaVuSans-64" transform="translate(286.279297 0.015625)"/>
     <use xlink:href="#DejaVuSans-69" transform="translate(349.755859 0.015625)"/>
     <use xlink:href="#DejaVuSans-61" transform="translate(377.539062 0.015625)"/>
     <use xlink:href="#DejaVuSans-6d" transform="translate(438.818359 0.015625)"/>
     <use xlink:href="#DejaVuSans-65" transform="translate(536.230469 0.015625)"/>
     <use xlink:href="#DejaVuSans-74" transform="translate(597.753906 0.015625)"/>
     <use xlink:href="#DejaVuSans-65" transform="translate(636.962891 0.015625)"/>
     <use xlink:href="#DejaVuSans-72" transform="translate(698.486328 0.015625)"/>
     <use xlink:href="#DejaVuSans-20" transform="translate(739.599609 0.015625)"/>
     <use xlink:href="#DejaVuSans-Oblique-68" transform="translate(771.386719 0.015625)"/>
     <use xlink:href="#DejaVuSans-Oblique-6a" transform="translate(834.765625 -16.390625) scale(0.7)"/>
    </g>
   </g>
   <g id="patch_16">
    <path d="M 374.662136 321.238444
Q 387.878275 300.102688 400.234912 280.34148
" style="fill: none; stroke: #8b2c83; stroke-width: 1.45; stroke-linecap: round"/>
    <path d="M 395.655122 283.138894
L 400.234912 280.34148
L 399.72497 285.68376
" style="fill: none; stroke: #8b2c83; stroke-width: 1.45; stroke-linecap: round"/>
   </g>
   <g id="text_5">
    <g id="patch_17">
     <path d="M 341.313695 341.074703
L 394.233695 341.074703
Q 397.233695 341.074703 397.233695 338.074703
L 397.233695 326.434703
Q 397.233695 323.434703 394.233695 323.434703
L 341.313695 323.434703
Q 338.313695 323.434703 338.313695 326.434703
L 338.313695 338.074703
Q 338.313695 341.074703 341.313695 341.074703
z
" style="fill: #ffffff; opacity: 0.96; stroke: #8b2c83; stroke-linejoin: miter"/>
    </g>
    <!-- Surface $j$ -->
    <g style="fill: #8b2c83" transform="translate(341.313695 335.554703) scale(0.12 -0.12)">
     <use xlink:href="#DejaVuSans-53" transform="translate(0 0.015625)"/>
     <use xlink:href="#DejaVuSans-75" transform="translate(63.476562 0.015625)"/>
     <use xlink:href="#DejaVuSans-72" transform="translate(126.855469 0.015625)"/>
     <use xlink:href="#DejaVuSans-66" transform="translate(167.96875 0.015625)"/>
     <use xlink:href="#DejaVuSans-61" transform="translate(203.173828 0.015625)"/>
     <use xlink:href="#DejaVuSans-63" transform="translate(264.453125 0.015625)"/>
     <use xlink:href="#DejaVuSans-65" transform="translate(319.433594 0.015625)"/>
     <use xlink:href="#DejaVuSans-20" transform="translate(380.957031 0.015625)"/>
     <use xlink:href="#DejaVuSans-Oblique-6a" transform="translate(412.744141 0.015625)"/>
    </g>
   </g>
   <g id="patch_18">
    <path d="M 205.702691 300.72755
Q 209.619179 244.959843 213.422096 190.809303
" style="fill: none; stroke: #8b2c83; stroke-width: 1.45; stroke-linecap: round"/>
    <path d="M 210.691723 195.429375
L 213.422096 190.809303
L 215.47993 195.765644
" style="fill: none; stroke: #8b2c83; stroke-width: 1.45; stroke-linecap: round"/>
   </g>
   <g id="text_6">
    <g id="patch_19">
     <path d="M 133.688081 320.862162
L 276.128081 320.862162
Q 279.128081 320.862162 279.128081 317.862162
L 279.128081 306.222162
Q 279.128081 303.222162 276.128081 303.222162
L 133.688081 303.222162
Q 130.688081 303.222162 130.688081 306.222162
L 130.688081 317.862162
Q 130.688081 320.862162 133.688081 320.862162
z
" style="fill: #ffffff; opacity: 0.96; stroke: #8b2c83; stroke-linejoin: miter"/>
    </g>
    <!-- Surface $i$: aperture stop -->
    <g style="fill: #8b2c83" transform="translate(133.688081 315.342162) scale(0.12 -0.12)">
     <defs>
      <path id="DejaVuSans-Oblique-69" d="M 1172 4863
L 1747 4863
L 1606 4134
L 1031 4134
L 1172 4863
z
M 909 3500
L 1484 3500
L 800 0
L 225 0
L 909 3500
z
" transform="scale(0.015625)"/>
      <path id="DejaVuSans-3a" d="M 750 794
L 1409 794
L 1409 0
L 750 0
L 750 794
z
M 750 3309
L 1409 3309
L 1409 2516
L 750 2516
L 750 3309
z
" transform="scale(0.015625)"/>
      <path id="DejaVuSans-70" d="M 1159 525
L 1159 -1331
L 581 -1331
L 581 3500
L 1159 3500
L 1159 2969
Q 1341 3281 1617 3432
Q 1894 3584 2278 3584
Q 2916 3584 3314 3078
Q 3713 2572 3713 1747
Q 3713 922 3314 415
Q 2916 -91 2278 -91
Q 1894 -91 1617 61
Q 1341 213 1159 525
z
M 3116 1747
Q 3116 2381 2855 2742
Q 2594 3103 2138 3103
Q 1681 3103 1420 2742
Q 1159 2381 1159 1747
Q 1159 1113 1420 752
Q 1681 391 2138 391
Q 2594 391 2855 752
Q 3116 1113 3116 1747
z
" transform="scale(0.015625)"/>
     </defs>
     <use xlink:href="#DejaVuSans-53" transform="translate(0 0.015625)"/>
     <use xlink:href="#DejaVuSans-75" transform="translate(63.476562 0.015625)"/>
     <use xlink:href="#DejaVuSans-72" transform="translate(126.855469 0.015625)"/>
     <use xlink:href="#DejaVuSans-66" transform="translate(167.96875 0.015625)"/>
     <use xlink:href="#DejaVuSans-61" transform="translate(203.173828 0.015625)"/>
     <use xlink:href="#DejaVuSans-63" transform="translate(264.453125 0.015625)"/>
     <use xlink:href="#DejaVuSans-65" transform="translate(319.433594 0.015625)"/>
     <use xlink:href="#DejaVuSans-20" transform="translate(380.957031 0.015625)"/>
     <use xlink:href="#DejaVuSans-Oblique-69" transform="translate(412.744141 0.015625)"/>
     <use xlink:href="#DejaVuSans-3a" transform="translate(440.527344 0.015625)"/>
     <use xlink:href="#DejaVuSans-20" transform="translate(474.21875 0.015625)"/>
     <use xlink:href="#DejaVuSans-61" transform="translate(506.005859 0.015625)"/>
     <use xlink:href="#DejaVuSans-70" transform="translate(567.285156 0.015625)"/>
     <use xlink:href="#DejaVuSans-65" transform="translate(630.761719 0.015625)"/>
     <use xlink:href="#DejaVuSans-72" transform="translate(692.285156 0.015625)"/>
     <use xlink:href="#DejaVuSans-74" transform="translate(733.398438 0.015625)"/>
     <use xlink:href="#DejaVuSans-75" transform="translate(772.607422 0.015625)"/>
     <use xlink:href="#DejaVuSans-72" transform="translate(835.986328 0.015625)"/>
     <use xlink:href="#DejaVuSans-65" transform="translate(877.099609 0.015625)"/>
     <use xlink:href="#DejaVuSans-20" transform="translate(938.623047 0.015625)"/>
     <use xlink:href="#DejaVuSans-73" transform="translate(970.410156 0.015625)"/>
     <use xlink:href="#DejaVuSans-74" transform="translate(1022.509766 0.015625)"/>
     <use xlink:href="#DejaVuSans-6f" transform="translate(1061.71875 0.015625)"/>
     <use xlink:href="#DejaVuSans-70" transform="translate(1122.900391 0.015625)"/>
    </g>
   </g>
  </g>
 </g>
 <defs>
  <clipPath id="p9212d3a8d5">
   <rect x="121.925215" y="11.232" width="548.14957" height="351.936"/>
  </clipPath>
 </defs>
</svg>
