<?xml version="1.0" encoding="utf-8" standalone="no"?>
<!DOCTYPE svg PUBLIC "-//W3C//DTD SVG 1.1//EN"
  "http://www.w3.org/Graphics/SVG/1.1/DTD/svg11.dtd">
<svg xmlns:xlink="http://www.w3.org/1999/xlink" width="849.6pt" height="435.6pt" viewBox="0 0 849.6 435.6" xmlns="http://www.w3.org/2000/svg" version="1.1">
 <title>LensGen Figure 2 patent lens parameter diagram</title>
 <metadata>
  <rdf:RDF xmlns:dc="http://purl.org/dc/elements/1.1/" xmlns:cc="http://creativecommons.org/ns#" xmlns:rdf="http://www.w3.org/1999/02/22-rdf-syntax-ns#">
   <cc:Work>
    <dc:type rdf:resource="http://purl.org/dc/dcmitype/StillImage"/>
    <dc:title>LensGen Figure 2 patent lens parameter diagram</dc:title>
    <dc:date>2026-07-13</dc:date>
    <dc:format>image/svg+xml</dc:format>
    <dc:creator>
     <cc:Agent>
      <dc:title>LensGen</dc:title>
     </cc:Agent>
    </dc:creator>
   </cc:Work>
  </rdf:RDF>
 </metadata>
 <defs>
  <style type="text/css">*{stroke-linejoin: round; stroke-linecap: butt}</style>
 </defs>
 <g id="figure_1">
  <g id="patch_1">
   <path d="M 0 435.6
L 849.6 435.6
L 849.6 0
L 0 0
z
" style="fill: #ffffff"/>
  </g>
  <g id="axes_1">
   <g id="line2d_1">
    <path d="M 81.295789 227.045961
L 768.304211 227.045961
" clip-path="url(#p30f93b4284)" style="fill: none; stroke: #aab2bd; stroke-width: 0.8; stroke-linecap: square"/>
   </g>
   <g id="patch_2">
    <path d="M 270.916903 112.972413
L 270.916903 118.976284
L 271.359424 121.15951
L 271.792555 123.342735
L 272.216319 125.525961
L 272.630739 127.709187
L 273.035835 129.892413
L 273.43163 132.075639
L 273.818144 134.258865
L 274.195398 136.44209
L 274.563411 138.625316
L 274.922202 140.808542
L 275.271791 142.991768
L 275.612195 145.174994
L 275.943433 147.358219
L 276.26552 149.541445
L 276.578473 151.724671
L 276.88231 153.907897
L 277.177045 156.091123
L 277.462693 158.274348
L 277.739269 160.457574
L 278.006787 162.6408
L 278.26526 164.824026
L 278.514702 167.007252
L 278.755126 169.190477
L 278.986542 171.373703
L 279.208964 173.556929
L 279.422403 175.740155
L 279.626868 177.923381
L 279.82237 180.106606
L 280.00892 182.289832
L 280.186526 184.473058
L 280.355198 186.656284
L 280.514943 188.83951
L 280.665769 191.022735
L 280.807685 193.205961
L 280.940697 195.389187
L 281.064812 197.572413
L 281.180036 199.755639
L 281.286375 201.938865
L 281.383834 204.12209
L 281.472417 206.305316
L 281.55213 208.488542
L 281.622976 210.671768
L 281.684958 212.854994
L 281.73808 215.038219
L 281.782344 217.221445
L 281.817753 219.404671
L 281.844309 221.587897
L 281.862011 223.771123
L 281.870862 225.954348
L 281.870862 228.137574
L 281.862011 230.3208
L 281.844309 232.504026
L 281.817753 234.687252
L 281.782344 236.870477
L 281.73808 239.053703
L 281.684958 241.236929
L 281.622976 243.420155
L 281.55213 245.603381
L 281.472417 247.786606
L 281.383834 249.969832
L 281.286375 252.153058
L 281.180036 254.336284
L 281.064812 256.51951
L 280.940697 258.702735
L 280.807685 260.885961
L 280.665769 263.069187
L 280.514943 265.252413
L 280.355198 267.435639
L 280.186526 269.618865
L 280.00892 271.80209
L 279.82237 273.985316
L 279.626868 276.168542
L 279.422403 278.351768
L 279.208964 280.534994
L 278.986542 282.718219
L 278.755126 284.901445
L 278.514702 287.084671
L 278.26526 289.267897
L 278.006787 291.451123
L 277.739269 293.634348
L 277.462693 295.817574
L 277.177045 298.0008
L 276.88231 300.184026
L 276.578473 302.367252
L 276.26552 304.550477
L 275.943433 306.733703
L 275.612195 308.916929
L 275.271791 311.100155
L 274.922202 313.283381
L 274.563411 315.466606
L 274.195398 317.649832
L 273.818144 319.833058
L 273.43163 322.016284
L 273.035835 324.19951
L 272.630739 326.382735
L 272.216319 328.565961
L 271.792555 330.749187
L 271.359424 332.932413
L 270.916903 335.115639
L 270.916903 341.11951
L 296.193281 341.11951
L 297.264539 338.814994
L 298.309384 336.510477
L 299.328153 334.205961
L 300.321169 331.901445
L 301.288743 329.596929
L 302.231171 327.292413
L 303.148738 324.987897
L 304.041719 322.683381
L 304.910375 320.378865
L 305.754958 318.074348
L 306.575709 315.769832
L 307.372861 313.465316
L 308.146633 311.1608
L 308.897241 308.856284
L 309.624886 306.551768
L 310.329765 304.247252
L 311.012065 301.942735
L 311.671966 299.638219
L 312.309637 297.333703
L 312.925245 295.029187
L 313.518945 292.724671
L 314.090888 290.420155
L 314.641217 288.115639
L 315.170068 285.811123
L 315.677571 283.506606
L 316.163851 281.20209
L 316.629024 278.897574
L 317.073204 276.593058
L 317.496495 274.288542
L 317.898999 271.984026
L 318.280811 269.67951
L 318.642019 267.374994
L 318.982709 265.070477
L 319.302958 262.765961
L 319.602842 260.461445
L 319.882428 258.156929
L 320.141781 255.852413
L 320.38096 253.547897
L 320.600019 251.243381
L 320.799007 248.938865
L 320.97797 246.634348
L 321.136948 244.329832
L 321.275976 242.025316
L 321.395085 239.7208
L 321.494302 237.416284
L 321.57365 235.111768
L 321.633145 232.807252
L 321.672801 230.502735
L 321.692626 228.198219
L 321.692626 225.893703
L 321.672801 223.589187
L 321.633145 221.284671
L 321.57365 218.980155
L 321.494302 216.675639
L 321.395085 214.371123
L 321.275976 212.066606
L 321.136948 209.76209
L 320.97797 207.457574
L 320.799007 205.153058
L 320.600019 202.848542
L 320.38096 200.544026
L 320.141781 198.23951
L 319.882428 195.934994
L 319.602842 193.630477
L 319.302958 191.325961
L 318.982709 189.021445
L 318.642019 186.716929
L 318.280811 184.412413
L 317.898999 182.107897
L 317.496495 179.803381
L 317.073204 177.498865
L 316.629024 175.194348
L 316.163851 172.889832
L 315.677571 170.585316
L 315.170068 168.2808
L 314.641217 165.976284
L 314.090888 163.671768
L 313.518945 161.367252
L 312.925245 159.062735
L 312.309637 156.758219
L 311.671966 154.453703
L 311.012065 152.149187
L 310.329765 149.844671
L 309.624886 147.540155
L 308.897241 145.235639
L 308.146633 142.931123
L 307.372861 140.626606
L 306.575709 138.32209
L 305.754958 136.017574
L 304.910375 133.713058
L 304.041719 131.408542
L 303.148738 129.104026
L 302.231171 126.79951
L 301.288743 124.494994
L 300.321169 122.190477
L 299.328153 119.885961
L 298.309384 117.581445
L 297.264539 115.276929
L 296.193281 112.972413
z
" clip-path="url(#p30f93b4284)" style="fill: #7678ed; opacity: 0.42"/>
   </g>
   <g id="patch_3">
    <path d="M 320.10115 94.9608
L 320.10115 106.968542
L 320.276959 109.394348
L 320.449793 111.820155
L 320.619617 114.245961
L 320.786397 116.671768
L 320.950098 119.097574
L 321.110689 121.523381
L 321.268136 123.949187
L 321.422407 126.374994
L 321.573471 128.8008
L 321.721297 131.226606
L 321.865855 133.652413
L 322.007113 136.078219
L 322.145044 138.504026
L 322.279617 140.929832
L 322.410805 143.355639
L 322.538579 145.781445
L 322.662914 148.207252
L 322.783781 150.633058
L 322.901155 153.058865
L 323.01501 155.484671
L 323.125322 157.910477
L 323.232066 160.336284
L 323.335219 162.76209
L 323.434757 165.187897
L 323.530659 167.613703
L 323.622903 170.03951
L 323.711467 172.465316
L 323.796333 174.891123
L 323.877479 177.316929
L 323.954888 179.742735
L 324.028541 182.168542
L 324.098422 184.594348
L 324.164514 187.020155
L 324.2268 189.445961
L 324.285267 191.871768
L 324.339901 194.297574
L 324.390688 196.723381
L 324.437616 199.149187
L 324.480674 201.574994
L 324.519851 204.0008
L 324.555138 206.426606
L 324.586527 208.852413
L 324.614008 211.278219
L 324.637576 213.704026
L 324.657226 216.129832
L 324.672951 218.555639
L 324.684748 220.981445
L 324.692615 223.407252
L 324.696548 225.833058
L 324.696548 228.258865
L 324.692615 230.684671
L 324.684748 233.110477
L 324.672951 235.536284
L 324.657226 237.96209
L 324.637576 240.387897
L 324.614008 242.813703
L 324.586527 245.23951
L 324.555138 247.665316
L 324.519851 250.091123
L 324.480674 252.516929
L 324.437616 254.942735
L 324.390688 257.368542
L 324.339901 259.794348
L 324.285267 262.220155
L 324.2268 264.645961
L 324.164514 267.071768
L 324.098422 269.497574
L 324.028541 271.923381
L 323.954888 274.349187
L 323.877479 276.774994
L 323.796333 279.2008
L 323.711467 281.626606
L 323.622903 284.052413
L 323.530659 286.478219
L 323.434757 288.904026
L 323.335219 291.329832
L 323.232066 293.755639
L 323.125322 296.181445
L 323.01501 298.607252
L 322.901155 301.033058
L 322.783781 303.458865
L 322.662914 305.884671
L 322.538579 308.310477
L 322.410805 310.736284
L 322.279617 313.16209
L 322.145044 315.587897
L 322.007113 318.013703
L 321.865855 320.43951
L 321.721297 322.865316
L 321.573471 325.291123
L 321.422407 327.716929
L 321.268136 330.142735
L 321.110689 332.568542
L 320.950098 334.994348
L 320.786397 337.420155
L 320.619617 339.845961
L 320.449793 342.271768
L 320.276959 344.697574
L 320.10115 347.123381
L 320.10115 359.131123
L 358.873748 359.131123
L 359.25637 356.462735
L 359.637813 353.794348
L 360.018037 351.125961
L 360.396995 348.457574
L 360.774639 345.789187
L 361.150914 343.1208
L 361.525761 340.452413
L 361.899113 337.784026
L 362.2709 335.115639
L 362.641043 332.447252
L 363.009455 329.778865
L 363.376043 327.110477
L 363.740702 324.44209
L 364.103319 321.773703
L 364.463769 319.105316
L 364.821915 316.436929
L 365.177609 313.768542
L 365.530684 311.100155
L 365.880962 308.431768
L 366.228243 305.763381
L 366.572309 303.094994
L 366.912923 300.426606
L 367.249822 297.758219
L 367.582717 295.089832
L 367.911291 292.421445
L 368.235197 289.753058
L 368.554051 287.084671
L 368.867434 284.416284
L 369.174884 281.747897
L 369.475896 279.07951
L 369.769917 276.411123
L 370.056341 273.742735
L 370.334509 271.074348
L 370.603704 268.405961
L 370.863151 265.737574
L 371.112013 263.069187
L 371.349396 260.4008
L 371.57435 257.732413
L 371.785872 255.064026
L 371.98292 252.395639
L 372.164424 249.727252
L 372.329301 247.058865
L 372.476478 244.390477
L 372.604919 241.72209
L 372.713651 239.053703
L 372.801797 236.385316
L 372.868609 233.716929
L 372.913493 231.048542
L 372.93604 228.380155
L 372.93604 225.711768
L 372.913493 223.043381
L 372.868609 220.374994
L 372.801797 217.706606
L 372.713651 215.038219
L 372.604919 212.369832
L 372.476478 209.701445
L 372.329301 207.033058
L 372.164424 204.364671
L 371.98292 201.696284
L 371.785872 199.027897
L 371.57435 196.35951
L 371.349396 193.691123
L 371.112013 191.022735
L 370.863151 188.354348
L 370.603704 185.685961
L 370.334509 183.017574
L 370.056341 180.349187
L 369.769917 177.6808
L 369.475896 175.012413
L 369.174884 172.344026
L 368.867434 169.675639
L 368.554051 167.007252
L 368.235197 164.338865
L 367.911291 161.670477
L 367.582717 159.00209
L 367.249822 156.333703
L 366.912923 153.665316
L 366.572309 150.996929
L 366.228243 148.328542
L 365.880962 145.660155
L 365.530684 142.991768
L 365.177609 140.323381
L 364.821915 137.654994
L 364.463769 134.986606
L 364.103319 132.318219
L 363.740702 129.649832
L 363.376043 126.981445
L 363.009455 124.313058
L 362.641043 121.644671
L 362.2709 118.976284
L 361.899113 116.307897
L 361.525761 113.63951
L 361.150914 110.971123
L 360.774639 108.302735
L 360.396995 105.634348
L 360.018037 102.965961
L 359.637813 100.297574
L 359.25637 97.629187
L 358.873748 94.9608
z
" clip-path="url(#p30f93b4284)" style="fill: #7678ed; opacity: 0.42"/>
   </g>
   <g id="patch_4">
    <path d="M 380.516136 94.9608
L 380.516136 94.9608
L 380.385128 97.629187
L 380.254619 100.297574
L 380.124635 102.965961
L 379.9952 105.634348
L 379.866345 108.302735
L 379.738099 110.971123
L 379.610494 113.63951
L 379.483566 116.307897
L 379.357352 118.976284
L 379.231892 121.644671
L 379.107229 124.313058
L 378.983409 126.981445
L 378.860484 129.649832
L 378.738505 132.318219
L 378.61753 134.986606
L 378.497622 137.654994
L 378.378847 140.323381
L 378.261276 142.991768
L 378.144987 145.660155
L 378.030062 148.328542
L 377.91659 150.996929
L 377.804668 153.665316
L 377.694397 156.333703
L 377.585888 159.00209
L 377.47926 161.670477
L 377.37464 164.338865
L 377.272164 167.007252
L 377.171978 169.675639
L 377.074236 172.344026
L 376.979104 175.012413
L 376.886758 177.6808
L 376.797382 180.349187
L 376.711173 183.017574
L 376.628335 185.685961
L 376.549083 188.354348
L 376.47364 191.022735
L 376.402233 193.691123
L 376.335096 196.35951
L 376.272467 199.027897
L 376.214581 201.696284
L 376.161672 204.364671
L 376.113967 207.033058
L 376.071682 209.701445
L 376.03502 212.369832
L 376.004164 215.038219
L 375.979274 217.706606
L 375.960485 220.374994
L 375.9479 223.043381
L 375.941589 225.711768
L 375.941589 228.380155
L 375.9479 231.048542
L 375.960485 233.716929
L 375.979274 236.385316
L 376.004164 239.053703
L 376.03502 241.72209
L 376.071682 244.390477
L 376.113967 247.058865
L 376.161672 249.727252
L 376.214581 252.395639
L 376.272467 255.064026
L 376.335096 257.732413
L 376.402233 260.4008
L 376.47364 263.069187
L 376.549083 265.737574
L 376.628335 268.405961
L 376.711173 271.074348
L 376.797382 273.742735
L 376.886758 276.411123
L 376.979104 279.07951
L 377.074236 281.747897
L 377.171978 284.416284
L 377.272164 287.084671
L 377.37464 289.753058
L 377.47926 292.421445
L 377.585888 295.089832
L 377.694397 297.758219
L 377.804668 300.426606
L 377.91659 303.094994
L 378.030062 305.763381
L 378.144987 308.431768
L 378.261276 311.100155
L 378.378847 313.768542
L 378.497622 316.436929
L 378.61753 319.105316
L 378.738505 321.773703
L 378.860484 324.44209
L 378.983409 327.110477
L 379.107229 329.778865
L 379.231892 332.447252
L 379.357352 335.115639
L 379.483566 337.784026
L 379.610494 340.452413
L 379.738099 343.1208
L 379.866345 345.789187
L 379.9952 348.457574
L 380.124635 351.125961
L 380.254619 353.794348
L 380.385128 356.462735
L 380.516136 359.131123
L 380.516136 359.131123
L 446.432681 359.131123
L 447.450085 356.462735
L 448.466483 353.794348
L 449.481814 351.125961
L 450.496014 348.457574
L 451.50901 345.789187
L 452.520727 343.1208
L 453.531081 340.452413
L 454.53998 337.784026
L 455.547326 335.115639
L 456.553009 332.447252
L 457.556912 329.778865
L 458.558905 327.110477
L 459.558843 324.44209
L 460.556569 321.773703
L 461.551909 319.105316
L 462.54467 316.436929
L 463.534639 313.768542
L 464.521579 311.100155
L 465.505223 308.431768
L 466.485278 305.763381
L 467.461412 303.094994
L 468.433253 300.426606
L 469.400383 297.758219
L 470.36233 295.089832
L 471.318557 292.421445
L 472.268459 289.753058
L 473.211342 287.084671
L 474.146415 284.416284
L 475.072771 281.747897
L 475.989367 279.07951
L 476.895002 276.411123
L 477.788285 273.742735
L 478.667604 271.074348
L 479.531088 268.405961
L 480.376557 265.737574
L 481.201472 263.069187
L 482.002875 260.4008
L 482.777322 257.732413
L 483.520818 255.064026
L 484.228748 252.395639
L 484.895829 249.727252
L 485.516081 247.058865
L 486.082855 244.390477
L 486.588934 241.72209
L 487.026741 239.053703
L 487.388674 236.385316
L 487.667582 233.716929
L 487.857334 231.048542
L 487.953411 228.380155
L 487.953411 225.711768
L 487.857334 223.043381
L 487.667582 220.374994
L 487.388674 217.706606
L 487.026741 215.038219
L 486.588934 212.369832
L 486.082855 209.701445
L 485.516081 207.033058
L 484.895829 204.364671
L 484.228748 201.696284
L 483.520818 199.027897
L 482.777322 196.35951
L 482.002875 193.691123
L 481.201472 191.022735
L 480.376557 188.354348
L 479.531088 185.685961
L 478.667604 183.017574
L 477.788285 180.349187
L 476.895002 177.6808
L 475.989367 175.012413
L 475.072771 172.344026
L 474.146415 169.675639
L 473.211342 167.007252
L 472.268459 164.338865
L 471.318557 161.670477
L 470.36233 159.00209
L 469.400383 156.333703
L 468.433253 153.665316
L 467.461412 150.996929
L 466.485278 148.328542
L 465.505223 145.660155
L 464.521579 142.991768
L 463.534639 140.323381
L 462.54467 137.654994
L 461.551909 134.986606
L 460.556569 132.318219
L 459.558843 129.649832
L 458.558905 126.981445
L 457.556912 124.313058
L 456.553009 121.644671
L 455.547326 118.976284
L 454.53998 116.307897
L 453.531081 113.63951
L 452.520727 110.971123
L 451.50901 108.302735
L 450.496014 105.634348
L 449.481814 102.965961
L 448.466483 100.297574
L 447.450085 97.629187
L 446.432681 94.9608
z
" clip-path="url(#p30f93b4284)" style="fill: #7678ed; opacity: 0.42"/>
   </g>
   <g id="patch_5">
    <path d="M 482.758402 106.968542
L 483.065852 109.394348
L 483.366843 111.820155
L 483.661386 114.245961
L 483.949495 116.671768
L 484.231179 119.097574
L 484.50645 121.523381
L 484.775318 123.949187
L 485.037795 126.374994
L 485.29389 128.8008
L 485.543612 131.226606
L 485.786973 133.652413
L 486.02398 136.078219
L 486.254643 138.504026
L 486.478971 140.929832
L 486.696972 143.355639
L 486.908655 145.781445
L 487.114028 148.207252
L 487.313097 150.633058
L 487.505872 153.058865
L 487.692358 155.484671
L 487.872563 157.910477
L 488.046494 160.336284
L 488.214157 162.76209
L 488.375558 165.187897
L 488.530704 167.613703
L 488.679599 170.03951
L 488.82225 172.465316
L 488.958662 174.891123
L 489.088839 177.316929
L 489.212787 179.742735
L 489.330509 182.168542
L 489.442011 184.594348
L 489.547297 187.020155
L 489.646369 189.445961
L 489.739232 191.871768
L 489.825889 194.297574
L 489.906343 196.723381
L 489.980597 199.149187
L 490.048655 201.574994
L 490.110517 204.0008
L 490.166187 206.426606
L 490.215666 208.852413
L 490.258956 211.278219
L 490.29606 213.704026
L 490.326977 216.129832
L 490.351709 218.555639
L 490.370258 220.981445
L 490.382623 223.407252
L 490.388806 225.833058
L 490.388806 228.258865
L 490.382623 230.684671
L 490.370258 233.110477
L 490.351709 235.536284
L 490.326977 237.96209
L 490.29606 240.387897
L 490.258956 242.813703
L 490.215666 245.23951
L 490.166187 247.665316
L 490.110517 250.091123
L 490.048655 252.516929
L 489.980597 254.942735
L 489.906343 257.368542
L 489.825889 259.794348
L 489.739232 262.220155
L 489.646369 264.645961
L 489.547297 267.071768
L 489.442011 269.497574
L 489.330509 271.923381
L 489.212787 274.349187
L 489.088839 276.774994
L 488.958662 279.2008
L 488.82225 281.626606
L 488.679599 284.052413
L 488.530704 286.478219
L 488.375558 288.904026
L 488.214157 291.329832
L 488.046494 293.755639
L 487.872563 296.181445
L 487.692358 298.607252
L 487.505872 301.033058
L 487.313097 303.458865
L 487.114028 305.884671
L 486.908655 308.310477
L 486.696972 310.736284
L 486.478971 313.16209
L 486.254643 315.587897
L 486.02398 318.013703
L 485.786973 320.43951
L 485.543612 322.865316
L 485.29389 325.291123
L 485.037795 327.716929
L 484.775318 330.142735
L 484.50645 332.568542
L 484.231179 334.994348
L 483.949495 337.420155
L 483.661386 339.845961
L 483.366843 342.271768
L 483.065852 344.697574
L 482.758402 347.123381
L 569.651173 347.123381
L 569.651173 335.115639
L 568.810287 332.932413
L 567.970028 330.749187
L 567.130436 328.565961
L 566.291551 326.382735
L 565.453419 324.19951
L 564.616089 322.016284
L 563.779613 319.833058
L 562.94405 317.649832
L 562.109463 315.466606
L 561.275921 313.283381
L 560.443499 311.100155
L 559.612282 308.916929
L 558.782361 306.733703
L 557.953837 304.550477
L 557.126823 302.367252
L 556.301442 300.184026
L 555.477834 298.0008
L 554.656152 295.817574
L 553.83657 293.634348
L 553.019279 291.451123
L 552.204499 289.267897
L 551.392474 287.084671
L 550.583482 284.901445
L 549.777838 282.718219
L 548.975902 280.534994
L 548.178085 278.351768
L 547.384857 276.168542
L 546.596764 273.985316
L 545.814433 271.80209
L 545.038594 269.618865
L 544.270099 267.435639
L 543.509946 265.252413
L 542.759307 263.069187
L 542.019567 260.885961
L 541.292366 258.702735
L 540.579654 256.51951
L 539.883755 254.336284
L 539.207444 252.153058
L 538.554033 249.969832
L 537.927473 247.786606
L 537.33245 245.603381
L 536.774476 243.420155
L 536.259947 241.236929
L 535.796131 239.053703
L 535.391022 236.870477
L 535.053028 234.687252
L 534.790425 232.504026
L 534.610597 230.3208
L 534.519159 228.137574
L 534.519159 225.954348
L 534.610597 223.771123
L 534.790425 221.587897
L 535.053028 219.404671
L 535.391022 217.221445
L 535.796131 215.038219
L 536.259947 212.854994
L 536.774476 210.671768
L 537.33245 208.488542
L 537.927473 206.305316
L 538.554033 204.12209
L 539.207444 201.938865
L 539.883755 199.755639
L 540.579654 197.572413
L 541.292366 195.389187
L 542.019567 193.205961
L 542.759307 191.022735
L 543.509946 188.83951
L 544.270099 186.656284
L 545.038594 184.473058
L 545.814433 182.289832
L 546.596764 180.106606
L 547.384857 177.923381
L 548.178085 175.740155
L 548.975902 173.556929
L 549.777838 171.373703
L 550.583482 169.190477
L 551.392474 167.007252
L 552.204499 164.824026
L 553.019279 162.6408
L 553.83657 160.457574
L 554.656152 158.274348
L 555.477834 156.091123
L 556.301442 153.907897
L 557.126823 151.724671
L 557.953837 149.541445
L 558.782361 147.358219
L 559.612282 145.174994
L 560.443499 142.991768
L 561.275921 140.808542
L 562.109463 138.625316
L 562.94405 136.44209
L 563.779613 134.258865
L 564.616089 132.075639
L 565.453419 129.892413
L 566.291551 127.709187
L 567.130436 125.525961
L 567.970028 123.342735
L 568.810287 121.15951
L 569.651173 118.976284
L 569.651173 106.968542
z
" clip-path="url(#p30f93b4284)" style="fill: #7678ed; opacity: 0.42"/>
   </g>
   <g id="line2d_2"/>
   <g id="line2d_3">
    <path d="M 155.790678 263.069187
L 155.790678 262.341445
L 155.790678 261.613703
L 155.790678 260.885961
L 155.790678 260.158219
L 155.790678 259.430477
L 155.790678 258.702735
L 155.790678 257.974994
L 155.790678 257.247252
L 155.790678 256.51951
L 155.790678 255.791768
L 155.790678 255.064026
L 155.790678 254.336284
L 155.790678 253.608542
L 155.790678 252.8808
L 155.790678 252.153058
L 155.790678 251.425316
L 155.790678 250.697574
L 155.790678 249.969832
L 155.790678 249.24209
L 155.790678 248.514348
L 155.790678 247.786606
L 155.790678 247.058865
L 155.790678 246.331123
L 155.790678 245.603381
L 155.790678 244.875639
L 155.790678 244.147897
L 155.790678 243.420155
L 155.790678 242.692413
L 155.790678 241.964671
L 155.790678 241.236929
L 155.790678 240.509187
L 155.790678 239.781445
L 155.790678 239.053703
L 155.790678 238.325961
L 155.790678 237.598219
L 155.790678 236.870477
L 155.790678 236.142735
L 155.790678 235.414994
L 155.790678 234.687252
L 155.790678 233.95951
L 155.790678 233.231768
L 155.790678 232.504026
L 155.790678 231.776284
L 155.790678 231.048542
L 155.790678 230.3208
L 155.790678 229.593058
L 155.790678 228.865316
L 155.790678 228.137574
L 155.790678 227.409832
L 155.790678 226.68209
L 155.790678 225.954348
L 155.790678 225.226606
L 155.790678 224.498865
L 155.790678 223.771123
L 155.790678 223.043381
L 155.790678 222.315639
L 155.790678 221.587897
L 155.790678 220.860155
L 155.790678 220.132413
L 155.790678 219.404671
L 155.790678 218.676929
L 155.790678 217.949187
L 155.790678 217.221445
L 155.790678 216.493703
L 155.790678 215.765961
L 155.790678 215.038219
L 155.790678 214.310477
L 155.790678 213.582735
L 155.790678 212.854994
L 155.790678 212.127252
L 155.790678 211.39951
L 155.790678 210.671768
L 155.790678 209.944026
L 155.790678 209.216284
L 155.790678 208.488542
L 155.790678 207.7608
L 155.790678 207.033058
L 155.790678 206.305316
L 155.790678 205.577574
L 155.790678 204.849832
L 155.790678 204.12209
L 155.790678 203.394348
L 155.790678 202.666606
L 155.790678 201.938865
L 155.790678 201.211123
L 155.790678 200.483381
L 155.790678 199.755639
L 155.790678 199.027897
L 155.790678 198.300155
L 155.790678 197.572413
L 155.790678 196.844671
L 155.790678 196.116929
L 155.790678 195.389187
L 155.790678 194.661445
L 155.790678 193.933703
L 155.790678 193.205961
L 155.790678 192.478219
L 155.790678 191.750477
L 155.790678 191.022735
" clip-path="url(#p30f93b4284)" style="fill: none; stroke: #d1495b; stroke-width: 1.9"/>
   </g>
   <g id="line2d_4">
    <path d="M 270.916903 335.115639
L 271.359424 332.932413
L 271.792555 330.749187
L 272.216319 328.565961
L 272.630739 326.382735
L 273.035835 324.19951
L 273.43163 322.016284
L 273.818144 319.833058
L 274.195398 317.649832
L 274.563411 315.466606
L 274.922202 313.283381
L 275.271791 311.100155
L 275.612195 308.916929
L 275.943433 306.733703
L 276.26552 304.550477
L 276.578473 302.367252
L 276.88231 300.184026
L 277.177045 298.0008
L 277.462693 295.817574
L 277.739269 293.634348
L 278.006787 291.451123
L 278.26526 289.267897
L 278.514702 287.084671
L 278.755126 284.901445
L 278.986542 282.718219
L 279.208964 280.534994
L 279.422403 278.351768
L 279.626868 276.168542
L 279.82237 273.985316
L 280.00892 271.80209
L 280.186526 269.618865
L 280.355198 267.435639
L 280.514943 265.252413
L 280.665769 263.069187
L 280.807685 260.885961
L 280.940697 258.702735
L 281.064812 256.51951
L 281.180036 254.336284
L 281.286375 252.153058
L 281.383834 249.969832
L 281.472417 247.786606
L 281.55213 245.603381
L 281.622976 243.420155
L 281.684958 241.236929
L 281.73808 239.053703
L 281.782344 236.870477
L 281.817753 234.687252
L 281.844309 232.504026
L 281.862011 230.3208
L 281.870862 228.137574
L 281.870862 225.954348
L 281.862011 223.771123
L 281.844309 221.587897
L 281.817753 219.404671
L 281.782344 217.221445
L 281.73808 215.038219
L 281.684958 212.854994
L 281.622976 210.671768
L 281.55213 208.488542
L 281.472417 206.305316
L 281.383834 204.12209
L 281.286375 201.938865
L 281.180036 199.755639
L 281.064812 197.572413
L 280.940697 195.389187
L 280.807685 193.205961
L 280.665769 191.022735
L 280.514943 188.83951
L 280.355198 186.656284
L 280.186526 184.473058
L 280.00892 182.289832
L 279.82237 180.106606
L 279.626868 177.923381
L 279.422403 175.740155
L 279.208964 173.556929
L 278.986542 171.373703
L 278.755126 169.190477
L 278.514702 167.007252
L 278.26526 164.824026
L 278.006787 162.6408
L 277.739269 160.457574
L 277.462693 158.274348
L 277.177045 156.091123
L 276.88231 153.907897
L 276.578473 151.724671
L 276.26552 149.541445
L 275.943433 147.358219
L 275.612195 145.174994
L 275.271791 142.991768
L 274.922202 140.808542
L 274.563411 138.625316
L 274.195398 136.44209
L 273.818144 134.258865
L 273.43163 132.075639
L 273.035835 129.892413
L 272.630739 127.709187
L 272.216319 125.525961
L 271.792555 123.342735
L 271.359424 121.15951
L 270.916903 118.976284
" clip-path="url(#p30f93b4284)" style="fill: none; stroke: #111827; stroke-width: 1.25"/>
   </g>
   <g id="line2d_5">
    <path d="M 296.193281 341.11951
L 297.264539 338.814994
L 298.309384 336.510477
L 299.328153 334.205961
L 300.321169 331.901445
L 301.288743 329.596929
L 302.231171 327.292413
L 303.148738 324.987897
L 304.041719 322.683381
L 304.910375 320.378865
L 305.754958 318.074348
L 306.575709 315.769832
L 307.372861 313.465316
L 308.146633 311.1608
L 308.897241 308.856284
L 309.624886 306.551768
L 310.329765 304.247252
L 311.012065 301.942735
L 311.671966 299.638219
L 312.309637 297.333703
L 312.925245 295.029187
L 313.518945 292.724671
L 314.090888 290.420155
L 314.641217 288.115639
L 315.170068 285.811123
L 315.677571 283.506606
L 316.163851 281.20209
L 316.629024 278.897574
L 317.073204 276.593058
L 317.496495 274.288542
L 317.898999 271.984026
L 318.280811 269.67951
L 318.642019 267.374994
L 318.982709 265.070477
L 319.302958 262.765961
L 319.602842 260.461445
L 319.882428 258.156929
L 320.141781 255.852413
L 320.38096 253.547897
L 320.600019 251.243381
L 320.799007 248.938865
L 320.97797 246.634348
L 321.136948 244.329832
L 321.275976 242.025316
L 321.395085 239.7208
L 321.494302 237.416284
L 321.57365 235.111768
L 321.633145 232.807252
L 321.672801 230.502735
L 321.692626 228.198219
L 321.692626 225.893703
L 321.672801 223.589187
L 321.633145 221.284671
L 321.57365 218.980155
L 321.494302 216.675639
L 321.395085 214.371123
L 321.275976 212.066606
L 321.136948 209.76209
L 320.97797 207.457574
L 320.799007 205.153058
L 320.600019 202.848542
L 320.38096 200.544026
L 320.141781 198.23951
L 319.882428 195.934994
L 319.602842 193.630477
L 319.302958 191.325961
L 318.982709 189.021445
L 318.642019 186.716929
L 318.280811 184.412413
L 317.898999 182.107897
L 317.496495 179.803381
L 317.073204 177.498865
L 316.629024 175.194348
L 316.163851 172.889832
L 315.677571 170.585316
L 315.170068 168.2808
L 314.641217 165.976284
L 314.090888 163.671768
L 313.518945 161.367252
L 312.925245 159.062735
L 312.309637 156.758219
L 311.671966 154.453703
L 311.012065 152.149187
L 310.329765 149.844671
L 309.624886 147.540155
L 308.897241 145.235639
L 308.146633 142.931123
L 307.372861 140.626606
L 306.575709 138.32209
L 305.754958 136.017574
L 304.910375 133.713058
L 304.041719 131.408542
L 303.148738 129.104026
L 302.231171 126.79951
L 301.288743 124.494994
L 300.321169 122.190477
L 299.328153 119.885961
L 298.309384 117.581445
L 297.264539 115.276929
L 296.193281 112.972413
" clip-path="url(#p30f93b4284)" style="fill: none; stroke: #111827; stroke-width: 1.25"/>
   </g>
   <g id="line2d_6">
    <path d="M 270.916903 118.976284
L 270.916903 112.972413
" clip-path="url(#p30f93b4284)" style="fill: none; stroke-dasharray: 4.625,2; stroke-dashoffset: 0; stroke: #111827; stroke-width: 1.25"/>
   </g>
   <g id="line2d_7">
    <path d="M 270.916903 335.115639
L 270.916903 341.11951
" clip-path="url(#p30f93b4284)" style="fill: none; stroke-dasharray: 4.625,2; stroke-dashoffset: 0; stroke: #111827; stroke-width: 1.25"/>
   </g>
   <g id="line2d_8">
    <path d="M 270.916903 112.972413
L 296.193281 112.972413
" clip-path="url(#p30f93b4284)" style="fill: none; stroke: #111827; stroke-width: 1.25"/>
   </g>
   <g id="line2d_9">
    <path d="M 270.916903 341.11951
L 296.193281 341.11951
" clip-path="url(#p30f93b4284)" style="fill: none; stroke: #111827; stroke-width: 1.25"/>
   </g>
   <g id="line2d_10">
    <path d="M 320.10115 347.123381
L 320.276959 344.697574
L 320.449793 342.271768
L 320.619617 339.845961
L 320.786397 337.420155
L 320.950098 334.994348
L 321.110689 332.568542
L 321.268136 330.142735
L 321.422407 327.716929
L 321.573471 325.291123
L 321.721297 322.865316
L 321.865855 320.43951
L 322.007113 318.013703
L 322.145044 315.587897
L 322.279617 313.16209
L 322.410805 310.736284
L 322.538579 308.310477
L 322.662914 305.884671
L 322.783781 303.458865
L 322.901155 301.033058
L 323.01501 298.607252
L 323.125322 296.181445
L 323.232066 293.755639
L 323.335219 291.329832
L 323.434757 288.904026
L 323.530659 286.478219
L 323.622903 284.052413
L 323.711467 281.626606
L 323.796333 279.2008
L 323.877479 276.774994
L 323.954888 274.349187
L 324.028541 271.923381
L 324.098422 269.497574
L 324.164514 267.071768
L 324.2268 264.645961
L 324.285267 262.220155
L 324.339901 259.794348
L 324.390688 257.368542
L 324.437616 254.942735
L 324.480674 252.516929
L 324.519851 250.091123
L 324.555138 247.665316
L 324.586527 245.23951
L 324.614008 242.813703
L 324.637576 240.387897
L 324.657226 237.96209
L 324.672951 235.536284
L 324.684748 233.110477
L 324.692615 230.684671
L 324.696548 228.258865
L 324.696548 225.833058
L 324.692615 223.407252
L 324.684748 220.981445
L 324.672951 218.555639
L 324.657226 216.129832
L 324.637576 213.704026
L 324.614008 211.278219
L 324.586527 208.852413
L 324.555138 206.426606
L 324.519851 204.0008
L 324.480674 201.574994
L 324.437616 199.149187
L 324.390688 196.723381
L 324.339901 194.297574
L 324.285267 191.871768
L 324.2268 189.445961
L 324.164514 187.020155
L 324.098422 184.594348
L 324.028541 182.168542
L 323.954888 179.742735
L 323.877479 177.316929
L 323.796333 174.891123
L 323.711467 172.465316
L 323.622903 170.03951
L 323.530659 167.613703
L 323.434757 165.187897
L 323.335219 162.76209
L 323.232066 160.336284
L 323.125322 157.910477
L 323.01501 155.484671
L 322.901155 153.058865
L 322.783781 150.633058
L 322.662914 148.207252
L 322.538579 145.781445
L 322.410805 143.355639
L 322.279617 140.929832
L 322.145044 138.504026
L 322.007113 136.078219
L 321.865855 133.652413
L 321.721297 131.226606
L 321.573471 128.8008
L 321.422407 126.374994
L 321.268136 123.949187
L 321.110689 121.523381
L 320.950098 119.097574
L 320.786397 116.671768
L 320.619617 114.245961
L 320.449793 111.820155
L 320.276959 109.394348
L 320.10115 106.968542
" clip-path="url(#p30f93b4284)" style="fill: none; stroke: #111827; stroke-width: 1.25"/>
   </g>
   <g id="line2d_11">
    <path d="M 358.873748 359.131123
L 359.25637 356.462735
L 359.637813 353.794348
L 360.018037 351.125961
L 360.396995 348.457574
L 360.774639 345.789187
L 361.150914 343.1208
L 361.525761 340.452413
L 361.899113 337.784026
L 362.2709 335.115639
L 362.641043 332.447252
L 363.009455 329.778865
L 363.376043 327.110477
L 363.740702 324.44209
L 364.103319 321.773703
L 364.463769 319.105316
L 364.821915 316.436929
L 365.177609 313.768542
L 365.530684 311.100155
L 365.880962 308.431768
L 366.228243 305.763381
L 366.572309 303.094994
L 366.912923 300.426606
L 367.249822 297.758219
L 367.582717 295.089832
L 367.911291 292.421445
L 368.235197 289.753058
L 368.554051 287.084671
L 368.867434 284.416284
L 369.174884 281.747897
L 369.475896 279.07951
L 369.769917 276.411123
L 370.056341 273.742735
L 370.334509 271.074348
L 370.603704 268.405961
L 370.863151 265.737574
L 371.112013 263.069187
L 371.349396 260.4008
L 371.57435 257.732413
L 371.785872 255.064026
L 371.98292 252.395639
L 372.164424 249.727252
L 372.329301 247.058865
L 372.476478 244.390477
L 372.604919 241.72209
L 372.713651 239.053703
L 372.801797 236.385316
L 372.868609 233.716929
L 372.913493 231.048542
L 372.93604 228.380155
L 372.93604 225.711768
L 372.913493 223.043381
L 372.868609 220.374994
L 372.801797 217.706606
L 372.713651 215.038219
L 372.604919 212.369832
L 372.476478 209.701445
L 372.329301 207.033058
L 372.164424 204.364671
L 371.98292 201.696284
L 371.785872 199.027897
L 371.57435 196.35951
L 371.349396 193.691123
L 371.112013 191.022735
L 370.863151 188.354348
L 370.603704 185.685961
L 370.334509 183.017574
L 370.056341 180.349187
L 369.769917 177.6808
L 369.475896 175.012413
L 369.174884 172.344026
L 368.867434 169.675639
L 368.554051 167.007252
L 368.235197 164.338865
L 367.911291 161.670477
L 367.582717 159.00209
L 367.249822 156.333703
L 366.912923 153.665316
L 366.572309 150.996929
L 366.228243 148.328542
L 365.880962 145.660155
L 365.530684 142.991768
L 365.177609 140.323381
L 364.821915 137.654994
L 364.463769 134.986606
L 364.103319 132.318219
L 363.740702 129.649832
L 363.376043 126.981445
L 363.009455 124.313058
L 362.641043 121.644671
L 362.2709 118.976284
L 361.899113 116.307897
L 361.525761 113.63951
L 361.150914 110.971123
L 360.774639 108.302735
L 360.396995 105.634348
L 360.018037 102.965961
L 359.637813 100.297574
L 359.25637 97.629187
L 358.873748 94.9608
" clip-path="url(#p30f93b4284)" style="fill: none; stroke: #111827; stroke-width: 1.25"/>
   </g>
   <g id="line2d_12">
    <path d="M 320.10115 106.968542
L 320.10115 94.9608
" clip-path="url(#p30f93b4284)" style="fill: none; stroke-dasharray: 4.625,2; stroke-dashoffset: 0; stroke: #111827; stroke-width: 1.25"/>
   </g>
   <g id="line2d_13">
    <path d="M 320.10115 347.123381
L 320.10115 359.131123
" clip-path="url(#p30f93b4284)" style="fill: none; stroke-dasharray: 4.625,2; stroke-dashoffset: 0; stroke: #111827; stroke-width: 1.25"/>
   </g>
   <g id="line2d_14">
    <path d="M 320.10115 94.9608
L 358.873748 94.9608
" clip-path="url(#p30f93b4284)" style="fill: none; stroke: #111827; stroke-width: 1.25"/>
   </g>
   <g id="line2d_15">
    <path d="M 320.10115 359.131123
L 358.873748 359.131123
" clip-path="url(#p30f93b4284)" style="fill: none; stroke: #111827; stroke-width: 1.25"/>
   </g>
   <g id="line2d_16">
    <path d="M 380.516136 359.131123
L 380.385128 356.462735
L 380.254619 353.794348
L 380.124635 351.125961
L 379.9952 348.457574
L 379.866345 345.789187
L 379.738099 343.1208
L 379.610494 340.452413
L 379.483566 337.784026
L 379.357352 335.115639
L 379.231892 332.447252
L 379.107229 329.778865
L 378.983409 327.110477
L 378.860484 324.44209
L 378.738505 321.773703
L 378.61753 319.105316
L 378.497622 316.436929
L 378.378847 313.768542
L 378.261276 311.100155
L 378.144987 308.431768
L 378.030062 305.763381
L 377.91659 303.094994
L 377.804668 300.426606
L 377.694397 297.758219
L 377.585888 295.089832
L 377.47926 292.421445
L 377.37464 289.753058
L 377.272164 287.084671
L 377.171978 284.416284
L 377.074236 281.747897
L 376.979104 279.07951
L 376.886758 276.411123
L 376.797382 273.742735
L 376.711173 271.074348
L 376.628335 268.405961
L 376.549083 265.737574
L 376.47364 263.069187
L 376.402233 260.4008
L 376.335096 257.732413
L 376.272467 255.064026
L 376.214581 252.395639
L 376.161672 249.727252
L 376.113967 247.058865
L 376.071682 244.390477
L 376.03502 241.72209
L 376.004164 239.053703
L 375.979274 236.385316
L 375.960485 233.716929
L 375.9479 231.048542
L 375.941589 228.380155
L 375.941589 225.711768
L 375.9479 223.043381
L 375.960485 220.374994
L 375.979274 217.706606
L 376.004164 215.038219
L 376.03502 212.369832
L 376.071682 209.701445
L 376.113967 207.033058
L 376.161672 204.364671
L 376.214581 201.696284
L 376.272467 199.027897
L 376.335096 196.35951
L 376.402233 193.691123
L 376.47364 191.022735
L 376.549083 188.354348
L 376.628335 185.685961
L 376.711173 183.017574
L 376.797382 180.349187
L 376.886758 177.6808
L 376.979104 175.012413
L 377.074236 172.344026
L 377.171978 169.675639
L 377.272164 167.007252
L 377.37464 164.338865
L 377.47926 161.670477
L 377.585888 159.00209
L 377.694397 156.333703
L 377.804668 153.665316
L 377.91659 150.996929
L 378.030062 148.328542
L 378.144987 145.660155
L 378.261276 142.991768
L 378.378847 140.323381
L 378.497622 137.654994
L 378.61753 134.986606
L 378.738505 132.318219
L 378.860484 129.649832
L 378.983409 126.981445
L 379.107229 124.313058
L 379.231892 121.644671
L 379.357352 118.976284
L 379.483566 116.307897
L 379.610494 113.63951
L 379.738099 110.971123
L 379.866345 108.302735
L 379.9952 105.634348
L 380.124635 102.965961
L 380.254619 100.297574
L 380.385128 97.629187
L 380.516136 94.9608
" clip-path="url(#p30f93b4284)" style="fill: none; stroke: #111827; stroke-width: 1.25"/>
   </g>
   <g id="line2d_17">
    <path d="M 446.432681 359.131123
L 447.450085 356.462735
L 448.466483 353.794348
L 449.481814 351.125961
L 450.496014 348.457574
L 451.50901 345.789187
L 452.520727 343.1208
L 453.531081 340.452413
L 454.53998 337.784026
L 455.547326 335.115639
L 456.553009 332.447252
L 457.556912 329.778865
L 458.558905 327.110477
L 459.558843 324.44209
L 460.556569 321.773703
L 461.551909 319.105316
L 462.54467 316.436929
L 463.534639 313.768542
L 464.521579 311.100155
L 465.505223 308.431768
L 466.485278 305.763381
L 467.461412 303.094994
L 468.433253 300.426606
L 469.400383 297.758219
L 470.36233 295.089832
L 471.318557 292.421445
L 472.268459 289.753058
L 473.211342 287.084671
L 474.146415 284.416284
L 475.072771 281.747897
L 475.989367 279.07951
L 476.895002 276.411123
L 477.788285 273.742735
L 478.667604 271.074348
L 479.531088 268.405961
L 480.376557 265.737574
L 481.201472 263.069187
L 482.002875 260.4008
L 482.777322 257.732413
L 483.520818 255.064026
L 484.228748 252.395639
L 484.895829 249.727252
L 485.516081 247.058865
L 486.082855 244.390477
L 486.588934 241.72209
L 487.026741 239.053703
L 487.388674 236.385316
L 487.667582 233.716929
L 487.857334 231.048542
L 487.953411 228.380155
L 487.953411 225.711768
L 487.857334 223.043381
L 487.667582 220.374994
L 487.388674 217.706606
L 487.026741 215.038219
L 486.588934 212.369832
L 486.082855 209.701445
L 485.516081 207.033058
L 484.895829 204.364671
L 484.228748 201.696284
L 483.520818 199.027897
L 482.777322 196.35951
L 482.002875 193.691123
L 481.201472 191.022735
L 480.376557 188.354348
L 479.531088 185.685961
L 478.667604 183.017574
L 477.788285 180.349187
L 476.895002 177.6808
L 475.989367 175.012413
L 475.072771 172.344026
L 474.146415 169.675639
L 473.211342 167.007252
L 472.268459 164.338865
L 471.318557 161.670477
L 470.36233 159.00209
L 469.400383 156.333703
L 468.433253 153.665316
L 467.461412 150.996929
L 466.485278 148.328542
L 465.505223 145.660155
L 464.521579 142.991768
L 463.534639 140.323381
L 462.54467 137.654994
L 461.551909 134.986606
L 460.556569 132.318219
L 459.558843 129.649832
L 458.558905 126.981445
L 457.556912 124.313058
L 456.553009 121.644671
L 455.547326 118.976284
L 454.53998 116.307897
L 453.531081 113.63951
L 452.520727 110.971123
L 451.50901 108.302735
L 450.496014 105.634348
L 449.481814 102.965961
L 448.466483 100.297574
L 447.450085 97.629187
L 446.432681 94.9608
" clip-path="url(#p30f93b4284)" style="fill: none; stroke: #111827; stroke-width: 1.25"/>
   </g>
   <g id="line2d_18">
    <path d="M 380.516136 94.9608
L 380.516136 94.9608
" clip-path="url(#p30f93b4284)" style="fill: none; stroke-dasharray: 4.625,2; stroke-dashoffset: 0; stroke: #111827; stroke-width: 1.25"/>
   </g>
   <g id="line2d_19">
    <path d="M 380.516136 359.131123
L 380.516136 359.131123
" clip-path="url(#p30f93b4284)" style="fill: none; stroke-dasharray: 4.625,2; stroke-dashoffset: 0; stroke: #111827; stroke-width: 1.25"/>
   </g>
   <g id="line2d_20">
    <path d="M 380.516136 94.9608
L 446.432681 94.9608
" clip-path="url(#p30f93b4284)" style="fill: none; stroke: #111827; stroke-width: 1.25"/>
   </g>
   <g id="line2d_21">
    <path d="M 380.516136 359.131123
L 446.432681 359.131123
" clip-path="url(#p30f93b4284)" style="fill: none; stroke: #111827; stroke-width: 1.25"/>
   </g>
   <g id="line2d_22">
    <path d="M 482.758402 347.123381
L 483.065852 344.697574
L 483.366843 342.271768
L 483.661386 339.845961
L 483.949495 337.420155
L 484.231179 334.994348
L 484.50645 332.568542
L 484.775318 330.142735
L 485.037795 327.716929
L 485.29389 325.291123
L 485.543612 322.865316
L 485.786973 320.43951
L 486.02398 318.013703
L 486.254643 315.587897
L 486.478971 313.16209
L 486.696972 310.736284
L 486.908655 308.310477
L 487.114028 305.884671
L 487.313097 303.458865
L 487.505872 301.033058
L 487.692358 298.607252
L 487.872563 296.181445
L 488.046494 293.755639
L 488.214157 291.329832
L 488.375558 288.904026
L 488.530704 286.478219
L 488.679599 284.052413
L 488.82225 281.626606
L 488.958662 279.2008
L 489.088839 276.774994
L 489.212787 274.349187
L 489.330509 271.923381
L 489.442011 269.497574
L 489.547297 267.071768
L 489.646369 264.645961
L 489.739232 262.220155
L 489.825889 259.794348
L 489.906343 257.368542
L 489.980597 254.942735
L 490.048655 252.516929
L 490.110517 250.091123
L 490.166187 247.665316
L 490.215666 245.23951
L 490.258956 242.813703
L 490.29606 240.387897
L 490.326977 237.96209
L 490.351709 235.536284
L 490.370258 233.110477
L 490.382623 230.684671
L 490.388806 228.258865
L 490.388806 225.833058
L 490.382623 223.407252
L 490.370258 220.981445
L 490.351709 218.555639
L 490.326977 216.129832
L 490.29606 213.704026
L 490.258956 211.278219
L 490.215666 208.852413
L 490.166187 206.426606
L 490.110517 204.0008
L 490.048655 201.574994
L 489.980597 199.149187
L 489.906343 196.723381
L 489.825889 194.297574
L 489.739232 191.871768
L 489.646369 189.445961
L 489.547297 187.020155
L 489.442011 184.594348
L 489.330509 182.168542
L 489.212787 179.742735
L 489.088839 177.316929
L 488.958662 174.891123
L 488.82225 172.465316
L 488.679599 170.03951
L 488.530704 167.613703
L 488.375558 165.187897
L 488.214157 162.76209
L 488.046494 160.336284
L 487.872563 157.910477
L 487.692358 155.484671
L 487.505872 153.058865
L 487.313097 150.633058
L 487.114028 148.207252
L 486.908655 145.781445
L 486.696972 143.355639
L 486.478971 140.929832
L 486.254643 138.504026
L 486.02398 136.078219
L 485.786973 133.652413
L 485.543612 131.226606
L 485.29389 128.8008
L 485.037795 126.374994
L 484.775318 123.949187
L 484.50645 121.523381
L 484.231179 119.097574
L 483.949495 116.671768
L 483.661386 114.245961
L 483.366843 111.820155
L 483.065852 109.394348
L 482.758402 106.968542
" clip-path="url(#p30f93b4284)" style="fill: none; stroke: #111827; stroke-width: 1.25"/>
   </g>
   <g id="line2d_23">
    <path d="M 569.651173 335.115639
L 568.810287 332.932413
L 567.970028 330.749187
L 567.130436 328.565961
L 566.291551 326.382735
L 565.453419 324.19951
L 564.616089 322.016284
L 563.779613 319.833058
L 562.94405 317.649832
L 562.109463 315.466606
L 561.275921 313.283381
L 560.443499 311.100155
L 559.612282 308.916929
L 558.782361 306.733703
L 557.953837 304.550477
L 557.126823 302.367252
L 556.301442 300.184026
L 555.477834 298.0008
L 554.656152 295.817574
L 553.83657 293.634348
L 553.019279 291.451123
L 552.204499 289.267897
L 551.392474 287.084671
L 550.583482 284.901445
L 549.777838 282.718219
L 548.975902 280.534994
L 548.178085 278.351768
L 547.384857 276.168542
L 546.596764 273.985316
L 545.814433 271.80209
L 545.038594 269.618865
L 544.270099 267.435639
L 543.509946 265.252413
L 542.759307 263.069187
L 542.019567 260.885961
L 541.292366 258.702735
L 540.579654 256.51951
L 539.883755 254.336284
L 539.207444 252.153058
L 538.554033 249.969832
L 537.927473 247.786606
L 537.33245 245.603381
L 536.774476 243.420155
L 536.259947 241.236929
L 535.796131 239.053703
L 535.391022 236.870477
L 535.053028 234.687252
L 534.790425 232.504026
L 534.610597 230.3208
L 534.519159 228.137574
L 534.519159 225.954348
L 534.610597 223.771123
L 534.790425 221.587897
L 535.053028 219.404671
L 535.391022 217.221445
L 535.796131 215.038219
L 536.259947 212.854994
L 536.774476 210.671768
L 537.33245 208.488542
L 537.927473 206.305316
L 538.554033 204.12209
L 539.207444 201.938865
L 539.883755 199.755639
L 540.579654 197.572413
L 541.292366 195.389187
L 542.019567 193.205961
L 542.759307 191.022735
L 543.509946 188.83951
L 544.270099 186.656284
L 545.038594 184.473058
L 545.814433 182.289832
L 546.596764 180.106606
L 547.384857 177.923381
L 548.178085 175.740155
L 548.975902 173.556929
L 549.777838 171.373703
L 550.583482 169.190477
L 551.392474 167.007252
L 552.204499 164.824026
L 553.019279 162.6408
L 553.83657 160.457574
L 554.656152 158.274348
L 555.477834 156.091123
L 556.301442 153.907897
L 557.126823 151.724671
L 557.953837 149.541445
L 558.782361 147.358219
L 559.612282 145.174994
L 560.443499 142.991768
L 561.275921 140.808542
L 562.109463 138.625316
L 562.94405 136.44209
L 563.779613 134.258865
L 564.616089 132.075639
L 565.453419 129.892413
L 566.291551 127.709187
L 567.130436 125.525961
L 567.970028 123.342735
L 568.810287 121.15951
L 569.651173 118.976284
" clip-path="url(#p30f93b4284)" style="fill: none; stroke: #111827; stroke-width: 1.25"/>
   </g>
   <g id="line2d_24">
    <path d="M 569.651173 118.976284
L 569.651173 106.968542
" clip-path="url(#p30f93b4284)" style="fill: none; stroke-dasharray: 4.625,2; stroke-dashoffset: 0; stroke: #111827; stroke-width: 1.25"/>
   </g>
   <g id="line2d_25">
    <path d="M 569.651173 335.115639
L 569.651173 347.123381
" clip-path="url(#p30f93b4284)" style="fill: none; stroke-dasharray: 4.625,2; stroke-dashoffset: 0; stroke: #111827; stroke-width: 1.25"/>
   </g>
   <g id="line2d_26">
    <path d="M 482.758402 106.968542
L 569.651173 106.968542
" clip-path="url(#p30f93b4284)" style="fill: none; stroke: #111827; stroke-width: 1.25"/>
   </g>
   <g id="line2d_27">
    <path d="M 482.758402 347.123381
L 569.651173 347.123381
" clip-path="url(#p30f93b4284)" style="fill: none; stroke: #111827; stroke-width: 1.25"/>
   </g>
   <g id="line2d_28">
    <path d="M 644.880186 359.131123
L 644.880186 356.462735
L 644.880186 353.794348
L 644.880186 351.125961
L 644.880186 348.457574
L 644.880186 345.789187
L 644.880186 343.1208
L 644.880186 340.452413
L 644.880186 337.784026
L 644.880186 335.115639
L 644.880186 332.447252
L 644.880186 329.778865
L 644.880186 327.110477
L 644.880186 324.44209
L 644.880186 321.773703
L 644.880186 319.105316
L 644.880186 316.436929
L 644.880186 313.768542
L 644.880186 311.100155
L 644.880186 308.431768
L 644.880186 305.763381
L 644.880186 303.094994
L 644.880186 300.426606
L 644.880186 297.758219
L 644.880186 295.089832
L 644.880186 292.421445
L 644.880186 289.753058
L 644.880186 287.084671
L 644.880186 284.416284
L 644.880186 281.747897
L 644.880186 279.07951
L 644.880186 276.411123
L 644.880186 273.742735
L 644.880186 271.074348
L 644.880186 268.405961
L 644.880186 265.737574
L 644.880186 263.069187
L 644.880186 260.4008
L 644.880186 257.732413
L 644.880186 255.064026
L 644.880186 252.395639
L 644.880186 249.727252
L 644.880186 247.058865
L 644.880186 244.390477
L 644.880186 241.72209
L 644.880186 239.053703
L 644.880186 236.385316
L 644.880186 233.716929
L 644.880186 231.048542
L 644.880186 228.380155
L 644.880186 225.711768
L 644.880186 223.043381
L 644.880186 220.374994
L 644.880186 217.706606
L 644.880186 215.038219
L 644.880186 212.369832
L 644.880186 209.701445
L 644.880186 207.033058
L 644.880186 204.364671
L 644.880186 201.696284
L 644.880186 199.027897
L 644.880186 196.35951
L 644.880186 193.691123
L 644.880186 191.022735
L 644.880186 188.354348
L 644.880186 185.685961
L 644.880186 183.017574
L 644.880186 180.349187
L 644.880186 177.6808
L 644.880186 175.012413
L 644.880186 172.344026
L 644.880186 169.675639
L 644.880186 167.007252
L 644.880186 164.338865
L 644.880186 161.670477
L 644.880186 159.00209
L 644.880186 156.333703
L 644.880186 153.665316
L 644.880186 150.996929
L 644.880186 148.328542
L 644.880186 145.660155
L 644.880186 142.991768
L 644.880186 140.323381
L 644.880186 137.654994
L 644.880186 134.986606
L 644.880186 132.318219
L 644.880186 129.649832
L 644.880186 126.981445
L 644.880186 124.313058
L 644.880186 121.644671
L 644.880186 118.976284
L 644.880186 116.307897
L 644.880186 113.63951
L 644.880186 110.971123
L 644.880186 108.302735
L 644.880186 105.634348
L 644.880186 102.965961
L 644.880186 100.297574
L 644.880186 97.629187
L 644.880186 94.9608
" clip-path="url(#p30f93b4284)" style="fill: none; stroke: #111827; stroke-width: 1.25"/>
   </g>
   <g id="line2d_29"/>
   <g id="line2d_30">
    <path d="M 270.916903 118.976284
L 263.24714 118.976284
" clip-path="url(#p30f93b4284)" style="fill: none; stroke-dasharray: 3.33,1.44; stroke-dashoffset: 0; stroke: #007c83; stroke-width: 0.9"/>
   </g>
   <g id="patch_6">
    <path d="M 336.927458 88.284573
Q 307.842023 122.518006 279.806251 155.51599
" style="fill: none; stroke: #007c83; stroke-width: 1.45; stroke-linecap: round"/>
    <path d="M 285.977381 152.88594
L 279.806251 155.51599
L 281.404889 149.001057
" style="fill: none; stroke: #007c83; stroke-width: 1.45; stroke-linecap: round"/>
   </g>
   <g id="text_1">
    <g id="patch_7">
     <path d="M 280.544552 86.25692
L 415.632531 86.25692
Q 419.382531 86.25692 419.382531 82.50692
L 419.382531 67.789132
Q 419.382531 64.039132 415.632531 64.039132
L 280.544552 64.039132
Q 276.794552 64.039132 276.794552 67.789132
L 276.794552 82.50692
Q 276.794552 86.25692 280.544552 86.25692
z
" style="fill: #ffffff; opacity: 0.96; stroke: #007c83; stroke-linejoin: miter"/>
    </g>
    <!-- Radius of curvature $R_j$ -->
    <g style="fill: #007c83" transform="translate(280.544552 77.920998) scale(0.15 -0.15)">
     <defs>
      <path id="NimbusRomNo9L-Regu-52" d="M 4218 121
C 3974 140 3846 204 3661 421
L 2342 2035
C 2771 2118 2963 2194 3174 2366
C 3379 2532 3501 2800 3501 3100
C 3501 3374 3418 3610 3251 3795
C 3008 4057 2477 4224 1875 4224
L 109 4224
L 109 4102
C 589 4051 653 3981 653 3528
L 653 765
C 653 236 589 159 109 121
L 109 0
L 1882 0
L 1882 121
C 1389 153 1306 236 1306 695
L 1306 1952
L 1664 1965
L 3187 0
L 4218 0
L 4218 121
z
M 1306 3756
C 1306 3935 1376 3987 1632 3987
C 2432 3987 2803 3711 2803 3110
C 2803 2790 2669 2521 2438 2399
C 2144 2233 1920 2195 1306 2182
L 1306 3756
z
" transform="scale(0.015625)"/>
      <path id="NimbusRomNo9L-Regu-61" d="M 2829 422
C 2720 332 2643 300 2547 300
C 2400 300 2355 390 2355 672
L 2355 1920
C 2355 2252 2323 2438 2227 2592
C 2086 2822 1811 2944 1434 2944
C 832 2944 358 2630 358 2227
C 358 2080 486 1952 634 1952
C 787 1952 922 2080 922 2220
C 922 2246 915 2278 909 2323
C 896 2380 890 2432 890 2476
C 890 2649 1094 2790 1350 2790
C 1664 2790 1837 2604 1837 2259
L 1837 1868
C 851 1472 742 1420 467 1177
C 326 1049 237 832 237 620
C 237 217 518 -64 909 -64
C 1190 -64 1453 70 1843 403
C 1875 70 1990 -64 2253 -64
C 2470 -64 2605 12 2829 256
L 2829 422
z
M 1837 787
C 1837 588 1805 531 1670 454
C 1517 364 1338 307 1203 307
C 979 307 800 524 800 800
L 800 825
C 800 1203 1062 1433 1837 1715
L 1837 787
z
" transform="scale(0.015625)"/>
      <path id="NimbusRomNo9L-Regu-64" d="M 2202 -64
L 3142 268
L 3142 371
C 3027 364 3014 364 2995 364
C 2765 364 2714 435 2714 729
L 2714 4358
L 2682 4371
C 2374 4262 2150 4198 1741 4089
L 1741 3987
C 1792 3993 1830 3993 1882 3993
C 2118 3993 2176 3929 2176 3667
L 2176 2668
C 1933 2873 1760 2944 1504 2944
C 768 2944 173 2220 173 1312
C 173 492 653 -64 1357 -64
C 1715 -64 1958 64 2176 364
L 2176 -45
L 2202 -64
z
M 2176 652
C 2176 608 2131 531 2067 460
C 1952 332 1792 268 1606 268
C 1075 268 723 780 723 1568
C 723 2291 1037 2764 1523 2764
C 1862 2764 2176 2464 2176 2124
L 2176 652
z
" transform="scale(0.015625)"/>
      <path id="NimbusRomNo9L-Regu-69" d="M 1120 2944
L 128 2592
L 128 2496
L 179 2502
C 256 2515 339 2521 397 2521
C 550 2521 608 2419 608 2137
L 608 652
C 608 192 544 121 102 96
L 102 0
L 1619 0
L 1619 96
C 1197 128 1146 192 1146 652
L 1146 2924
L 1120 2944
z
M 819 4352
C 646 4352 499 4204 499 4025
C 499 3846 640 3699 819 3699
C 1005 3699 1152 3839 1152 4025
C 1152 4204 1005 4352 819 4352
z
" transform="scale(0.015625)"/>
      <path id="NimbusRomNo9L-Regu-75" d="M 3066 319
L 3034 319
C 2739 319 2669 390 2669 684
L 2669 2880
L 1658 2880
L 1658 2771
C 2054 2752 2131 2688 2131 2368
L 2131 864
C 2131 684 2099 595 2010 524
C 1837 384 1638 307 1446 307
C 1197 307 992 524 992 793
L 992 2880
L 58 2880
L 58 2790
C 365 2771 454 2675 454 2380
L 454 768
C 454 262 762 -64 1229 -64
C 1466 -64 1715 38 1888 211
L 2163 486
L 2163 -45
L 2189 -64
C 2509 64 2739 134 3066 224
L 3066 319
z
" transform="scale(0.015625)"/>
      <path id="NimbusRomNo9L-Regu-73" d="M 2016 2009
L 1990 2880
L 1920 2880
L 1907 2867
C 1850 2822 1843 2815 1818 2815
C 1779 2815 1715 2828 1645 2860
C 1504 2918 1363 2944 1197 2944
C 691 2944 326 2617 326 2155
C 326 1796 531 1539 1075 1231
L 1446 1019
C 1670 891 1779 737 1779 538
C 1779 256 1574 76 1248 76
C 1030 76 832 160 710 301
C 576 461 518 609 435 974
L 333 974
L 333 -26
L 416 -26
C 461 38 486 51 563 51
C 621 51 710 38 858 0
C 1037 -39 1210 -64 1325 -64
C 1818 -64 2227 307 2227 756
C 2227 1077 2074 1289 1690 1520
L 998 1930
C 819 2033 723 2193 723 2366
C 723 2623 922 2803 1216 2803
C 1581 2803 1773 2585 1920 2014
L 2016 2009
z
" transform="scale(0.015625)"/>
      <path id="NimbusRomNo9L-Regu-6f" d="M 1600 2944
C 768 2944 186 2329 186 1446
C 186 582 781 -64 1587 -64
C 2394 -64 3008 614 3008 1497
C 3008 2336 2419 2944 1600 2944
z
M 1517 2764
C 2054 2764 2432 2150 2432 1273
C 2432 550 2144 115 1664 115
C 1414 115 1178 268 1043 524
C 864 857 762 1305 762 1760
C 762 2368 1062 2764 1517 2764
z
" transform="scale(0.015625)"/>
      <path id="NimbusRomNo9L-Regu-66" d="M 1978 2880
L 1190 2880
L 1190 3611
C 1190 3977 1312 4172 1555 4172
C 1690 4172 1779 4109 1894 3926
C 1997 3762 2074 3699 2182 3699
C 2330 3699 2451 3813 2451 3958
C 2451 4185 2170 4352 1786 4352
C 1389 4352 1050 4179 883 3889
C 717 3611 666 3384 659 2880
L 134 2880
L 134 2675
L 659 2675
L 659 665
C 659 198 589 121 128 96
L 128 0
L 1792 0
L 1792 96
C 1267 115 1197 185 1197 665
L 1197 2675
L 1978 2675
L 1978 2880
z
" transform="scale(0.015625)"/>
      <path id="NimbusRomNo9L-Regu-63" d="M 2547 998
C 2240 550 2010 396 1645 396
C 1062 396 653 908 653 1644
C 653 2303 1005 2758 1523 2758
C 1754 2758 1837 2687 1901 2451
L 1939 2310
C 1990 2131 2106 2015 2240 2015
C 2406 2015 2547 2137 2547 2284
C 2547 2643 2099 2944 1562 2944
C 1248 2944 922 2815 659 2585
C 339 2303 160 1868 160 1363
C 160 531 666 -64 1376 -64
C 1664 -64 1920 38 2150 236
C 2323 390 2445 563 2637 940
L 2547 998
z
" transform="scale(0.015625)"/>
      <path id="NimbusRomNo9L-Regu-72" d="M 45 2496
C 134 2515 192 2521 269 2521
C 429 2521 486 2419 486 2137
L 486 537
C 486 217 442 172 32 96
L 32 0
L 1568 0
L 1568 96
C 1133 115 1024 211 1024 576
L 1024 2016
C 1024 2220 1299 2540 1472 2540
C 1510 2540 1568 2508 1638 2444
C 1741 2355 1811 2316 1894 2316
C 2048 2316 2144 2425 2144 2604
C 2144 2815 2010 2944 1792 2944
C 1523 2944 1338 2796 1024 2342
L 1024 2931
L 992 2944
C 653 2803 422 2720 45 2598
L 45 2496
z
" transform="scale(0.015625)"/>
      <path id="NimbusRomNo9L-Regu-76" d="M 3053 2880
L 2163 2880
L 2163 2783
C 2368 2764 2464 2701 2464 2580
C 2464 2517 2451 2454 2426 2390
L 1792 748
L 1139 2371
C 1101 2460 1082 2549 1082 2606
C 1082 2720 1152 2764 1376 2783
L 1376 2880
L 122 2880
L 122 2783
C 365 2771 410 2707 704 2054
L 1472 235
C 1485 197 1504 152 1523 102
C 1562 -13 1600 -64 1638 -64
C 1677 -64 1722 19 1818 254
L 2637 2289
C 2822 2720 2861 2764 3053 2783
L 3053 2880
z
" transform="scale(0.015625)"/>
      <path id="NimbusRomNo9L-Regu-74" d="M 1632 2880
L 986 2880
L 986 3622
C 986 3686 979 3705 941 3705
C 896 3648 858 3590 813 3526
C 570 3174 294 2867 192 2841
C 122 2796 83 2751 83 2719
C 83 2700 90 2687 109 2675
L 448 2675
L 448 748
C 448 211 640 -64 1018 -64
C 1331 -64 1574 89 1786 422
L 1702 492
C 1568 332 1459 268 1318 268
C 1082 268 986 441 986 844
L 986 2675
L 1632 2675
L 1632 2880
z
" transform="scale(0.015625)"/>
      <path id="NimbusRomNo9L-Regu-65" d="M 2611 1052
C 2304 564 2029 377 1619 377
C 1254 377 979 564 794 930
C 678 1174 634 1386 621 1779
L 2592 1779
C 2541 2193 2477 2377 2317 2580
C 2125 2809 1830 2944 1498 2944
C 1178 2944 877 2828 634 2612
C 333 2351 160 1900 160 1374
C 160 486 621 -64 1357 -64
C 1965 -64 2445 313 2714 1007
L 2611 1052
z
M 634 1984
C 704 2478 922 2713 1312 2713
C 1702 2713 1856 2535 1939 1984
L 634 1984
z
" transform="scale(0.015625)"/>
      <path id="NimbusRomNo9L-ReguItal-52" d="M 3629 102
C 3347 121 3219 229 3098 561
L 2502 2121
C 2995 2229 3206 2318 3437 2522
C 3648 2707 3763 2955 3763 3242
C 3763 3834 3290 4160 2432 4160
L 845 4160
L 845 4057
C 1114 4019 1146 4012 1210 3967
C 1261 3936 1299 3859 1299 3789
C 1299 3713 1267 3560 1222 3388
L 435 573
C 320 198 275 159 -83 102
L -83 0
L 1478 0
L 1478 102
C 1088 153 1043 185 1043 395
C 1043 459 1062 541 1120 764
L 1478 2095
L 1894 2063
L 2682 0
L 3629 0
L 3629 102
z
M 1971 3789
C 2010 3923 2093 3967 2298 3967
C 2829 3967 3091 3726 3091 3254
C 3091 2624 2682 2299 1882 2299
C 1779 2299 1709 2305 1555 2331
L 1971 3789
z
" transform="scale(0.015625)"/>
      <path id="NimbusRomNo9L-ReguItal-6a" d="M 1574 2803
L 1555 2816
C 986 2713 666 2662 467 2655
L 467 2553
L 640 2553
L 685 2559
C 736 2565 864 2527 896 2501
C 922 2475 941 2418 941 2353
C 941 2289 909 2116 838 1840
L 378 -35
C 160 -915 13 -1197 -243 -1197
C -320 -1197 -359 -1172 -359 -1127
C -359 -1101 -352 -1088 -327 -1056
C -288 -1005 -275 -973 -275 -921
C -275 -786 -391 -684 -538 -684
C -685 -684 -794 -799 -794 -953
C -794 -1178 -583 -1344 -288 -1344
C 269 -1344 653 -857 909 164
L 1574 2803
z
M 1446 4160
C 1274 4160 1146 4019 1146 3824
C 1146 3622 1267 3490 1453 3490
C 1619 3490 1766 3635 1766 3811
C 1766 3994 1619 4160 1446 4160
z
" transform="scale(0.015625)"/>
     </defs>
     <use xlink:href="#NimbusRomNo9L-Regu-52" transform="scale(0.996264)"/>
     <use xlink:href="#NimbusRomNo9L-Regu-61" transform="translate(66.450031 0) scale(0.996264)"/>
     <use xlink:href="#NimbusRomNo9L-Regu-64" transform="translate(110.6836 0) scale(0.996264)"/>
     <use xlink:href="#NimbusRomNo9L-Regu-69" transform="translate(160.4968 0) scale(0.996264)"/>
     <use xlink:href="#NimbusRomNo9L-Regu-75" transform="translate(188.19197 0) scale(0.996264)"/>
     <use xlink:href="#NimbusRomNo9L-Regu-73" transform="translate(238.00517 0) scale(0.996264)"/>
     <use xlink:href="#NimbusRomNo9L-Regu-6f" transform="translate(301.665477 0) scale(0.996264)"/>
     <use xlink:href="#NimbusRomNo9L-Regu-66" transform="translate(351.478677 0) scale(0.996264)"/>
     <use xlink:href="#NimbusRomNo9L-Regu-63" transform="translate(409.560507 0) scale(0.996264)"/>
     <use xlink:href="#NimbusRomNo9L-Regu-75" transform="translate(453.794076 0) scale(0.996264)"/>
     <use xlink:href="#NimbusRomNo9L-Regu-72" transform="translate(503.607277 0) scale(0.996264)"/>
     <use xlink:href="#NimbusRomNo9L-Regu-76" transform="translate(536.782506 0) scale(0.996264)"/>
     <use xlink:href="#NimbusRomNo9L-Regu-61" transform="translate(584.105077 0) scale(0.996264)"/>
     <use xlink:href="#NimbusRomNo9L-Regu-74" transform="translate(628.338646 0) scale(0.996264)"/>
     <use xlink:href="#NimbusRomNo9L-Regu-75" transform="translate(656.033815 0) scale(0.996264)"/>
     <use xlink:href="#NimbusRomNo9L-Regu-72" transform="translate(705.847016 0) scale(0.996264)"/>
     <use xlink:href="#NimbusRomNo9L-Regu-65" transform="translate(739.022246 0) scale(0.996264)"/>
     <use xlink:href="#NimbusRomNo9L-ReguItal-52" transform="translate(808.162415 0) scale(0.996264)"/>
     <use xlink:href="#NimbusRomNo9L-ReguItal-6a" transform="translate(880.092628 -14.943915) scale(0.737241)"/>
    </g>
   </g>
   <g id="patch_8">
    <path d="M 283.603815 227.045961
Q 301.781744 227.045961 319.959674 227.045961
" style="fill: none; stroke: #007c83; stroke-width: 1.55; stroke-linecap: round"/>
    <path d="M 287.603815 229.045961
L 283.603815 227.045961
L 287.603815 225.045961
" style="fill: none; stroke: #007c83; stroke-width: 1.55; stroke-linecap: round"/>
    <path d="M 315.959674 225.045961
L 319.959674 227.045961
L 315.959674 229.045961
" style="fill: none; stroke: #007c83; stroke-width: 1.55; stroke-linecap: round"/>
   </g>
   <g id="patch_9">
    <path d="M 397.759567 381.487447
Q 350.29861 305.116255 303.693343 230.121986
" style="fill: none; stroke: #007c83; stroke-width: 1.45; stroke-linecap: round"/>
    <path d="M 304.31227 236.801577
L 303.693343 230.121986
L 309.408372 233.634599
" style="fill: none; stroke: #007c83; stroke-width: 1.45; stroke-linecap: round"/>
   </g>
   <g id="text_2">
    <g id="patch_10">
     <path d="M 369.605647 405.90301
L 442.452375 405.90301
Q 446.202375 405.90301 446.202375 402.15301
L 446.202375 387.435222
Q 446.202375 383.685222 442.452375 383.685222
L 369.605647 383.685222
Q 365.855647 383.685222 365.855647 387.435222
L 365.855647 402.15301
Q 365.855647 405.90301 369.605647 405.90301
z
" style="fill: #ffffff; opacity: 0.96; stroke: #007c83; stroke-linejoin: miter"/>
    </g>
    <!-- Thickness $t_j$ -->
    <g style="fill: #007c83" transform="translate(369.605647 397.567088) scale(0.15 -0.15)">
     <defs>
      <path id="NimbusRomNo9L-Regu-54" d="M 1626 3955
L 1626 765
C 1626 223 1555 153 1024 121
L 1024 0
L 2893 0
L 2893 121
C 2368 147 2278 230 2278 695
L 2278 3955
L 2624 3955
C 3354 3955 3494 3840 3642 3138
L 3795 3138
L 3757 4224
L 147 4224
L 109 3138
L 262 3138
C 416 3834 563 3955 1280 3955
L 1626 3955
z
" transform="scale(0.015625)"/>
      <path id="NimbusRomNo9L-Regu-68" d="M 1005 2195
C 1274 2489 1466 2598 1715 2598
C 2035 2598 2195 2368 2195 1920
L 2195 652
C 2195 217 2131 134 1760 96
L 1760 0
L 3117 0
L 3117 96
C 2771 160 2733 211 2733 652
L 2733 1926
C 2733 2598 2464 2944 1946 2944
C 1568 2944 1299 2790 1005 2406
L 1005 4352
L 973 4371
C 755 4294 595 4243 237 4140
L 64 4089
L 64 3987
C 90 3993 109 3993 141 3993
C 416 3993 467 3942 467 3667
L 467 652
C 467 204 429 147 58 96
L 58 0
L 1440 0
L 1440 96
C 1069 134 1005 211 1005 652
L 1005 2195
z
" transform="scale(0.015625)"/>
      <path id="NimbusRomNo9L-Regu-6b" d="M 45 3987
C 128 3993 186 4000 250 4000
C 461 4000 525 3916 525 3609
L 525 524
C 525 192 506 172 45 96
L 45 0
L 1542 0
L 1542 96
L 1414 102
C 1158 115 1062 204 1062 428
L 1062 1606
L 1958 409
L 1978 384
C 1990 364 2003 345 2022 326
C 2074 262 2093 224 2093 192
C 2093 134 2035 96 1958 96
L 1837 96
L 1837 0
L 3232 0
L 3232 96
C 2950 115 2752 236 2483 563
L 1504 1804
L 1690 1977
C 2144 2400 2541 2694 2726 2745
C 2822 2771 2912 2783 3021 2783
L 3072 2783
L 3072 2880
L 1766 2880
L 1766 2790
C 2016 2783 2086 2758 2086 2668
C 2086 2617 2029 2528 1939 2451
L 1062 1670
L 1062 4358
L 1037 4371
C 794 4294 608 4243 237 4140
L 45 4089
L 45 3987
z
" transform="scale(0.015625)"/>
      <path id="NimbusRomNo9L-Regu-6e" d="M 102 2547
C 141 2566 205 2572 275 2572
C 454 2572 512 2476 512 2163
L 512 576
C 512 211 442 121 115 96
L 115 0
L 1472 0
L 1472 96
C 1146 121 1050 198 1050 428
L 1050 2227
C 1357 2515 1498 2591 1709 2591
C 2022 2591 2176 2393 2176 1971
L 2176 633
C 2176 230 2093 121 1773 96
L 1773 0
L 3104 0
L 3104 96
C 2790 128 2714 204 2714 518
L 2714 1984
C 2714 2585 2432 2944 1958 2944
C 1664 2944 1466 2835 1030 2425
L 1030 2931
L 986 2944
C 672 2828 454 2758 102 2655
L 102 2547
z
" transform="scale(0.015625)"/>
      <path id="NimbusRomNo9L-ReguItal-74" d="M 1894 2752
L 1382 2752
L 1562 3411
C 1568 3424 1568 3436 1568 3443
C 1568 3488 1549 3507 1517 3507
C 1478 3507 1459 3500 1421 3449
C 1171 3123 774 2803 570 2745
C 410 2694 365 2655 365 2585
C 365 2579 365 2566 371 2547
L 845 2547
L 384 782
C 371 724 365 705 346 647
C 288 454 237 230 237 179
C 237 38 371 -64 544 -64
C 838 -64 1050 115 1453 711
L 1370 756
C 1056 352 954 249 851 249
C 794 249 755 300 755 377
C 755 384 755 390 762 410
L 1325 2547
L 1862 2547
L 1894 2752
z
" transform="scale(0.015625)"/>
     </defs>
     <use xlink:href="#NimbusRomNo9L-Regu-54" transform="scale(0.996264)"/>
     <use xlink:href="#NimbusRomNo9L-Regu-68" transform="translate(60.871631 0) scale(0.996264)"/>
     <use xlink:href="#NimbusRomNo9L-Regu-69" transform="translate(110.684831 0) scale(0.996264)"/>
     <use xlink:href="#NimbusRomNo9L-Regu-63" transform="translate(138.380001 0) scale(0.996264)"/>
     <use xlink:href="#NimbusRomNo9L-Regu-6b" transform="translate(182.613569 0) scale(0.996264)"/>
     <use xlink:href="#NimbusRomNo9L-Regu-6e" transform="translate(232.42677 0) scale(0.996264)"/>
     <use xlink:href="#NimbusRomNo9L-Regu-65" transform="translate(282.23997 0) scale(0.996264)"/>
     <use xlink:href="#NimbusRomNo9L-Regu-73" transform="translate(326.473539 0) scale(0.996264)"/>
     <use xlink:href="#NimbusRomNo9L-Regu-73" transform="translate(365.227245 0) scale(0.996264)"/>
     <use xlink:href="#NimbusRomNo9L-ReguItal-74" transform="translate(426.396922 0) scale(0.996264)"/>
     <use xlink:href="#NimbusRomNo9L-ReguItal-6a" transform="translate(465.150583 -14.943915) scale(0.737241)"/>
    </g>
   </g>
   <g id="patch_11">
    <path d="M 301.579393 381.861846
Q 300.679779 324.367566 299.805529 268.494236
" style="fill: none; stroke: #007c83; stroke-width: 1.45; stroke-linecap: round"/>
    <path d="M 296.899766 274.540437
L 299.805529 268.494236
L 302.899032 274.446566
" style="fill: none; stroke: #007c83; stroke-width: 1.45; stroke-linecap: round"/>
   </g>
   <g id="text_3">
    <g id="patch_12">
     <path d="M 271.401226 405.227671
L 332.162263 405.227671
Q 335.912263 405.227671 335.912263 401.477671
L 335.912263 388.110561
Q 335.912263 384.360561 332.162263 384.360561
L 271.401226 384.360561
Q 267.651226 384.360561 267.651226 388.110561
L 267.651226 401.477671
Q 267.651226 405.227671 271.401226 405.227671
z
" style="fill: #ffffff; opacity: 0.96; stroke: #007c83; stroke-linejoin: miter"/>
    </g>
    <!-- Material $j$ -->
    <g style="fill: #007c83" transform="translate(271.401226 398.242428) scale(0.15 -0.15)">
     <defs>
      <path id="NimbusRomNo9L-Regu-4d" d="M 4314 3656
L 4314 765
C 4314 236 4237 153 3731 121
L 3731 0
L 5523 0
L 5523 121
C 5056 153 4966 242 4966 695
L 4966 3528
C 4966 3981 5050 4064 5523 4102
L 5523 4224
L 4250 4224
L 2835 1002
L 1357 4224
L 90 4224
L 90 4102
C 614 4070 698 3994 698 3528
L 698 938
C 698 281 608 159 77 121
L 77 0
L 1581 0
L 1581 121
C 1088 147 979 293 979 938
L 979 3509
L 2586 0
L 2675 0
L 4314 3656
z
" transform="scale(0.015625)"/>
      <path id="NimbusRomNo9L-Regu-6c" d="M 122 3987
L 160 3987
C 230 3993 307 4000 358 4000
C 563 4000 627 3910 627 3609
L 627 556
C 627 211 538 128 134 96
L 134 0
L 1645 0
L 1645 96
C 1242 121 1165 185 1165 537
L 1165 4358
L 1139 4371
C 806 4262 563 4198 122 4089
L 122 3987
z
" transform="scale(0.015625)"/>
     </defs>
     <use xlink:href="#NimbusRomNo9L-Regu-4d" transform="scale(0.996264)"/>
     <use xlink:href="#NimbusRomNo9L-Regu-61" transform="translate(88.566907 0) scale(0.996264)"/>
     <use xlink:href="#NimbusRomNo9L-Regu-74" transform="translate(132.800475 0) scale(0.996264)"/>
     <use xlink:href="#NimbusRomNo9L-Regu-65" transform="translate(160.495645 0) scale(0.996264)"/>
     <use xlink:href="#NimbusRomNo9L-Regu-72" transform="translate(204.729214 0) scale(0.996264)"/>
     <use xlink:href="#NimbusRomNo9L-Regu-69" transform="translate(237.904443 0) scale(0.996264)"/>
     <use xlink:href="#NimbusRomNo9L-Regu-61" transform="translate(265.599613 0) scale(0.996264)"/>
     <use xlink:href="#NimbusRomNo9L-Regu-6c" transform="translate(309.833182 0) scale(0.996264)"/>
     <use xlink:href="#NimbusRomNo9L-ReguItal-6a" transform="translate(377.378866 0) scale(0.996264)"/>
    </g>
   </g>
   <g id="patch_13">
    <path d="M 263.24714 225.313009
Q 263.24714 173.011123 263.24714 120.709237
" style="fill: none; stroke: #007c83; stroke-width: 1.55; stroke-linecap: round"/>
    <path d="M 265.24714 221.313009
L 263.24714 225.313009
L 261.24714 221.313009
" style="fill: none; stroke: #007c83; stroke-width: 1.55; stroke-linecap: round"/>
    <path d="M 261.24714 124.709237
L 263.24714 120.709237
L 265.24714 124.709237
" style="fill: none; stroke: #007c83; stroke-width: 1.55; stroke-linecap: round"/>
   </g>
   <g id="patch_14">
    <path d="M 257.150641 153.558581
Q 260.19889 153.558581 263.24714 153.558581
" style="fill: none; stroke: #007c83; stroke-width: 1.2; stroke-linecap: round"/>
   </g>
   <g id="text_4">
    <g id="patch_15">
     <path d="M 148.971013 164.667475
L 252.900628 164.667475
Q 256.650628 164.667475 256.650628 160.917475
L 256.650628 146.199687
Q 256.650628 142.449687 252.900628 142.449687
L 148.971013 142.449687
Q 145.221013 142.449687 145.221013 146.199687
L 145.221013 160.917475
Q 145.221013 164.667475 148.971013 164.667475
z
" style="fill: #ffffff; opacity: 0.96; stroke: #007c83; stroke-linejoin: miter"/>
    </g>
    <!-- Semi-diameter $h_j$ -->
    <g style="fill: #007c83" transform="translate(148.971013 156.331553) scale(0.15 -0.15)">
     <defs>
      <path id="NimbusRomNo9L-Regu-53" d="M 2861 4313
L 2726 4313
C 2701 4166 2630 4095 2522 4095
C 2458 4095 2349 4121 2240 4172
C 2003 4300 1766 4352 1562 4352
C 1286 4352 1005 4243 794 4057
C 570 3859 454 3590 454 3257
C 454 2745 736 2387 1453 2009
C 1914 1766 2246 1504 2406 1260
C 2464 1177 2496 1043 2496 889
C 2496 460 2176 166 1709 166
C 1139 166 736 518 416 1299
L 269 1299
L 461 -58
L 602 -58
C 608 38 685 128 781 128
C 851 128 960 102 1082 57
C 1325 -13 1581 -64 1837 -64
C 2573 -64 3142 441 3142 1100
C 3142 1625 2790 2041 1946 2496
C 1274 2867 1005 3148 1005 3494
C 1005 3846 1274 4089 1670 4089
C 1958 4089 2227 3968 2451 3737
C 2650 3533 2739 3366 2842 2988
L 3002 2988
L 2861 4313
z
" transform="scale(0.015625)"/>
      <path id="NimbusRomNo9L-Regu-6d" d="M 122 2547
C 205 2566 256 2572 326 2572
C 493 2572 550 2470 550 2163
L 550 544
C 550 198 461 102 102 96
L 102 0
L 1523 0
L 1523 96
C 1184 108 1088 179 1088 428
L 1088 2233
C 1088 2246 1139 2310 1184 2355
C 1344 2502 1619 2611 1843 2611
C 2125 2611 2266 2387 2266 1939
L 2266 550
C 2266 192 2195 121 1830 96
L 1830 0
L 3264 0
L 3264 96
C 2899 102 2803 211 2803 608
L 2803 2220
C 2995 2496 3206 2611 3501 2611
C 3866 2611 3981 2438 3981 1907
L 3981 556
C 3981 192 3930 140 3558 96
L 3558 0
L 4960 0
L 4960 96
L 4794 108
C 4602 121 4518 236 4518 486
L 4518 1804
C 4518 2560 4269 2944 3776 2944
C 3405 2944 3078 2777 2733 2406
C 2618 2771 2400 2944 2054 2944
C 1773 2944 1594 2854 1062 2451
L 1062 2931
L 1018 2944
C 691 2822 474 2751 122 2655
L 122 2547
z
" transform="scale(0.015625)"/>
      <path id="NimbusRomNo9L-Regu-2d" d="M 250 1664
L 250 1260
L 1824 1260
L 1824 1664
L 250 1664
z
" transform="scale(0.015625)"/>
      <path id="NimbusRomNo9L-ReguItal-68" d="M 2976 742
C 2630 307 2554 236 2451 236
C 2394 236 2349 294 2349 352
C 2349 416 2451 819 2560 1151
C 2746 1759 2867 2233 2867 2387
C 2867 2643 2694 2816 2445 2816
C 2029 2816 1574 2393 979 1465
L 1747 4332
L 1715 4364
C 1344 4281 1094 4236 710 4192
L 710 4096
L 877 4096
C 883 4096 890 4096 896 4102
C 986 4140 1139 4032 1139 3942
C 1139 3852 1107 3692 1050 3507
C 1043 3500 1024 3411 986 3270
L 122 -7
L 602 -7
C 858 979 941 1196 1197 1587
C 1530 2092 1965 2489 2189 2489
C 2285 2489 2368 2412 2368 2329
C 2368 2303 2349 2220 2323 2118
L 1971 793
C 1888 479 1843 281 1843 204
C 1843 38 1952 -64 2125 -64
C 2451 -64 2675 108 3059 665
L 2976 742
z
" transform="scale(0.015625)"/>
     </defs>
     <use xlink:href="#NimbusRomNo9L-Regu-53" transform="scale(0.996264)"/>
     <use xlink:href="#NimbusRomNo9L-Regu-65" transform="translate(55.391677 0) scale(0.996264)"/>
     <use xlink:href="#NimbusRomNo9L-Regu-6d" transform="translate(99.625246 0) scale(0.996264)"/>
     <use xlink:href="#NimbusRomNo9L-Regu-69" transform="translate(177.133616 0) scale(0.996264)"/>
     <use xlink:href="#NimbusRomNo9L-Regu-2d" transform="translate(204.828785 0) scale(0.996264)"/>
     <use xlink:href="#NimbusRomNo9L-Regu-64" transform="translate(238.004015 0) scale(0.996264)"/>
     <use xlink:href="#NimbusRomNo9L-Regu-69" transform="translate(287.817216 0) scale(0.996264)"/>
     <use xlink:href="#NimbusRomNo9L-Regu-61" transform="translate(315.512385 0) scale(0.996264)"/>
     <use xlink:href="#NimbusRomNo9L-Regu-6d" transform="translate(359.745954 0) scale(0.996264)"/>
     <use xlink:href="#NimbusRomNo9L-Regu-65" transform="translate(437.254324 0) scale(0.996264)"/>
     <use xlink:href="#NimbusRomNo9L-Regu-74" transform="translate(481.487893 0) scale(0.996264)"/>
     <use xlink:href="#NimbusRomNo9L-Regu-65" transform="translate(509.183062 0) scale(0.996264)"/>
     <use xlink:href="#NimbusRomNo9L-Regu-72" transform="translate(553.416631 0) scale(0.996264)"/>
     <use xlink:href="#NimbusRomNo9L-ReguItal-68" transform="translate(611.498461 0) scale(0.996264)"/>
     <use xlink:href="#NimbusRomNo9L-ReguItal-6a" transform="translate(672.370244 -14.943915) scale(0.737241)"/>
    </g>
   </g>
   <g id="patch_16">
    <path d="M 230.545164 382.158969
Q 252.553989 346.390666 273.713242 312.003071
" style="fill: none; stroke: #007c83; stroke-width: 1.45; stroke-linecap: round"/>
    <path d="M 268.013857 315.54101
L 273.713242 312.003071
L 273.123962 318.685342
" style="fill: none; stroke: #007c83; stroke-width: 1.45; stroke-linecap: round"/>
   </g>
   <g id="text_5">
    <g id="patch_17">
     <path d="M 194.960158 405.227671
L 250.580942 405.227671
Q 254.330942 405.227671 254.330942 401.477671
L 254.330942 388.110561
Q 254.330942 384.360561 250.580942 384.360561
L 194.960158 384.360561
Q 191.210158 384.360561 191.210158 388.110561
L 191.210158 401.477671
Q 191.210158 405.227671 194.960158 405.227671
z
" style="fill: #ffffff; opacity: 0.96; stroke: #007c83; stroke-linejoin: miter"/>
    </g>
    <!-- Surface $j$ -->
    <g style="fill: #007c83" transform="translate(194.960158 398.242428) scale(0.15 -0.15)">
     <use xlink:href="#NimbusRomNo9L-Regu-53" transform="scale(0.996264)"/>
     <use xlink:href="#NimbusRomNo9L-Regu-75" transform="translate(55.391677 0) scale(0.996264)"/>
     <use xlink:href="#NimbusRomNo9L-Regu-72" transform="translate(105.204877 0) scale(0.996264)"/>
     <use xlink:href="#NimbusRomNo9L-Regu-66" transform="translate(138.380107 0) scale(0.996264)"/>
     <use xlink:href="#NimbusRomNo9L-Regu-61" transform="translate(170.55924 0) scale(0.996264)"/>
     <use xlink:href="#NimbusRomNo9L-Regu-63" transform="translate(214.792809 0) scale(0.996264)"/>
     <use xlink:href="#NimbusRomNo9L-Regu-65" transform="translate(259.026378 0) scale(0.996264)"/>
     <use xlink:href="#NimbusRomNo9L-ReguItal-6a" transform="translate(343.110461 0) scale(0.996264)"/>
    </g>
   </g>
   <g id="patch_18">
    <path d="M 92.476864 300.451881
Q 123.479727 264.507219 153.423762 229.79016
" style="fill: none; stroke: #007c83; stroke-width: 1.45; stroke-linecap: round"/>
    <path d="M 147.233231 232.374212
L 153.423762 229.79016
L 151.776685 236.293016
" style="fill: none; stroke: #007c83; stroke-width: 1.45; stroke-linecap: round"/>
   </g>
   <g id="text_6">
    <g id="patch_19">
     <path d="M 87.503697 323.334871
L 227.272897 323.334871
Q 231.022897 323.334871 231.022897 319.584871
L 231.022897 306.217761
Q 231.022897 302.467761 227.272897 302.467761
L 87.503697 302.467761
Q 83.753697 302.467761 83.753697 306.217761
L 83.753697 319.584871
Q 83.753697 323.334871 87.503697 323.334871
z
" style="fill: #ffffff; opacity: 0.96; stroke: #007c83; stroke-linejoin: miter"/>
    </g>
    <!-- Surface $i$: aperture stop -->
    <g style="fill: #007c83" transform="translate(87.503697 316.349628) scale(0.15 -0.15)">
     <defs>
      <path id="NimbusRomNo9L-ReguItal-69" d="M 1421 733
C 1267 529 1222 478 1158 408
C 1050 300 954 236 896 236
C 845 236 794 287 794 332
C 794 395 813 491 858 612
C 858 631 877 676 890 727
L 890 739
L 896 752
L 1459 2803
L 1440 2816
C 794 2694 666 2675 416 2655
L 416 2554
C 755 2547 819 2528 819 2401
C 819 2350 800 2248 762 2121
L 454 994
C 352 625 314 427 314 300
C 314 64 416 -64 608 -64
C 902 -64 1139 128 1504 663
L 1421 733
z
M 1370 4160
C 1197 4160 1069 4013 1069 3824
C 1069 3622 1190 3490 1376 3490
C 1542 3490 1690 3635 1690 3811
C 1690 3994 1542 4160 1370 4160
z
" transform="scale(0.015625)"/>
      <path id="NimbusRomNo9L-Regu-3a" d="M 870 2944
C 678 2944 518 2777 518 2579
C 518 2393 678 2233 864 2233
C 1062 2233 1229 2393 1229 2579
C 1229 2777 1062 2944 870 2944
z
M 870 646
C 678 646 518 480 518 281
C 518 96 678 -64 864 -64
C 1062 -64 1229 96 1229 281
C 1229 480 1062 646 870 646
z
" transform="scale(0.015625)"/>
      <path id="NimbusRomNo9L-Regu-70" d="M 58 2515
C 115 2521 160 2521 218 2521
C 435 2521 480 2457 480 2157
L 480 -839
C 480 -1172 410 -1242 32 -1280
L 32 -1389
L 1581 -1389
L 1581 -1280
C 1101 -1274 1018 -1203 1018 -798
L 1018 211
C 1242 0 1395 -64 1664 -64
C 2419 -64 3008 652 3008 1580
C 3008 2374 2560 2944 1939 2944
C 1581 2944 1299 2783 1018 2438
L 1018 2931
L 979 2944
C 634 2809 410 2726 58 2617
L 58 2515
z
M 1018 2137
C 1018 2329 1376 2559 1670 2559
C 2144 2559 2458 2073 2458 1331
C 2458 620 2144 140 1683 140
C 1382 140 1018 371 1018 563
L 1018 2137
z
" transform="scale(0.015625)"/>
     </defs>
     <use xlink:href="#NimbusRomNo9L-Regu-53" transform="scale(0.996264)"/>
     <use xlink:href="#NimbusRomNo9L-Regu-75" transform="translate(55.391677 0) scale(0.996264)"/>
     <use xlink:href="#NimbusRomNo9L-Regu-72" transform="translate(105.204877 0) scale(0.996264)"/>
     <use xlink:href="#NimbusRomNo9L-Regu-66" transform="translate(138.380107 0) scale(0.996264)"/>
     <use xlink:href="#NimbusRomNo9L-Regu-61" transform="translate(170.55924 0) scale(0.996264)"/>
     <use xlink:href="#NimbusRomNo9L-Regu-63" transform="translate(214.792809 0) scale(0.996264)"/>
     <use xlink:href="#NimbusRomNo9L-Regu-65" transform="translate(259.026378 0) scale(0.996264)"/>
     <use xlink:href="#NimbusRomNo9L-ReguItal-69" transform="translate(328.166546 0) scale(0.996264)"/>
     <use xlink:href="#NimbusRomNo9L-Regu-3a" transform="translate(355.861716 0) scale(0.996264)"/>
     <use xlink:href="#NimbusRomNo9L-Regu-61" transform="translate(414.440918 0) scale(0.996264)"/>
     <use xlink:href="#NimbusRomNo9L-Regu-70" transform="translate(458.674487 0) scale(0.996264)"/>
     <use xlink:href="#NimbusRomNo9L-Regu-65" transform="translate(508.487687 0) scale(0.996264)"/>
     <use xlink:href="#NimbusRomNo9L-Regu-72" transform="translate(552.721256 0) scale(0.996264)"/>
     <use xlink:href="#NimbusRomNo9L-Regu-74" transform="translate(585.896486 0) scale(0.996264)"/>
     <use xlink:href="#NimbusRomNo9L-Regu-75" transform="translate(613.591655 0) scale(0.996264)"/>
     <use xlink:href="#NimbusRomNo9L-Regu-72" transform="translate(663.404856 0) scale(0.996264)"/>
     <use xlink:href="#NimbusRomNo9L-Regu-65" transform="translate(696.580085 0) scale(0.996264)"/>
     <use xlink:href="#NimbusRomNo9L-Regu-73" transform="translate(765.720254 0) scale(0.996264)"/>
     <use xlink:href="#NimbusRomNo9L-Regu-74" transform="translate(804.473961 0) scale(0.996264)"/>
     <use xlink:href="#NimbusRomNo9L-Regu-6f" transform="translate(832.16913 0) scale(0.996264)"/>
     <use xlink:href="#NimbusRomNo9L-Regu-70" transform="translate(881.982331 0) scale(0.996264)"/>
    </g>
   </g>
   <g id="patch_20">
    <path d="M 553.369985 91.378882
Q 555.583434 119.464399 557.669513 145.933779
" style="fill: none; stroke: #007c83; stroke-width: 1.45; stroke-linecap: round"/>
    <path d="M 560.188835 139.716624
L 557.669513 145.933779
L 554.207382 140.188028
" style="fill: none; stroke: #007c83; stroke-width: 1.45; stroke-linecap: round"/>
   </g>
   <g id="text_7">
    <g id="patch_21">
     <path d="M 480.801948 88.884341
L 620.048556 88.884341
Q 623.798556 88.884341 623.798556 85.134341
L 623.798556 24.067003
Q 623.798556 20.317003 620.048556 20.317003
L 480.801948 20.317003
Q 477.051948 20.317003 477.051948 24.067003
L 477.051948 85.134341
Q 477.051948 88.884341 480.801948 88.884341
z
" style="fill: #ffffff; opacity: 0.96; stroke: #007c83; stroke-linejoin: miter"/>
    </g>
    <!-- Aspheric surface $m$ -->
    <g style="fill: #007c83" transform="translate(504.846713 33.026325) scale(0.15 -0.15)">
     <defs>
      <path id="NimbusRomNo9L-Regu-41" d="M 4518 121
C 4230 141 4166 205 3942 686
L 2349 4288
L 2221 4288
L 890 1187
C 480 238 403 134 96 121
L 96 0
L 1363 0
L 1363 121
C 1056 121 928 205 928 387
C 928 465 947 556 979 641
L 1274 1401
L 2950 1401
L 3213 777
C 3290 602 3334 433 3334 342
C 3334 179 3226 128 2886 121
L 2886 0
L 4518 0
L 4518 121
z
M 1382 1664
L 2118 3392
L 2861 1664
L 1382 1664
z
" transform="scale(0.015625)"/>
      <path id="NimbusRomNo9L-ReguItal-6d" d="M 4410 742
C 4346 665 4294 601 4275 575
C 4096 345 3962 236 3866 236
C 3814 236 3782 275 3782 339
C 3782 371 3808 473 3846 627
L 4282 2233
C 4288 2259 4301 2374 4301 2412
C 4301 2643 4141 2816 3923 2816
C 3802 2816 3674 2771 3520 2675
C 3206 2470 2944 2163 2502 1459
C 2662 1945 2758 2310 2758 2431
C 2758 2655 2611 2816 2394 2816
C 2003 2816 1555 2393 966 1465
L 1338 2803
L 1318 2816
C 960 2739 826 2713 294 2617
L 294 2515
L 454 2515
C 621 2515 704 2470 704 2374
C 704 2303 557 1721 326 908
C 179 384 160 320 77 -7
L 557 -7
C 864 1011 960 1247 1178 1580
C 1536 2124 1920 2483 2138 2483
C 2221 2483 2266 2425 2266 2323
C 2266 2265 2061 1491 1658 -7
L 2138 -7
C 2394 991 2522 1311 2848 1766
C 3162 2201 3482 2483 3667 2483
C 3738 2483 3795 2419 3795 2348
C 3795 2316 3782 2239 3750 2124
L 3379 652
C 3322 416 3296 294 3296 230
C 3296 38 3386 -64 3552 -64
C 3853 -64 4134 147 4474 620
L 4506 665
L 4410 742
z
" transform="scale(0.015625)"/>
     </defs>
     <use xlink:href="#NimbusRomNo9L-Regu-41" transform="scale(0.996264)"/>
     <use xlink:href="#NimbusRomNo9L-Regu-73" transform="translate(71.929985 0) scale(0.996264)"/>
     <use xlink:href="#NimbusRomNo9L-Regu-70" transform="translate(110.683691 0) scale(0.996264)"/>
     <use xlink:href="#NimbusRomNo9L-Regu-68" transform="translate(160.496892 0) scale(0.996264)"/>
     <use xlink:href="#NimbusRomNo9L-Regu-65" transform="translate(210.310092 0) scale(0.996264)"/>
     <use xlink:href="#NimbusRomNo9L-Regu-72" transform="translate(254.543661 0) scale(0.996264)"/>
     <use xlink:href="#NimbusRomNo9L-Regu-69" transform="translate(287.71889 0) scale(0.996264)"/>
     <use xlink:href="#NimbusRomNo9L-Regu-63" transform="translate(315.41406 0) scale(0.996264)"/>
     <use xlink:href="#NimbusRomNo9L-Regu-73" transform="translate(384.554229 0) scale(0.996264)"/>
     <use xlink:href="#NimbusRomNo9L-Regu-75" transform="translate(423.307935 0) scale(0.996264)"/>
     <use xlink:href="#NimbusRomNo9L-Regu-72" transform="translate(473.121136 0) scale(0.996264)"/>
     <use xlink:href="#NimbusRomNo9L-Regu-66" transform="translate(506.296365 0) scale(0.996264)"/>
     <use xlink:href="#NimbusRomNo9L-Regu-61" transform="translate(538.475498 0) scale(0.996264)"/>
     <use xlink:href="#NimbusRomNo9L-Regu-63" transform="translate(582.709067 0) scale(0.996264)"/>
     <use xlink:href="#NimbusRomNo9L-Regu-65" transform="translate(626.942636 0) scale(0.996264)"/>
     <use xlink:href="#NimbusRomNo9L-ReguItal-6d" transform="translate(696.082805 0) scale(0.996264)"/>
    </g>
    <!-- Conic constant $k_m$ -->
    <g style="fill: #007c83" transform="translate(512.448912 48.926401) scale(0.15 -0.15)">
     <defs>
      <path id="NimbusRomNo9L-Regu-43" d="M 3968 2905
L 3910 4352
L 3776 4352
C 3738 4217 3635 4140 3507 4140
C 3450 4140 3354 4159 3258 4198
C 2944 4300 2624 4352 2323 4352
C 1798 4352 1267 4153 870 3801
C 422 3405 179 2809 179 2105
C 179 1510 371 960 698 595
C 1082 179 1670 -64 2304 -64
C 3027 -64 3661 230 4051 748
L 3936 864
C 3462 409 3040 217 2509 217
C 2106 217 1747 345 1472 588
C 1120 902 922 1478 922 2188
C 922 3347 1517 4095 2445 4095
C 2810 4095 3142 3961 3398 3705
C 3603 3501 3699 3321 3821 2905
L 3968 2905
z
" transform="scale(0.015625)"/>
      <path id="NimbusRomNo9L-ReguItal-6b" d="M 2650 704
L 2554 537
C 2438 339 2362 268 2266 268
C 2131 268 1997 480 1747 1094
C 1715 1177 1619 1408 1510 1657
C 2451 2496 2650 2624 2950 2643
L 2950 2745
L 1779 2745
L 1779 2643
L 1882 2643
C 2042 2643 2131 2598 2131 2528
C 2131 2400 1811 2086 1216 1632
C 1126 1561 1050 1497 941 1420
L 1709 4345
L 1677 4377
C 1299 4294 1056 4249 678 4205
L 678 4102
C 986 4109 1107 4064 1114 3942
C 1101 3833 1056 3661 973 3366
C 947 3277 928 3206 915 3155
L 902 3097
L 90 6
L 570 6
L 877 1158
L 1146 1363
C 1248 1081 1414 691 1530 460
C 1734 57 1850 -64 2035 -64
C 2291 -64 2458 96 2746 633
L 2650 704
z
" transform="scale(0.015625)"/>
     </defs>
     <use xlink:href="#NimbusRomNo9L-Regu-43" transform="scale(0.996264)"/>
     <use xlink:href="#NimbusRomNo9L-Regu-6f" transform="translate(66.450031 0) scale(0.996264)"/>
     <use xlink:href="#NimbusRomNo9L-Regu-6e" transform="translate(116.263232 0) scale(0.996264)"/>
     <use xlink:href="#NimbusRomNo9L-Regu-69" transform="translate(166.076432 0) scale(0.996264)"/>
     <use xlink:href="#NimbusRomNo9L-Regu-63" transform="translate(193.771602 0) scale(0.996264)"/>
     <use xlink:href="#NimbusRomNo9L-Regu-63" transform="translate(262.911771 0) scale(0.996264)"/>
     <use xlink:href="#NimbusRomNo9L-Regu-6f" transform="translate(307.145339 0) scale(0.996264)"/>
     <use xlink:href="#NimbusRomNo9L-Regu-6e" transform="translate(356.95854 0) scale(0.996264)"/>
     <use xlink:href="#NimbusRomNo9L-Regu-73" transform="translate(406.77174 0) scale(0.996264)"/>
     <use xlink:href="#NimbusRomNo9L-Regu-74" transform="translate(445.525447 0) scale(0.996264)"/>
     <use xlink:href="#NimbusRomNo9L-Regu-61" transform="translate(473.220616 0) scale(0.996264)"/>
     <use xlink:href="#NimbusRomNo9L-Regu-6e" transform="translate(517.454185 0) scale(0.996264)"/>
     <use xlink:href="#NimbusRomNo9L-Regu-74" transform="translate(567.267385 0) scale(0.996264)"/>
     <use xlink:href="#NimbusRomNo9L-ReguItal-6b" transform="translate(619.869155 0) scale(0.996264)"/>
     <use xlink:href="#NimbusRomNo9L-ReguItal-6d" transform="translate(664.102724 -14.943915) scale(0.737241)"/>
    </g>
    <!-- Even-order coefficients -->
    <g style="fill: #007c83" transform="translate(480.801948 64.826478) scale(0.15 -0.15)">
     <defs>
      <path id="NimbusRomNo9L-Regu-45" d="M 3821 1087
L 3642 1087
C 3322 391 3046 236 2131 236
L 1958 236
C 1645 236 1376 269 1331 314
C 1299 333 1286 404 1286 513
L 1286 2105
L 2272 2105
C 2797 2105 2893 2021 2976 1487
L 3123 1487
L 3123 2966
L 2976 2966
C 2931 2708 2906 2613 2835 2525
C 2752 2418 2573 2368 2272 2368
L 1286 2368
L 1286 3766
C 1286 3942 1325 3980 1498 3980
L 2362 3980
C 3085 3980 3226 3886 3334 3319
L 3494 3319
L 3475 4224
L 77 4224
L 77 4102
C 550 4064 634 3975 634 3528
L 634 695
C 634 249 544 153 77 121
L 77 0
L 3533 0
L 3821 1087
z
" transform="scale(0.015625)"/>
      <path id="NimbusRomNo9L-Regu-2" d="M 198 2668
L 634 2668
L 634 601
C 634 192 563 108 205 96
L 205 0
L 1613 0
L 1613 96
C 1254 121 1171 211 1171 563
L 1171 2668
L 1722 2668
C 2336 2668 2368 2649 2368 2310
L 2368 620
C 2368 185 2323 128 1926 96
L 1926 0
L 3334 0
L 3334 96
C 2976 128 2906 211 2906 620
L 2906 2297
C 2906 2438 2906 2585 2918 2924
L 2893 2944
C 2611 2898 2426 2880 2170 2880
L 1165 2880
L 1165 3151
C 1165 3428 1184 3624 1216 3731
C 1306 4002 1555 4191 1843 4191
C 2022 4191 2144 4109 2298 3895
C 2419 3725 2502 3662 2611 3662
C 2746 3662 2842 3769 2842 3908
C 2842 4173 2522 4352 2029 4352
C 1542 4352 1171 4185 941 3876
C 749 3617 678 3384 640 2880
L 198 2880
L 198 2668
z
" transform="scale(0.015625)"/>
     </defs>
     <use xlink:href="#NimbusRomNo9L-Regu-45" transform="scale(0.996264)"/>
     <use xlink:href="#NimbusRomNo9L-Regu-76" transform="translate(60.871631 0) scale(0.996264)"/>
     <use xlink:href="#NimbusRomNo9L-Regu-65" transform="translate(109.191438 0) scale(0.996264)"/>
     <use xlink:href="#NimbusRomNo9L-Regu-6e" transform="translate(153.425007 0) scale(0.996264)"/>
     <use xlink:href="#NimbusRomNo9L-Regu-2d" transform="translate(203.238208 0) scale(0.996264)"/>
     <use xlink:href="#NimbusRomNo9L-Regu-6f" transform="translate(236.413437 0) scale(0.996264)"/>
     <use xlink:href="#NimbusRomNo9L-Regu-72" transform="translate(286.226638 0) scale(0.996264)"/>
     <use xlink:href="#NimbusRomNo9L-Regu-64" transform="translate(319.401868 0) scale(0.996264)"/>
     <use xlink:href="#NimbusRomNo9L-Regu-65" transform="translate(369.215068 0) scale(0.996264)"/>
     <use xlink:href="#NimbusRomNo9L-Regu-72" transform="translate(413.448637 0) scale(0.996264)"/>
     <use xlink:href="#NimbusRomNo9L-Regu-63" transform="translate(471.530467 0) scale(0.996264)"/>
     <use xlink:href="#NimbusRomNo9L-Regu-6f" transform="translate(515.764036 0) scale(0.996264)"/>
     <use xlink:href="#NimbusRomNo9L-Regu-65" transform="translate(565.577236 0) scale(0.996264)"/>
     <use xlink:href="#NimbusRomNo9L-Regu-66" transform="translate(609.810805 0) scale(0.996264)"/>
     <use xlink:href="#NimbusRomNo9L-Regu-2" transform="translate(640.495405 0) scale(0.996264)"/>
     <use xlink:href="#NimbusRomNo9L-Regu-63" transform="translate(695.886991 0) scale(0.996264)"/>
     <use xlink:href="#NimbusRomNo9L-Regu-69" transform="translate(740.120559 0) scale(0.996264)"/>
     <use xlink:href="#NimbusRomNo9L-Regu-65" transform="translate(767.815729 0) scale(0.996264)"/>
     <use xlink:href="#NimbusRomNo9L-Regu-6e" transform="translate(812.049298 0) scale(0.996264)"/>
     <use xlink:href="#NimbusRomNo9L-Regu-74" transform="translate(861.862498 0) scale(0.996264)"/>
     <use xlink:href="#NimbusRomNo9L-Regu-73" transform="translate(889.557668 0) scale(0.996264)"/>
    </g>
    <!-- $A_{4,m},\ldots,A_{20,m}$ -->
    <g style="fill: #007c83" transform="translate(533.607497 80.726554) scale(0.15 -0.15)">
     <defs>
      <path id="NimbusRomNo9L-ReguItal-41" d="M 3610 102
C 3245 134 3206 185 3123 647
L 2522 4288
L 2355 4288
L 499 1066
C -7 223 -71 153 -327 102
L -327 0
L 870 0
L 870 102
C 544 134 493 166 493 324
C 493 444 512 501 621 717
L 986 1433
L 2394 1433
L 2522 603
C 2528 546 2534 489 2534 438
C 2534 197 2445 140 2035 102
L 2035 0
L 3610 0
L 3610 102
z
M 1120 1664
L 2080 3345
L 2362 1664
L 1120 1664
z
" transform="scale(0.015625)"/>
      <path id="NimbusRomNo9L-Regu-34" d="M 3021 1497
L 2368 1497
L 2368 4352
L 2086 4352
L 77 1497
L 77 1088
L 1875 1088
L 1875 0
L 2368 0
L 2368 1088
L 3021 1088
L 3021 1497
z
M 1869 1497
L 333 1497
L 1869 3697
L 1869 1497
z
" transform="scale(0.015625)"/>
      <path id="CMMI10-3b" d="M 1299 6
C 1299 428 1139 678 890 678
C 678 678 550 518 550 339
C 550 166 678 0 890 0
C 966 0 1050 25 1114 83
C 1133 96 1139 102 1146 102
C 1152 102 1158 96 1158 6
C 1158 -460 934 -837 723 -1044
C 653 -1114 653 -1127 653 -1146
C 653 -1191 685 -1216 717 -1216
C 787 -1216 1299 -730 1299 6
z
" transform="scale(0.015625)"/>
      <path id="CMMI10-3a" d="M 1229 339
C 1229 524 1075 678 890 678
C 704 678 550 524 550 339
C 550 153 704 0 890 0
C 1075 0 1229 153 1229 339
z
" transform="scale(0.015625)"/>
      <path id="NimbusRomNo9L-Regu-32" d="M 3040 879
L 2957 912
C 2720 544 2637 486 2349 486
L 819 486
L 1894 1621
C 2464 2221 2714 2711 2714 3214
C 2714 3858 2195 4352 1530 4352
C 1178 4352 845 4211 608 3955
C 403 3736 307 3530 198 3072
L 333 3039
C 589 3671 819 3878 1261 3878
C 1798 3878 2163 3510 2163 2969
C 2163 2466 1869 1866 1331 1292
L 192 76
L 192 0
L 2688 0
L 3040 879
z
" transform="scale(0.015625)"/>
      <path id="NimbusRomNo9L-Regu-30" d="M 1626 4352
C 1274 4352 1005 4243 768 4019
C 397 3661 154 2924 154 2176
C 154 1478 365 729 666 371
C 902 89 1229 -64 1600 -64
C 1926 -64 2202 44 2432 268
C 2803 620 3046 1363 3046 2137
C 3046 3449 2464 4352 1626 4352
z
M 1606 4185
C 2144 4185 2432 3462 2432 2124
C 2432 787 2150 102 1600 102
C 1050 102 768 787 768 2118
C 768 3475 1056 4185 1606 4185
z
" transform="scale(0.015625)"/>
     </defs>
     <use xlink:href="#NimbusRomNo9L-ReguItal-41" transform="scale(0.996264)"/>
     <use xlink:href="#NimbusRomNo9L-Regu-34" transform="translate(60.871631 -15.050129) scale(0.737241)"/>
     <use xlink:href="#CMMI10-3b" transform="translate(97.733673 -15.050129) scale(0.737241)"/>
     <use xlink:href="#NimbusRomNo9L-ReguItal-6d" transform="translate(118.154501 -15.050129) scale(0.737241)"/>
     <use xlink:href="#CMMI10-3b" transform="translate(171.881218 0) scale(0.996264)"/>
     <use xlink:href="#CMMI10-3a" transform="translate(210.546297 0) scale(0.996264)"/>
     <use xlink:href="#CMMI10-3a" transform="translate(249.211377 0) scale(0.996264)"/>
     <use xlink:href="#CMMI10-3a" transform="translate(287.876457 0) scale(0.996264)"/>
     <use xlink:href="#CMMI10-3b" transform="translate(326.541537 0) scale(0.996264)"/>
     <use xlink:href="#NimbusRomNo9L-ReguItal-41" transform="translate(365.206617 0) scale(0.996264)"/>
     <use xlink:href="#NimbusRomNo9L-Regu-32" transform="translate(426.078247 -15.050129) scale(0.737241)"/>
     <use xlink:href="#NimbusRomNo9L-Regu-30" transform="translate(462.940289 -15.050129) scale(0.737241)"/>
     <use xlink:href="#CMMI10-3b" transform="translate(499.802331 -15.050129) scale(0.737241)"/>
     <use xlink:href="#NimbusRomNo9L-ReguItal-6d" transform="translate(520.223159 -15.050129) scale(0.737241)"/>
    </g>
   </g>
   <g id="patch_22">
    <path d="M 698.068299 340.310065
Q 672.242003 318.663656 647.658158 298.058613
" style="fill: none; stroke: #007c83; stroke-width: 1.45; stroke-linecap: round"/>
    <path d="M 650.329479 304.21199
L 647.658158 298.058613
L 654.183652 299.613582
" style="fill: none; stroke: #007c83; stroke-width: 1.45; stroke-linecap: round"/>
   </g>
   <g id="text_8">
    <g id="patch_23">
     <path d="M 675.919723 362.960419
L 749.368564 362.960419
Q 753.118564 362.960419 753.118564 359.210419
L 753.118564 345.84331
Q 753.118564 342.09331 749.368564 342.09331
L 675.919723 342.09331
Q 672.169723 342.09331 672.169723 345.84331
L 672.169723 359.210419
Q 672.169723 362.960419 675.919723 362.960419
z
" style="fill: #ffffff; opacity: 0.96; stroke: #007c83; stroke-linejoin: miter"/>
    </g>
    <!-- Image plane -->
    <g style="fill: #007c83" transform="translate(675.919723 355.975176) scale(0.15 -0.15)">
     <defs>
      <path id="NimbusRomNo9L-Regu-49" d="M 736 695
C 736 217 653 140 115 121
L 115 0
L 2016 0
L 2016 121
C 1491 140 1389 230 1389 695
L 1389 3528
C 1389 3994 1478 4077 2016 4102
L 2016 4224
L 115 4224
L 115 4102
C 659 4070 736 4000 736 3528
L 736 695
z
" transform="scale(0.015625)"/>
      <path id="NimbusRomNo9L-Regu-67" d="M 3008 2438
L 3008 2688
L 2515 2688
C 2387 2688 2291 2734 2163 2796
L 2022 2847
C 1850 2911 1677 2944 1510 2944
C 915 2944 442 2438 442 1877
C 442 1489 614 1255 1037 1049
C 915 934 800 826 762 794
C 550 610 467 483 467 356
C 467 223 544 147 806 19
C 352 -316 179 -529 179 -767
C 179 -1108 678 -1389 1286 -1389
C 1766 -1389 2266 -1223 2598 -954
C 2842 -754 2950 -548 2950 -303
C 2950 96 2650 363 2176 382
L 1350 420
C 1011 432 851 490 851 591
C 851 718 1062 941 1235 992
C 1293 985 1338 979 1357 979
C 1478 966 1562 960 1600 960
C 1837 960 2093 1056 2291 1224
C 2502 1397 2598 1612 2598 1920
C 2598 2099 2566 2241 2477 2438
L 3008 2438
z
M 941 0
C 1152 -46 1664 -84 1978 -84
C 2560 -84 2771 -168 2771 -400
C 2771 -773 2285 -1024 1562 -1024
C 998 -1024 627 -838 627 -554
C 627 -406 672 -322 941 0
z
M 973 2130
C 973 2495 1152 2764 1446 2764
C 1645 2764 1811 2611 1914 2419
C 2029 2204 2106 1920 2106 1680
C 2106 1335 1920 1120 1626 1120
C 1242 1120 973 1520 973 2111
L 973 2130
z
" transform="scale(0.015625)"/>
     </defs>
     <use xlink:href="#NimbusRomNo9L-Regu-49" transform="scale(0.996264)"/>
     <use xlink:href="#NimbusRomNo9L-Regu-6d" transform="translate(33.17523 0) scale(0.996264)"/>
     <use xlink:href="#NimbusRomNo9L-Regu-61" transform="translate(110.6836 0) scale(0.996264)"/>
     <use xlink:href="#NimbusRomNo9L-Regu-67" transform="translate(154.917169 0) scale(0.996264)"/>
     <use xlink:href="#NimbusRomNo9L-Regu-65" transform="translate(204.730369 0) scale(0.996264)"/>
     <use xlink:href="#NimbusRomNo9L-Regu-70" transform="translate(273.870538 0) scale(0.996264)"/>
     <use xlink:href="#NimbusRomNo9L-Regu-6c" transform="translate(323.683738 0) scale(0.996264)"/>
     <use xlink:href="#NimbusRomNo9L-Regu-61" transform="translate(351.378908 0) scale(0.996264)"/>
     <use xlink:href="#NimbusRomNo9L-Regu-6e" transform="translate(395.612477 0) scale(0.996264)"/>
     <use xlink:href="#NimbusRomNo9L-Regu-65" transform="translate(445.425677 0) scale(0.996264)"/>
    </g>
   </g>
  </g>
 </g>
 <defs>
  <clipPath id="p30f93b4284">
   <rect x="81.295789" y="13.068" width="687.008421" height="409.464"/>
  </clipPath>
 </defs>
</svg>
