<?xml version="1.0" encoding="utf-8" standalone="no"?>
<!DOCTYPE svg PUBLIC "-//W3C//DTD SVG 1.1//EN"
  "http://www.w3.org/Graphics/SVG/1.1/DTD/svg11.dtd">
<svg xmlns:xlink="http://www.w3.org/1999/xlink" width="849.6pt" height="403.2pt" viewBox="0 0 849.6 403.2" xmlns="http://www.w3.org/2000/svg" version="1.1">
 <title>LensGen Figure 2 patent lens parameter diagram</title>
 <metadata>
  <rdf:RDF xmlns:dc="http://purl.org/dc/elements/1.1/" xmlns:cc="http://creativecommons.org/ns#" xmlns:rdf="http://www.w3.org/1999/02/22-rdf-syntax-ns#">
   <cc:Work>
    <dc:type rdf:resource="http://purl.org/dc/dcmitype/StillImage"/>
    <dc:title>LensGen Figure 2 patent lens parameter diagram</dc:title>
    <dc:date>2026-07-13</dc:date>
    <dc:format>image/svg+xml</dc:format>
    <dc:creator>
     <cc:Agent>
      <dc:title>LensGen</dc:title>
     </cc:Agent>
    </dc:creator>
   </cc:Work>
  </rdf:RDF>
 </metadata>
 <defs>
  <style type="text/css">*{stroke-linejoin: round; stroke-linecap: butt}</style>
 </defs>
 <g id="figure_1">
  <g id="patch_1">
   <path d="M 0 403.2
L 849.6 403.2
L 849.6 0
L 0 0
z
" style="fill: #ffffff"/>
  </g>
  <g id="axes_1">
   <g id="line2d_1">
    <path d="M 20.841655 201.6
L 828.758345 201.6
" clip-path="url(#p9df24e51d1)" style="fill: none; stroke: #aab2bd; stroke-width: 0.8; stroke-linecap: square"/>
   </g>
   <g id="patch_2">
    <path d="M 243.834645 67.450373
L 243.834645 74.510879
L 244.355047 77.078336
L 244.864406 79.645793
L 245.362749 82.21325
L 245.850103 84.780707
L 246.326493 87.348164
L 246.791945 89.915621
L 247.246483 92.483078
L 247.69013 95.050535
L 248.122911 97.617992
L 248.544847 100.185449
L 248.955961 102.752906
L 249.356274 105.320363
L 249.745806 107.88782
L 250.124578 110.455277
L 250.492609 113.022734
L 250.849919 115.590191
L 251.196525 118.157648
L 251.532444 120.725105
L 251.857696 123.292562
L 252.172295 125.860019
L 252.476257 128.427476
L 252.7696 130.994933
L 253.052336 133.56239
L 253.32448 136.129847
L 253.586047 138.697304
L 253.837048 141.264761
L 254.077498 143.832218
L 254.307408 146.399675
L 254.526789 148.967132
L 254.735652 151.534589
L 254.934008 154.102046
L 255.121867 156.669503
L 255.299238 159.23696
L 255.46613 161.804417
L 255.622552 164.371874
L 255.76851 166.939331
L 255.904012 169.506788
L 256.029066 172.074245
L 256.143676 174.641702
L 256.24785 177.209159
L 256.341591 179.776616
L 256.424906 182.344073
L 256.497796 184.91153
L 256.560268 187.478987
L 256.612322 190.046444
L 256.653963 192.613901
L 256.685191 195.181358
L 256.70601 197.748815
L 256.716419 200.316272
L 256.716419 202.883728
L 256.70601 205.451185
L 256.685191 208.018642
L 256.653963 210.586099
L 256.612322 213.153556
L 256.560268 215.721013
L 256.497796 218.28847
L 256.424906 220.855927
L 256.341591 223.423384
L 256.24785 225.990841
L 256.143676 228.558298
L 256.029066 231.125755
L 255.904012 233.693212
L 255.76851 236.260669
L 255.622552 238.828126
L 255.46613 241.395583
L 255.299238 243.96304
L 255.121867 246.530497
L 254.934008 249.097954
L 254.735652 251.665411
L 254.526789 254.232868
L 254.307408 256.800325
L 254.077498 259.367782
L 253.837048 261.935239
L 253.586047 264.502696
L 253.32448 267.070153
L 253.052336 269.63761
L 252.7696 272.205067
L 252.476257 274.772524
L 252.172295 277.339981
L 251.857696 279.907438
L 251.532444 282.474895
L 251.196525 285.042352
L 250.849919 287.609809
L 250.492609 290.177266
L 250.124578 292.744723
L 249.745806 295.31218
L 249.356274 297.879637
L 248.955961 300.447094
L 248.544847 303.014551
L 248.122911 305.582008
L 247.69013 308.149465
L 247.246483 310.716922
L 246.791945 313.284379
L 246.326493 315.851836
L 245.850103 318.419293
L 245.362749 320.98675
L 244.864406 323.554207
L 244.355047 326.121664
L 243.834645 328.689121
L 243.834645 335.749627
L 273.559474 335.749627
L 274.819265 333.039534
L 276.047995 330.32944
L 277.24606 327.619347
L 278.41384 324.909253
L 279.551699 322.19916
L 280.659987 319.489067
L 281.739039 316.778973
L 282.789178 314.06888
L 283.810711 311.358786
L 284.803934 308.648693
L 285.769131 305.938599
L 286.706575 303.228506
L 287.616526 300.518412
L 288.499234 297.808319
L 289.35494 295.098225
L 290.183872 292.388132
L 290.986252 289.678038
L 291.76229 286.967945
L 292.512187 284.257851
L 293.236137 281.547758
L 293.934324 278.837664
L 294.606925 276.127571
L 295.254107 273.417477
L 295.876031 270.707384
L 296.472851 267.99729
L 297.044712 265.287197
L 297.591753 262.577103
L 298.114105 259.86701
L 298.611893 257.156916
L 299.085234 254.446823
L 299.534242 251.736729
L 299.95902 249.026636
L 300.359668 246.316542
L 300.736279 243.606449
L 301.08894 240.896356
L 301.417731 238.186262
L 301.722729 235.476169
L 302.004001 232.766075
L 302.261613 230.055982
L 302.495622 227.345888
L 302.706081 224.635795
L 302.893037 221.925701
L 303.056533 219.215608
L 303.196604 216.505514
L 303.313283 213.795421
L 303.406595 211.085327
L 303.476561 208.375234
L 303.523196 205.66514
L 303.546511 202.955047
L 303.546511 200.244953
L 303.523196 197.53486
L 303.476561 194.824766
L 303.406595 192.114673
L 303.313283 189.404579
L 303.196604 186.694486
L 303.056533 183.984392
L 302.893037 181.274299
L 302.706081 178.564205
L 302.495622 175.854112
L 302.261613 173.144018
L 302.004001 170.433925
L 301.722729 167.723831
L 301.417731 165.013738
L 301.08894 162.303644
L 300.736279 159.593551
L 300.359668 156.883458
L 299.95902 154.173364
L 299.534242 151.463271
L 299.085234 148.753177
L 298.611893 146.043084
L 298.114105 143.33299
L 297.591753 140.622897
L 297.044712 137.912803
L 296.472851 135.20271
L 295.876031 132.492616
L 295.254107 129.782523
L 294.606925 127.072429
L 293.934324 124.362336
L 293.236137 121.652242
L 292.512187 118.942149
L 291.76229 116.232055
L 290.986252 113.521962
L 290.183872 110.811868
L 289.35494 108.101775
L 288.499234 105.391681
L 287.616526 102.681588
L 286.706575 99.971494
L 285.769131 97.261401
L 284.803934 94.551307
L 283.810711 91.841214
L 282.789178 89.13112
L 281.739039 86.421027
L 280.659987 83.710933
L 279.551699 81.00084
L 278.41384 78.290747
L 277.24606 75.580653
L 276.047995 72.87056
L 274.819265 70.160466
L 273.559474 67.450373
z
" clip-path="url(#p9df24e51d1)" style="fill: #7678ed; opacity: 0.42"/>
   </g>
   <g id="patch_3">
    <path d="M 301.674946 46.268852
L 301.674946 60.389866
L 301.881697 63.242596
L 302.084949 66.095326
L 302.28466 68.948056
L 302.480792 71.800786
L 302.673303 74.653516
L 302.862157 77.506246
L 303.047313 80.358976
L 303.228735 83.211706
L 303.406386 86.064436
L 303.580228 88.917166
L 303.750226 91.769896
L 303.916345 94.622626
L 304.07855 97.475356
L 304.236807 100.328086
L 304.391083 103.180816
L 304.541345 106.033546
L 304.687561 108.886276
L 304.8297 111.739006
L 304.967731 114.591736
L 305.101624 117.444466
L 305.23135 120.297196
L 305.35688 123.149925
L 305.478187 126.002655
L 305.595244 128.855385
L 305.708023 131.708115
L 305.816501 134.560845
L 305.920653 137.413575
L 306.020453 140.266305
L 306.115881 143.119035
L 306.206913 145.971765
L 306.293529 148.824495
L 306.375708 151.677225
L 306.453431 154.529955
L 306.52668 157.382685
L 306.595437 160.235415
L 306.659686 163.088145
L 306.719411 165.940875
L 306.774598 168.793605
L 306.825234 171.646335
L 306.871306 174.499065
L 306.912803 177.351795
L 306.949716 180.204525
L 306.982034 183.057255
L 307.00975 185.909985
L 307.032857 188.762715
L 307.05135 191.615445
L 307.065223 194.468175
L 307.074474 197.320905
L 307.0791 200.173635
L 307.0791 203.026365
L 307.074474 205.879095
L 307.065223 208.731825
L 307.05135 211.584555
L 307.032857 214.437285
L 307.00975 217.290015
L 306.982034 220.142745
L 306.949716 222.995475
L 306.912803 225.848205
L 306.871306 228.700935
L 306.825234 231.553665
L 306.774598 234.406395
L 306.719411 237.259125
L 306.659686 240.111855
L 306.595437 242.964585
L 306.52668 245.817315
L 306.453431 248.670045
L 306.375708 251.522775
L 306.293529 254.375505
L 306.206913 257.228235
L 306.115881 260.080965
L 306.020453 262.933695
L 305.920653 265.786425
L 305.816501 268.639155
L 305.708023 271.491885
L 305.595244 274.344615
L 305.478187 277.197345
L 305.35688 280.050075
L 305.23135 282.902804
L 305.101624 285.755534
L 304.967731 288.608264
L 304.8297 291.460994
L 304.687561 294.313724
L 304.541345 297.166454
L 304.391083 300.019184
L 304.236807 302.871914
L 304.07855 305.724644
L 303.916345 308.577374
L 303.750226 311.430104
L 303.580228 314.282834
L 303.406386 317.135564
L 303.228735 319.988294
L 303.047313 322.841024
L 302.862157 325.693754
L 302.673303 328.546484
L 302.480792 331.399214
L 302.28466 334.251944
L 302.084949 337.104674
L 301.881697 339.957404
L 301.674946 342.810134
L 301.674946 356.931148
L 347.271227 356.931148
L 347.721188 353.793145
L 348.169763 350.655142
L 348.616903 347.517139
L 349.062555 344.379136
L 349.506662 341.241133
L 349.949158 338.10313
L 350.389974 334.965127
L 350.829034 331.827124
L 351.266253 328.689121
L 351.701538 325.551118
L 352.134788 322.413115
L 352.565892 319.275112
L 352.994728 316.137109
L 353.421163 312.999106
L 353.84505 309.861103
L 354.266228 306.7231
L 354.68452 303.585097
L 355.099735 300.447094
L 355.511658 297.309091
L 355.920058 294.171088
L 356.324678 291.033085
L 356.725237 287.895082
L 357.121427 284.757079
L 357.512909 281.619076
L 357.89931 278.481073
L 358.280221 275.34307
L 358.655191 272.205067
L 359.023727 269.067064
L 359.385286 265.929061
L 359.739274 262.791058
L 360.08504 259.653055
L 360.421872 256.515052
L 360.748996 253.377049
L 361.065567 250.239046
L 361.370675 247.101043
L 361.663335 243.96304
L 361.942496 240.825037
L 362.207039 237.687034
L 362.455787 234.549031
L 362.687515 231.411028
L 362.900962 228.273025
L 363.094856 225.135022
L 363.267935 221.997019
L 363.418981 218.859016
L 363.546848 215.721013
L 363.650508 212.58301
L 363.729078 209.445007
L 363.781862 206.307004
L 363.808377 203.169001
L 363.808377 200.030999
L 363.781862 196.892996
L 363.729078 193.754993
L 363.650508 190.61699
L 363.546848 187.478987
L 363.418981 184.340984
L 363.267935 181.202981
L 363.094856 178.064978
L 362.900962 174.926975
L 362.687515 171.788972
L 362.455787 168.650969
L 362.207039 165.512966
L 361.942496 162.374963
L 361.663335 159.23696
L 361.370675 156.098957
L 361.065567 152.960954
L 360.748996 149.822951
L 360.421872 146.684948
L 360.08504 143.546945
L 359.739274 140.408942
L 359.385286 137.270939
L 359.023727 134.132936
L 358.655191 130.994933
L 358.280221 127.85693
L 357.89931 124.718927
L 357.512909 121.580924
L 357.121427 118.442921
L 356.725237 115.304918
L 356.324678 112.166915
L 355.920058 109.028912
L 355.511658 105.890909
L 355.099735 102.752906
L 354.68452 99.614903
L 354.266228 96.4769
L 353.84505 93.338897
L 353.421163 90.200894
L 352.994728 87.062891
L 352.565892 83.924888
L 352.134788 80.786885
L 351.701538 77.648882
L 351.266253 74.510879
L 350.829034 71.372876
L 350.389974 68.234873
L 349.949158 65.09687
L 349.506662 61.958867
L 349.062555 58.820864
L 348.616903 55.682861
L 348.169763 52.544858
L 347.721188 49.406855
L 347.271227 46.268852
z
" clip-path="url(#p9df24e51d1)" style="fill: #7678ed; opacity: 0.42"/>
   </g>
   <g id="patch_4">
    <path d="M 372.722512 46.268852
L 372.722512 46.268852
L 372.568447 49.406855
L 372.41497 52.544858
L 372.262109 55.682861
L 372.109896 58.820864
L 371.958363 61.958867
L 371.807546 65.09687
L 371.657484 68.234873
L 371.508217 71.372876
L 371.35979 74.510879
L 371.21225 77.648882
L 371.065648 80.786885
L 370.920037 83.924888
L 370.775477 87.062891
L 370.632031 90.200894
L 370.489766 93.338897
L 370.348755 96.4769
L 370.209076 99.614903
L 370.070814 102.752906
L 369.934059 105.890909
L 369.798908 109.028912
L 369.665466 112.166915
L 369.533846 115.304918
L 369.404168 118.442921
L 369.276562 121.580924
L 369.151169 124.718927
L 369.028137 127.85693
L 368.907626 130.994933
L 368.789807 134.132936
L 368.674864 137.270939
L 368.56299 140.408942
L 368.454391 143.546945
L 368.349286 146.684948
L 368.247904 149.822951
L 368.150488 152.960954
L 368.057288 156.098957
L 367.968567 159.23696
L 367.884593 162.374963
L 367.805641 165.512966
L 367.731989 168.650969
L 367.663916 171.788972
L 367.601695 174.926975
L 367.545594 178.064978
L 367.495868 181.202981
L 367.452754 184.340984
L 367.416467 187.478987
L 367.387197 190.61699
L 367.365101 193.754993
L 367.3503 196.892996
L 367.342879 200.030999
L 367.342879 203.169001
L 367.3503 206.307004
L 367.365101 209.445007
L 367.387197 212.58301
L 367.416467 215.721013
L 367.452754 218.859016
L 367.495868 221.997019
L 367.545594 225.135022
L 367.601695 228.273025
L 367.663916 231.411028
L 367.731989 234.549031
L 367.805641 237.687034
L 367.884593 240.825037
L 367.968567 243.96304
L 368.057288 247.101043
L 368.150488 250.239046
L 368.247904 253.377049
L 368.349286 256.515052
L 368.454391 259.653055
L 368.56299 262.791058
L 368.674864 265.929061
L 368.789807 269.067064
L 368.907626 272.205067
L 369.028137 275.34307
L 369.151169 278.481073
L 369.276562 281.619076
L 369.404168 284.757079
L 369.533846 287.895082
L 369.665466 291.033085
L 369.798908 294.171088
L 369.934059 297.309091
L 370.070814 300.447094
L 370.209076 303.585097
L 370.348755 306.7231
L 370.489766 309.861103
L 370.632031 312.999106
L 370.775477 316.137109
L 370.920037 319.275112
L 371.065648 322.413115
L 371.21225 325.551118
L 371.35979 328.689121
L 371.508217 331.827124
L 371.657484 334.965127
L 371.807546 338.10313
L 371.958363 341.241133
L 372.109896 344.379136
L 372.262109 347.517139
L 372.41497 350.655142
L 372.568447 353.793145
L 372.722512 356.931148
L 372.722512 356.931148
L 450.239869 356.931148
L 451.436328 353.793145
L 452.631605 350.655142
L 453.825627 347.517139
L 455.018317 344.379136
L 456.209594 341.241133
L 457.399365 338.10313
L 458.587533 334.965127
L 459.773991 331.827124
L 460.958622 328.689121
L 462.141298 325.551118
L 463.321881 322.413115
L 464.500216 319.275112
L 465.676135 316.137109
L 466.849454 312.999106
L 468.019966 309.861103
L 469.187446 306.7231
L 470.351642 303.585097
L 471.512275 300.447094
L 472.669034 297.309091
L 473.821571 294.171088
L 474.969496 291.033085
L 476.112374 287.895082
L 477.249712 284.757079
L 478.380954 281.619076
L 479.505471 278.481073
L 480.622548 275.34307
L 481.731371 272.205067
L 482.831009 269.067064
L 483.920397 265.929061
L 484.998307 262.791058
L 486.063327 259.653055
L 487.113821 256.515052
L 488.147894 253.377049
L 489.163344 250.239046
L 490.157609 247.101043
L 491.127703 243.96304
L 492.070147 240.825037
L 492.980891 237.687034
L 493.855237 234.549031
L 494.687757 231.411028
L 495.472239 228.273025
L 496.20165 225.135022
L 496.868173 221.997019
L 497.463318 218.859016
L 497.978175 215.721013
L 498.403806 212.58301
L 498.7318 209.445007
L 498.954946 206.307004
L 499.067932 203.169001
L 499.067932 200.030999
L 498.954946 196.892996
L 498.7318 193.754993
L 498.403806 190.61699
L 497.978175 187.478987
L 497.463318 184.340984
L 496.868173 181.202981
L 496.20165 178.064978
L 495.472239 174.926975
L 494.687757 171.788972
L 493.855237 168.650969
L 492.980891 165.512966
L 492.070147 162.374963
L 491.127703 159.23696
L 490.157609 156.098957
L 489.163344 152.960954
L 488.147894 149.822951
L 487.113821 146.684948
L 486.063327 143.546945
L 484.998307 140.408942
L 483.920397 137.270939
L 482.831009 134.132936
L 481.731371 130.994933
L 480.622548 127.85693
L 479.505471 124.718927
L 478.380954 121.580924
L 477.249712 118.442921
L 476.112374 115.304918
L 474.969496 112.166915
L 473.821571 109.028912
L 472.669034 105.890909
L 471.512275 102.752906
L 470.351642 99.614903
L 469.187446 96.4769
L 468.019966 93.338897
L 466.849454 90.200894
L 465.676135 87.062891
L 464.500216 83.924888
L 463.321881 80.786885
L 462.141298 77.648882
L 460.958622 74.510879
L 459.773991 71.372876
L 458.587533 68.234873
L 457.399365 65.09687
L 456.209594 61.958867
L 455.018317 58.820864
L 453.825627 55.682861
L 452.631605 52.544858
L 451.436328 49.406855
L 450.239869 46.268852
z
" clip-path="url(#p9df24e51d1)" style="fill: #7678ed; opacity: 0.42"/>
   </g>
   <g id="patch_5">
    <path d="M 492.958641 60.389866
L 493.3202 63.242596
L 493.674163 66.095326
L 494.020544 68.948056
L 494.359357 71.800786
L 494.690615 74.653516
L 495.014332 77.506246
L 495.330519 80.358976
L 495.63919 83.211706
L 495.940355 86.064436
L 496.234027 88.917166
L 496.520217 91.769896
L 496.798936 94.622626
L 497.070194 97.475356
L 497.334002 100.328086
L 497.59037 103.180816
L 497.839307 106.033546
L 498.080824 108.886276
L 498.314928 111.739006
L 498.541629 114.591736
L 498.760936 117.444466
L 498.972856 120.297196
L 499.177397 123.149925
L 499.374568 126.002655
L 499.564374 128.855385
L 499.746824 131.708115
L 499.921924 134.560845
L 500.089681 137.413575
L 500.2501 140.266305
L 500.403187 143.119035
L 500.548949 145.971765
L 500.68739 148.824495
L 500.818515 151.677225
L 500.942329 154.529955
L 501.058838 157.382685
L 501.168044 160.235415
L 501.269952 163.088145
L 501.364566 165.940875
L 501.451888 168.793605
L 501.531923 171.646335
L 501.604672 174.499065
L 501.67014 177.351795
L 501.728327 180.204525
L 501.779236 183.057255
L 501.822869 185.909985
L 501.859228 188.762715
L 501.888313 191.615445
L 501.910126 194.468175
L 501.924667 197.320905
L 501.931938 200.173635
L 501.931938 203.026365
L 501.924667 205.879095
L 501.910126 208.731825
L 501.888313 211.584555
L 501.859228 214.437285
L 501.822869 217.290015
L 501.779236 220.142745
L 501.728327 222.995475
L 501.67014 225.848205
L 501.604672 228.700935
L 501.531923 231.553665
L 501.451888 234.406395
L 501.364566 237.259125
L 501.269952 240.111855
L 501.168044 242.964585
L 501.058838 245.817315
L 500.942329 248.670045
L 500.818515 251.522775
L 500.68739 254.375505
L 500.548949 257.228235
L 500.403187 260.080965
L 500.2501 262.933695
L 500.089681 265.786425
L 499.921924 268.639155
L 499.746824 271.491885
L 499.564374 274.344615
L 499.374568 277.197345
L 499.177397 280.050075
L 498.972856 282.902804
L 498.760936 285.755534
L 498.541629 288.608264
L 498.314928 291.460994
L 498.080824 294.313724
L 497.839307 297.166454
L 497.59037 300.019184
L 497.334002 302.871914
L 497.070194 305.724644
L 496.798936 308.577374
L 496.520217 311.430104
L 496.234027 314.282834
L 495.940355 317.135564
L 495.63919 319.988294
L 495.330519 322.841024
L 495.014332 325.693754
L 494.690615 328.546484
L 494.359357 331.399214
L 494.020544 334.251944
L 493.674163 337.104674
L 493.3202 339.957404
L 492.958641 342.810134
L 595.143881 342.810134
L 595.143881 328.689121
L 594.155005 326.121664
L 593.166867 323.554207
L 592.179513 320.98675
L 591.192991 318.419293
L 590.207354 315.851836
L 589.22266 313.284379
L 588.238971 310.716922
L 587.256355 308.149465
L 586.274887 305.582008
L 585.294647 303.014551
L 584.315726 300.447094
L 583.338221 297.879637
L 582.36224 295.31218
L 581.387902 292.744723
L 580.415339 290.177266
L 579.444698 287.609809
L 578.476141 285.042352
L 577.50985 282.474895
L 576.546027 279.907438
L 575.5849 277.339981
L 574.626724 274.772524
L 573.671789 272.205067
L 572.72042 269.63761
L 571.77299 267.070153
L 570.829919 264.502696
L 569.891692 261.935239
L 568.958862 259.367782
L 568.03207 256.800325
L 567.112055 254.232868
L 566.199674 251.665411
L 565.29593 249.097954
L 564.401996 246.530497
L 563.51925 243.96304
L 562.649321 241.395583
L 561.794138 238.828126
L 560.955994 236.260669
L 560.137622 233.693212
L 559.342286 231.125755
L 558.57388 228.558298
L 557.83705 225.990841
L 557.137307 223.423384
L 556.481134 220.855927
L 555.876053 218.28847
L 555.330608 215.721013
L 554.854202 213.153556
L 554.456724 210.586099
L 554.147906 208.018642
L 553.936429 205.451185
L 553.828899 202.883728
L 553.828899 200.316272
L 553.936429 197.748815
L 554.147906 195.181358
L 554.456724 192.613901
L 554.854202 190.046444
L 555.330608 187.478987
L 555.876053 184.91153
L 556.481134 182.344073
L 557.137307 179.776616
L 557.83705 177.209159
L 558.57388 174.641702
L 559.342286 172.074245
L 560.137622 169.506788
L 560.955994 166.939331
L 561.794138 164.371874
L 562.649321 161.804417
L 563.51925 159.23696
L 564.401996 156.669503
L 565.29593 154.102046
L 566.199674 151.534589
L 567.112055 148.967132
L 568.03207 146.399675
L 568.958862 143.832218
L 569.891692 141.264761
L 570.829919 138.697304
L 571.77299 136.129847
L 572.72042 133.56239
L 573.671789 130.994933
L 574.626724 128.427476
L 575.5849 125.860019
L 576.546027 123.292562
L 577.50985 120.725105
L 578.476141 118.157648
L 579.444698 115.590191
L 580.415339 113.022734
L 581.387902 110.455277
L 582.36224 107.88782
L 583.338221 105.320363
L 584.315726 102.752906
L 585.294647 100.185449
L 586.274887 97.617992
L 587.256355 95.050535
L 588.238971 92.483078
L 589.22266 89.915621
L 590.207354 87.348164
L 591.192991 84.780707
L 592.179513 82.21325
L 593.166867 79.645793
L 594.155005 77.078336
L 595.143881 74.510879
L 595.143881 60.389866
z
" clip-path="url(#p9df24e51d1)" style="fill: #7678ed; opacity: 0.42"/>
   </g>
   <g id="line2d_2"/>
   <g id="line2d_3">
    <path d="M 108.447079 243.96304
L 108.447079 243.107221
L 108.447079 242.251402
L 108.447079 241.395583
L 108.447079 240.539764
L 108.447079 239.683945
L 108.447079 238.828126
L 108.447079 237.972307
L 108.447079 237.116488
L 108.447079 236.260669
L 108.447079 235.40485
L 108.447079 234.549031
L 108.447079 233.693212
L 108.447079 232.837393
L 108.447079 231.981574
L 108.447079 231.125755
L 108.447079 230.269936
L 108.447079 229.414117
L 108.447079 228.558298
L 108.447079 227.702479
L 108.447079 226.84666
L 108.447079 225.990841
L 108.447079 225.135022
L 108.447079 224.279203
L 108.447079 223.423384
L 108.447079 222.567565
L 108.447079 221.711746
L 108.447079 220.855927
L 108.447079 220.000108
L 108.447079 219.144289
L 108.447079 218.28847
L 108.447079 217.432651
L 108.447079 216.576832
L 108.447079 215.721013
L 108.447079 214.865194
L 108.447079 214.009375
L 108.447079 213.153556
L 108.447079 212.297737
L 108.447079 211.441918
L 108.447079 210.586099
L 108.447079 209.73028
L 108.447079 208.874461
L 108.447079 208.018642
L 108.447079 207.162823
L 108.447079 206.307004
L 108.447079 205.451185
L 108.447079 204.595366
L 108.447079 203.739547
L 108.447079 202.883728
L 108.447079 202.027909
L 108.447079 201.172091
L 108.447079 200.316272
L 108.447079 199.460453
L 108.447079 198.604634
L 108.447079 197.748815
L 108.447079 196.892996
L 108.447079 196.037177
L 108.447079 195.181358
L 108.447079 194.325539
L 108.447079 193.46972
L 108.447079 192.613901
L 108.447079 191.758082
L 108.447079 190.902263
L 108.447079 190.046444
L 108.447079 189.190625
L 108.447079 188.334806
L 108.447079 187.478987
L 108.447079 186.623168
L 108.447079 185.767349
L 108.447079 184.91153
L 108.447079 184.055711
L 108.447079 183.199892
L 108.447079 182.344073
L 108.447079 181.488254
L 108.447079 180.632435
L 108.447079 179.776616
L 108.447079 178.920797
L 108.447079 178.064978
L 108.447079 177.209159
L 108.447079 176.35334
L 108.447079 175.497521
L 108.447079 174.641702
L 108.447079 173.785883
L 108.447079 172.930064
L 108.447079 172.074245
L 108.447079 171.218426
L 108.447079 170.362607
L 108.447079 169.506788
L 108.447079 168.650969
L 108.447079 167.79515
L 108.447079 166.939331
L 108.447079 166.083512
L 108.447079 165.227693
L 108.447079 164.371874
L 108.447079 163.516055
L 108.447079 162.660236
L 108.447079 161.804417
L 108.447079 160.948598
L 108.447079 160.092779
L 108.447079 159.23696
" clip-path="url(#p9df24e51d1)" style="fill: none; stroke: #d1495b; stroke-width: 1.9"/>
   </g>
   <g id="line2d_4">
    <path d="M 243.834645 328.689121
L 244.355047 326.121664
L 244.864406 323.554207
L 245.362749 320.98675
L 245.850103 318.419293
L 246.326493 315.851836
L 246.791945 313.284379
L 247.246483 310.716922
L 247.69013 308.149465
L 248.122911 305.582008
L 248.544847 303.014551
L 248.955961 300.447094
L 249.356274 297.879637
L 249.745806 295.31218
L 250.124578 292.744723
L 250.492609 290.177266
L 250.849919 287.609809
L 251.196525 285.042352
L 251.532444 282.474895
L 251.857696 279.907438
L 252.172295 277.339981
L 252.476257 274.772524
L 252.7696 272.205067
L 253.052336 269.63761
L 253.32448 267.070153
L 253.586047 264.502696
L 253.837048 261.935239
L 254.077498 259.367782
L 254.307408 256.800325
L 254.526789 254.232868
L 254.735652 251.665411
L 254.934008 249.097954
L 255.121867 246.530497
L 255.299238 243.96304
L 255.46613 241.395583
L 255.622552 238.828126
L 255.76851 236.260669
L 255.904012 233.693212
L 256.029066 231.125755
L 256.143676 228.558298
L 256.24785 225.990841
L 256.341591 223.423384
L 256.424906 220.855927
L 256.497796 218.28847
L 256.560268 215.721013
L 256.612322 213.153556
L 256.653963 210.586099
L 256.685191 208.018642
L 256.70601 205.451185
L 256.716419 202.883728
L 256.716419 200.316272
L 256.70601 197.748815
L 256.685191 195.181358
L 256.653963 192.613901
L 256.612322 190.046444
L 256.560268 187.478987
L 256.497796 184.91153
L 256.424906 182.344073
L 256.341591 179.776616
L 256.24785 177.209159
L 256.143676 174.641702
L 256.029066 172.074245
L 255.904012 169.506788
L 255.76851 166.939331
L 255.622552 164.371874
L 255.46613 161.804417
L 255.299238 159.23696
L 255.121867 156.669503
L 254.934008 154.102046
L 254.735652 151.534589
L 254.526789 148.967132
L 254.307408 146.399675
L 254.077498 143.832218
L 253.837048 141.264761
L 253.586047 138.697304
L 253.32448 136.129847
L 253.052336 133.56239
L 252.7696 130.994933
L 252.476257 128.427476
L 252.172295 125.860019
L 251.857696 123.292562
L 251.532444 120.725105
L 251.196525 118.157648
L 250.849919 115.590191
L 250.492609 113.022734
L 250.124578 110.455277
L 249.745806 107.88782
L 249.356274 105.320363
L 248.955961 102.752906
L 248.544847 100.185449
L 248.122911 97.617992
L 247.69013 95.050535
L 247.246483 92.483078
L 246.791945 89.915621
L 246.326493 87.348164
L 245.850103 84.780707
L 245.362749 82.21325
L 244.864406 79.645793
L 244.355047 77.078336
L 243.834645 74.510879
" clip-path="url(#p9df24e51d1)" style="fill: none; stroke: #111827; stroke-width: 1.25"/>
   </g>
   <g id="line2d_5">
    <path d="M 273.559474 335.749627
L 274.819265 333.039534
L 276.047995 330.32944
L 277.24606 327.619347
L 278.41384 324.909253
L 279.551699 322.19916
L 280.659987 319.489067
L 281.739039 316.778973
L 282.789178 314.06888
L 283.810711 311.358786
L 284.803934 308.648693
L 285.769131 305.938599
L 286.706575 303.228506
L 287.616526 300.518412
L 288.499234 297.808319
L 289.35494 295.098225
L 290.183872 292.388132
L 290.986252 289.678038
L 291.76229 286.967945
L 292.512187 284.257851
L 293.236137 281.547758
L 293.934324 278.837664
L 294.606925 276.127571
L 295.254107 273.417477
L 295.876031 270.707384
L 296.472851 267.99729
L 297.044712 265.287197
L 297.591753 262.577103
L 298.114105 259.86701
L 298.611893 257.156916
L 299.085234 254.446823
L 299.534242 251.736729
L 299.95902 249.026636
L 300.359668 246.316542
L 300.736279 243.606449
L 301.08894 240.896356
L 301.417731 238.186262
L 301.722729 235.476169
L 302.004001 232.766075
L 302.261613 230.055982
L 302.495622 227.345888
L 302.706081 224.635795
L 302.893037 221.925701
L 303.056533 219.215608
L 303.196604 216.505514
L 303.313283 213.795421
L 303.406595 211.085327
L 303.476561 208.375234
L 303.523196 205.66514
L 303.546511 202.955047
L 303.546511 200.244953
L 303.523196 197.53486
L 303.476561 194.824766
L 303.406595 192.114673
L 303.313283 189.404579
L 303.196604 186.694486
L 303.056533 183.984392
L 302.893037 181.274299
L 302.706081 178.564205
L 302.495622 175.854112
L 302.261613 173.144018
L 302.004001 170.433925
L 301.722729 167.723831
L 301.417731 165.013738
L 301.08894 162.303644
L 300.736279 159.593551
L 300.359668 156.883458
L 299.95902 154.173364
L 299.534242 151.463271
L 299.085234 148.753177
L 298.611893 146.043084
L 298.114105 143.33299
L 297.591753 140.622897
L 297.044712 137.912803
L 296.472851 135.20271
L 295.876031 132.492616
L 295.254107 129.782523
L 294.606925 127.072429
L 293.934324 124.362336
L 293.236137 121.652242
L 292.512187 118.942149
L 291.76229 116.232055
L 290.986252 113.521962
L 290.183872 110.811868
L 289.35494 108.101775
L 288.499234 105.391681
L 287.616526 102.681588
L 286.706575 99.971494
L 285.769131 97.261401
L 284.803934 94.551307
L 283.810711 91.841214
L 282.789178 89.13112
L 281.739039 86.421027
L 280.659987 83.710933
L 279.551699 81.00084
L 278.41384 78.290747
L 277.24606 75.580653
L 276.047995 72.87056
L 274.819265 70.160466
L 273.559474 67.450373
" clip-path="url(#p9df24e51d1)" style="fill: none; stroke: #111827; stroke-width: 1.25"/>
   </g>
   <g id="line2d_6">
    <path d="M 243.834645 74.510879
L 243.834645 67.450373
" clip-path="url(#p9df24e51d1)" style="fill: none; stroke-dasharray: 4.625,2; stroke-dashoffset: 0; stroke: #111827; stroke-width: 1.25"/>
   </g>
   <g id="line2d_7">
    <path d="M 243.834645 328.689121
L 243.834645 335.749627
" clip-path="url(#p9df24e51d1)" style="fill: none; stroke-dasharray: 4.625,2; stroke-dashoffset: 0; stroke: #111827; stroke-width: 1.25"/>
   </g>
   <g id="line2d_8">
    <path d="M 243.834645 67.450373
L 273.559474 67.450373
" clip-path="url(#p9df24e51d1)" style="fill: none; stroke: #111827; stroke-width: 1.25"/>
   </g>
   <g id="line2d_9">
    <path d="M 243.834645 335.749627
L 273.559474 335.749627
" clip-path="url(#p9df24e51d1)" style="fill: none; stroke: #111827; stroke-width: 1.25"/>
   </g>
   <g id="line2d_10">
    <path d="M 301.674946 342.810134
L 301.881697 339.957404
L 302.084949 337.104674
L 302.28466 334.251944
L 302.480792 331.399214
L 302.673303 328.546484
L 302.862157 325.693754
L 303.047313 322.841024
L 303.228735 319.988294
L 303.406386 317.135564
L 303.580228 314.282834
L 303.750226 311.430104
L 303.916345 308.577374
L 304.07855 305.724644
L 304.236807 302.871914
L 304.391083 300.019184
L 304.541345 297.166454
L 304.687561 294.313724
L 304.8297 291.460994
L 304.967731 288.608264
L 305.101624 285.755534
L 305.23135 282.902804
L 305.35688 280.050075
L 305.478187 277.197345
L 305.595244 274.344615
L 305.708023 271.491885
L 305.816501 268.639155
L 305.920653 265.786425
L 306.020453 262.933695
L 306.115881 260.080965
L 306.206913 257.228235
L 306.293529 254.375505
L 306.375708 251.522775
L 306.453431 248.670045
L 306.52668 245.817315
L 306.595437 242.964585
L 306.659686 240.111855
L 306.719411 237.259125
L 306.774598 234.406395
L 306.825234 231.553665
L 306.871306 228.700935
L 306.912803 225.848205
L 306.949716 222.995475
L 306.982034 220.142745
L 307.00975 217.290015
L 307.032857 214.437285
L 307.05135 211.584555
L 307.065223 208.731825
L 307.074474 205.879095
L 307.0791 203.026365
L 307.0791 200.173635
L 307.074474 197.320905
L 307.065223 194.468175
L 307.05135 191.615445
L 307.032857 188.762715
L 307.00975 185.909985
L 306.982034 183.057255
L 306.949716 180.204525
L 306.912803 177.351795
L 306.871306 174.499065
L 306.825234 171.646335
L 306.774598 168.793605
L 306.719411 165.940875
L 306.659686 163.088145
L 306.595437 160.235415
L 306.52668 157.382685
L 306.453431 154.529955
L 306.375708 151.677225
L 306.293529 148.824495
L 306.206913 145.971765
L 306.115881 143.119035
L 306.020453 140.266305
L 305.920653 137.413575
L 305.816501 134.560845
L 305.708023 131.708115
L 305.595244 128.855385
L 305.478187 126.002655
L 305.35688 123.149925
L 305.23135 120.297196
L 305.101624 117.444466
L 304.967731 114.591736
L 304.8297 111.739006
L 304.687561 108.886276
L 304.541345 106.033546
L 304.391083 103.180816
L 304.236807 100.328086
L 304.07855 97.475356
L 303.916345 94.622626
L 303.750226 91.769896
L 303.580228 88.917166
L 303.406386 86.064436
L 303.228735 83.211706
L 303.047313 80.358976
L 302.862157 77.506246
L 302.673303 74.653516
L 302.480792 71.800786
L 302.28466 68.948056
L 302.084949 66.095326
L 301.881697 63.242596
L 301.674946 60.389866
" clip-path="url(#p9df24e51d1)" style="fill: none; stroke: #111827; stroke-width: 1.25"/>
   </g>
   <g id="line2d_11">
    <path d="M 347.271227 356.931148
L 347.721188 353.793145
L 348.169763 350.655142
L 348.616903 347.517139
L 349.062555 344.379136
L 349.506662 341.241133
L 349.949158 338.10313
L 350.389974 334.965127
L 350.829034 331.827124
L 351.266253 328.689121
L 351.701538 325.551118
L 352.134788 322.413115
L 352.565892 319.275112
L 352.994728 316.137109
L 353.421163 312.999106
L 353.84505 309.861103
L 354.266228 306.7231
L 354.68452 303.585097
L 355.099735 300.447094
L 355.511658 297.309091
L 355.920058 294.171088
L 356.324678 291.033085
L 356.725237 287.895082
L 357.121427 284.757079
L 357.512909 281.619076
L 357.89931 278.481073
L 358.280221 275.34307
L 358.655191 272.205067
L 359.023727 269.067064
L 359.385286 265.929061
L 359.739274 262.791058
L 360.08504 259.653055
L 360.421872 256.515052
L 360.748996 253.377049
L 361.065567 250.239046
L 361.370675 247.101043
L 361.663335 243.96304
L 361.942496 240.825037
L 362.207039 237.687034
L 362.455787 234.549031
L 362.687515 231.411028
L 362.900962 228.273025
L 363.094856 225.135022
L 363.267935 221.997019
L 363.418981 218.859016
L 363.546848 215.721013
L 363.650508 212.58301
L 363.729078 209.445007
L 363.781862 206.307004
L 363.808377 203.169001
L 363.808377 200.030999
L 363.781862 196.892996
L 363.729078 193.754993
L 363.650508 190.61699
L 363.546848 187.478987
L 363.418981 184.340984
L 363.267935 181.202981
L 363.094856 178.064978
L 362.900962 174.926975
L 362.687515 171.788972
L 362.455787 168.650969
L 362.207039 165.512966
L 361.942496 162.374963
L 361.663335 159.23696
L 361.370675 156.098957
L 361.065567 152.960954
L 360.748996 149.822951
L 360.421872 146.684948
L 360.08504 143.546945
L 359.739274 140.408942
L 359.385286 137.270939
L 359.023727 134.132936
L 358.655191 130.994933
L 358.280221 127.85693
L 357.89931 124.718927
L 357.512909 121.580924
L 357.121427 118.442921
L 356.725237 115.304918
L 356.324678 112.166915
L 355.920058 109.028912
L 355.511658 105.890909
L 355.099735 102.752906
L 354.68452 99.614903
L 354.266228 96.4769
L 353.84505 93.338897
L 353.421163 90.200894
L 352.994728 87.062891
L 352.565892 83.924888
L 352.134788 80.786885
L 351.701538 77.648882
L 351.266253 74.510879
L 350.829034 71.372876
L 350.389974 68.234873
L 349.949158 65.09687
L 349.506662 61.958867
L 349.062555 58.820864
L 348.616903 55.682861
L 348.169763 52.544858
L 347.721188 49.406855
L 347.271227 46.268852
" clip-path="url(#p9df24e51d1)" style="fill: none; stroke: #111827; stroke-width: 1.25"/>
   </g>
   <g id="line2d_12">
    <path d="M 301.674946 60.389866
L 301.674946 46.268852
" clip-path="url(#p9df24e51d1)" style="fill: none; stroke-dasharray: 4.625,2; stroke-dashoffset: 0; stroke: #111827; stroke-width: 1.25"/>
   </g>
   <g id="line2d_13">
    <path d="M 301.674946 342.810134
L 301.674946 356.931148
" clip-path="url(#p9df24e51d1)" style="fill: none; stroke-dasharray: 4.625,2; stroke-dashoffset: 0; stroke: #111827; stroke-width: 1.25"/>
   </g>
   <g id="line2d_14">
    <path d="M 301.674946 46.268852
L 347.271227 46.268852
" clip-path="url(#p9df24e51d1)" style="fill: none; stroke: #111827; stroke-width: 1.25"/>
   </g>
   <g id="line2d_15">
    <path d="M 301.674946 356.931148
L 347.271227 356.931148
" clip-path="url(#p9df24e51d1)" style="fill: none; stroke: #111827; stroke-width: 1.25"/>
   </g>
   <g id="line2d_16">
    <path d="M 372.722512 356.931148
L 372.568447 353.793145
L 372.41497 350.655142
L 372.262109 347.517139
L 372.109896 344.379136
L 371.958363 341.241133
L 371.807546 338.10313
L 371.657484 334.965127
L 371.508217 331.827124
L 371.35979 328.689121
L 371.21225 325.551118
L 371.065648 322.413115
L 370.920037 319.275112
L 370.775477 316.137109
L 370.632031 312.999106
L 370.489766 309.861103
L 370.348755 306.7231
L 370.209076 303.585097
L 370.070814 300.447094
L 369.934059 297.309091
L 369.798908 294.171088
L 369.665466 291.033085
L 369.533846 287.895082
L 369.404168 284.757079
L 369.276562 281.619076
L 369.151169 278.481073
L 369.028137 275.34307
L 368.907626 272.205067
L 368.789807 269.067064
L 368.674864 265.929061
L 368.56299 262.791058
L 368.454391 259.653055
L 368.349286 256.515052
L 368.247904 253.377049
L 368.150488 250.239046
L 368.057288 247.101043
L 367.968567 243.96304
L 367.884593 240.825037
L 367.805641 237.687034
L 367.731989 234.549031
L 367.663916 231.411028
L 367.601695 228.273025
L 367.545594 225.135022
L 367.495868 221.997019
L 367.452754 218.859016
L 367.416467 215.721013
L 367.387197 212.58301
L 367.365101 209.445007
L 367.3503 206.307004
L 367.342879 203.169001
L 367.342879 200.030999
L 367.3503 196.892996
L 367.365101 193.754993
L 367.387197 190.61699
L 367.416467 187.478987
L 367.452754 184.340984
L 367.495868 181.202981
L 367.545594 178.064978
L 367.601695 174.926975
L 367.663916 171.788972
L 367.731989 168.650969
L 367.805641 165.512966
L 367.884593 162.374963
L 367.968567 159.23696
L 368.057288 156.098957
L 368.150488 152.960954
L 368.247904 149.822951
L 368.349286 146.684948
L 368.454391 143.546945
L 368.56299 140.408942
L 368.674864 137.270939
L 368.789807 134.132936
L 368.907626 130.994933
L 369.028137 127.85693
L 369.151169 124.718927
L 369.276562 121.580924
L 369.404168 118.442921
L 369.533846 115.304918
L 369.665466 112.166915
L 369.798908 109.028912
L 369.934059 105.890909
L 370.070814 102.752906
L 370.209076 99.614903
L 370.348755 96.4769
L 370.489766 93.338897
L 370.632031 90.200894
L 370.775477 87.062891
L 370.920037 83.924888
L 371.065648 80.786885
L 371.21225 77.648882
L 371.35979 74.510879
L 371.508217 71.372876
L 371.657484 68.234873
L 371.807546 65.09687
L 371.958363 61.958867
L 372.109896 58.820864
L 372.262109 55.682861
L 372.41497 52.544858
L 372.568447 49.406855
L 372.722512 46.268852
" clip-path="url(#p9df24e51d1)" style="fill: none; stroke: #111827; stroke-width: 1.25"/>
   </g>
   <g id="line2d_17">
    <path d="M 450.239869 356.931148
L 451.436328 353.793145
L 452.631605 350.655142
L 453.825627 347.517139
L 455.018317 344.379136
L 456.209594 341.241133
L 457.399365 338.10313
L 458.587533 334.965127
L 459.773991 331.827124
L 460.958622 328.689121
L 462.141298 325.551118
L 463.321881 322.413115
L 464.500216 319.275112
L 465.676135 316.137109
L 466.849454 312.999106
L 468.019966 309.861103
L 469.187446 306.7231
L 470.351642 303.585097
L 471.512275 300.447094
L 472.669034 297.309091
L 473.821571 294.171088
L 474.969496 291.033085
L 476.112374 287.895082
L 477.249712 284.757079
L 478.380954 281.619076
L 479.505471 278.481073
L 480.622548 275.34307
L 481.731371 272.205067
L 482.831009 269.067064
L 483.920397 265.929061
L 484.998307 262.791058
L 486.063327 259.653055
L 487.113821 256.515052
L 488.147894 253.377049
L 489.163344 250.239046
L 490.157609 247.101043
L 491.127703 243.96304
L 492.070147 240.825037
L 492.980891 237.687034
L 493.855237 234.549031
L 494.687757 231.411028
L 495.472239 228.273025
L 496.20165 225.135022
L 496.868173 221.997019
L 497.463318 218.859016
L 497.978175 215.721013
L 498.403806 212.58301
L 498.7318 209.445007
L 498.954946 206.307004
L 499.067932 203.169001
L 499.067932 200.030999
L 498.954946 196.892996
L 498.7318 193.754993
L 498.403806 190.61699
L 497.978175 187.478987
L 497.463318 184.340984
L 496.868173 181.202981
L 496.20165 178.064978
L 495.472239 174.926975
L 494.687757 171.788972
L 493.855237 168.650969
L 492.980891 165.512966
L 492.070147 162.374963
L 491.127703 159.23696
L 490.157609 156.098957
L 489.163344 152.960954
L 488.147894 149.822951
L 487.113821 146.684948
L 486.063327 143.546945
L 484.998307 140.408942
L 483.920397 137.270939
L 482.831009 134.132936
L 481.731371 130.994933
L 480.622548 127.85693
L 479.505471 124.718927
L 478.380954 121.580924
L 477.249712 118.442921
L 476.112374 115.304918
L 474.969496 112.166915
L 473.821571 109.028912
L 472.669034 105.890909
L 471.512275 102.752906
L 470.351642 99.614903
L 469.187446 96.4769
L 468.019966 93.338897
L 466.849454 90.200894
L 465.676135 87.062891
L 464.500216 83.924888
L 463.321881 80.786885
L 462.141298 77.648882
L 460.958622 74.510879
L 459.773991 71.372876
L 458.587533 68.234873
L 457.399365 65.09687
L 456.209594 61.958867
L 455.018317 58.820864
L 453.825627 55.682861
L 452.631605 52.544858
L 451.436328 49.406855
L 450.239869 46.268852
" clip-path="url(#p9df24e51d1)" style="fill: none; stroke: #111827; stroke-width: 1.25"/>
   </g>
   <g id="line2d_18">
    <path d="M 372.722512 46.268852
L 372.722512 46.268852
" clip-path="url(#p9df24e51d1)" style="fill: none; stroke-dasharray: 4.625,2; stroke-dashoffset: 0; stroke: #111827; stroke-width: 1.25"/>
   </g>
   <g id="line2d_19">
    <path d="M 372.722512 356.931148
L 372.722512 356.931148
" clip-path="url(#p9df24e51d1)" style="fill: none; stroke-dasharray: 4.625,2; stroke-dashoffset: 0; stroke: #111827; stroke-width: 1.25"/>
   </g>
   <g id="line2d_20">
    <path d="M 372.722512 46.268852
L 450.239869 46.268852
" clip-path="url(#p9df24e51d1)" style="fill: none; stroke: #111827; stroke-width: 1.25"/>
   </g>
   <g id="line2d_21">
    <path d="M 372.722512 356.931148
L 450.239869 356.931148
" clip-path="url(#p9df24e51d1)" style="fill: none; stroke: #111827; stroke-width: 1.25"/>
   </g>
   <g id="line2d_22">
    <path d="M 492.958641 342.810134
L 493.3202 339.957404
L 493.674163 337.104674
L 494.020544 334.251944
L 494.359357 331.399214
L 494.690615 328.546484
L 495.014332 325.693754
L 495.330519 322.841024
L 495.63919 319.988294
L 495.940355 317.135564
L 496.234027 314.282834
L 496.520217 311.430104
L 496.798936 308.577374
L 497.070194 305.724644
L 497.334002 302.871914
L 497.59037 300.019184
L 497.839307 297.166454
L 498.080824 294.313724
L 498.314928 291.460994
L 498.541629 288.608264
L 498.760936 285.755534
L 498.972856 282.902804
L 499.177397 280.050075
L 499.374568 277.197345
L 499.564374 274.344615
L 499.746824 271.491885
L 499.921924 268.639155
L 500.089681 265.786425
L 500.2501 262.933695
L 500.403187 260.080965
L 500.548949 257.228235
L 500.68739 254.375505
L 500.818515 251.522775
L 500.942329 248.670045
L 501.058838 245.817315
L 501.168044 242.964585
L 501.269952 240.111855
L 501.364566 237.259125
L 501.451888 234.406395
L 501.531923 231.553665
L 501.604672 228.700935
L 501.67014 225.848205
L 501.728327 222.995475
L 501.779236 220.142745
L 501.822869 217.290015
L 501.859228 214.437285
L 501.888313 211.584555
L 501.910126 208.731825
L 501.924667 205.879095
L 501.931938 203.026365
L 501.931938 200.173635
L 501.924667 197.320905
L 501.910126 194.468175
L 501.888313 191.615445
L 501.859228 188.762715
L 501.822869 185.909985
L 501.779236 183.057255
L 501.728327 180.204525
L 501.67014 177.351795
L 501.604672 174.499065
L 501.531923 171.646335
L 501.451888 168.793605
L 501.364566 165.940875
L 501.269952 163.088145
L 501.168044 160.235415
L 501.058838 157.382685
L 500.942329 154.529955
L 500.818515 151.677225
L 500.68739 148.824495
L 500.548949 145.971765
L 500.403187 143.119035
L 500.2501 140.266305
L 500.089681 137.413575
L 499.921924 134.560845
L 499.746824 131.708115
L 499.564374 128.855385
L 499.374568 126.002655
L 499.177397 123.149925
L 498.972856 120.297196
L 498.760936 117.444466
L 498.541629 114.591736
L 498.314928 111.739006
L 498.080824 108.886276
L 497.839307 106.033546
L 497.59037 103.180816
L 497.334002 100.328086
L 497.070194 97.475356
L 496.798936 94.622626
L 496.520217 91.769896
L 496.234027 88.917166
L 495.940355 86.064436
L 495.63919 83.211706
L 495.330519 80.358976
L 495.014332 77.506246
L 494.690615 74.653516
L 494.359357 71.800786
L 494.020544 68.948056
L 493.674163 66.095326
L 493.3202 63.242596
L 492.958641 60.389866
" clip-path="url(#p9df24e51d1)" style="fill: none; stroke: #111827; stroke-width: 1.25"/>
   </g>
   <g id="line2d_23">
    <path d="M 595.143881 328.689121
L 594.155005 326.121664
L 593.166867 323.554207
L 592.179513 320.98675
L 591.192991 318.419293
L 590.207354 315.851836
L 589.22266 313.284379
L 588.238971 310.716922
L 587.256355 308.149465
L 586.274887 305.582008
L 585.294647 303.014551
L 584.315726 300.447094
L 583.338221 297.879637
L 582.36224 295.31218
L 581.387902 292.744723
L 580.415339 290.177266
L 579.444698 287.609809
L 578.476141 285.042352
L 577.50985 282.474895
L 576.546027 279.907438
L 575.5849 277.339981
L 574.626724 274.772524
L 573.671789 272.205067
L 572.72042 269.63761
L 571.77299 267.070153
L 570.829919 264.502696
L 569.891692 261.935239
L 568.958862 259.367782
L 568.03207 256.800325
L 567.112055 254.232868
L 566.199674 251.665411
L 565.29593 249.097954
L 564.401996 246.530497
L 563.51925 243.96304
L 562.649321 241.395583
L 561.794138 238.828126
L 560.955994 236.260669
L 560.137622 233.693212
L 559.342286 231.125755
L 558.57388 228.558298
L 557.83705 225.990841
L 557.137307 223.423384
L 556.481134 220.855927
L 555.876053 218.28847
L 555.330608 215.721013
L 554.854202 213.153556
L 554.456724 210.586099
L 554.147906 208.018642
L 553.936429 205.451185
L 553.828899 202.883728
L 553.828899 200.316272
L 553.936429 197.748815
L 554.147906 195.181358
L 554.456724 192.613901
L 554.854202 190.046444
L 555.330608 187.478987
L 555.876053 184.91153
L 556.481134 182.344073
L 557.137307 179.776616
L 557.83705 177.209159
L 558.57388 174.641702
L 559.342286 172.074245
L 560.137622 169.506788
L 560.955994 166.939331
L 561.794138 164.371874
L 562.649321 161.804417
L 563.51925 159.23696
L 564.401996 156.669503
L 565.29593 154.102046
L 566.199674 151.534589
L 567.112055 148.967132
L 568.03207 146.399675
L 568.958862 143.832218
L 569.891692 141.264761
L 570.829919 138.697304
L 571.77299 136.129847
L 572.72042 133.56239
L 573.671789 130.994933
L 574.626724 128.427476
L 575.5849 125.860019
L 576.546027 123.292562
L 577.50985 120.725105
L 578.476141 118.157648
L 579.444698 115.590191
L 580.415339 113.022734
L 581.387902 110.455277
L 582.36224 107.88782
L 583.338221 105.320363
L 584.315726 102.752906
L 585.294647 100.185449
L 586.274887 97.617992
L 587.256355 95.050535
L 588.238971 92.483078
L 589.22266 89.915621
L 590.207354 87.348164
L 591.192991 84.780707
L 592.179513 82.21325
L 593.166867 79.645793
L 594.155005 77.078336
L 595.143881 74.510879
" clip-path="url(#p9df24e51d1)" style="fill: none; stroke: #111827; stroke-width: 1.25"/>
   </g>
   <g id="line2d_24">
    <path d="M 595.143881 74.510879
L 595.143881 60.389866
" clip-path="url(#p9df24e51d1)" style="fill: none; stroke-dasharray: 4.625,2; stroke-dashoffset: 0; stroke: #111827; stroke-width: 1.25"/>
   </g>
   <g id="line2d_25">
    <path d="M 595.143881 328.689121
L 595.143881 342.810134
" clip-path="url(#p9df24e51d1)" style="fill: none; stroke-dasharray: 4.625,2; stroke-dashoffset: 0; stroke: #111827; stroke-width: 1.25"/>
   </g>
   <g id="line2d_26">
    <path d="M 492.958641 60.389866
L 595.143881 60.389866
" clip-path="url(#p9df24e51d1)" style="fill: none; stroke: #111827; stroke-width: 1.25"/>
   </g>
   <g id="line2d_27">
    <path d="M 492.958641 342.810134
L 595.143881 342.810134
" clip-path="url(#p9df24e51d1)" style="fill: none; stroke: #111827; stroke-width: 1.25"/>
   </g>
   <g id="line2d_28">
    <path d="M 243.834645 74.510879
L 234.815062 74.510879
" clip-path="url(#p9df24e51d1)" style="fill: none; stroke-dasharray: 3.33,1.44; stroke-dashoffset: 0; stroke: #007c83; stroke-width: 0.9"/>
   </g>
   <g id="patch_6">
    <path d="M 319.984233 56.80014
Q 286.488438 88.080805 254.177477 118.254993
" style="fill: none; stroke: #007c83; stroke-width: 1.45; stroke-linecap: round"/>
    <path d="M 260.61022 116.35241
L 254.177477 118.254993
L 256.515056 111.967249
" style="fill: none; stroke: #007c83; stroke-width: 1.45; stroke-linecap: round"/>
   </g>
   <g id="text_1">
    <g id="patch_7">
     <path d="M 251.562907 54.93723
L 417.612907 54.93723
Q 421.362907 54.93723 421.362907 51.18723
L 421.362907 35.13723
Q 421.362907 31.38723 417.612907 31.38723
L 251.562907 31.38723
Q 247.812907 31.38723 247.812907 35.13723
L 247.812907 51.18723
Q 247.812907 54.93723 251.562907 54.93723
z
" style="fill: #ffffff; opacity: 0.96; stroke: #007c83; stroke-linejoin: miter"/>
    </g>
    <!-- Radius of curvature $R_j$ -->
    <g style="fill: #007c83" transform="translate(251.562907 46.53723) scale(0.15 -0.15)">
     <defs>
      <path id="DejaVuSans-52" d="M 2841 2188
Q 3044 2119 3236 1894
Q 3428 1669 3622 1275
L 4263 0
L 3584 0
L 2988 1197
Q 2756 1666 2539 1819
Q 2322 1972 1947 1972
L 1259 1972
L 1259 0
L 628 0
L 628 4666
L 2053 4666
Q 2853 4666 3247 4331
Q 3641 3997 3641 3322
Q 3641 2881 3436 2590
Q 3231 2300 2841 2188
z
M 1259 4147
L 1259 2491
L 2053 2491
Q 2509 2491 2742 2702
Q 2975 2913 2975 3322
Q 2975 3731 2742 3939
Q 2509 4147 2053 4147
L 1259 4147
z
" transform="scale(0.015625)"/>
      <path id="DejaVuSans-61" d="M 2194 1759
Q 1497 1759 1228 1600
Q 959 1441 959 1056
Q 959 750 1161 570
Q 1363 391 1709 391
Q 2188 391 2477 730
Q 2766 1069 2766 1631
L 2766 1759
L 2194 1759
z
M 3341 1997
L 3341 0
L 2766 0
L 2766 531
Q 2569 213 2275 61
Q 1981 -91 1556 -91
Q 1019 -91 701 211
Q 384 513 384 1019
Q 384 1609 779 1909
Q 1175 2209 1959 2209
L 2766 2209
L 2766 2266
Q 2766 2663 2505 2880
Q 2244 3097 1772 3097
Q 1472 3097 1187 3025
Q 903 2953 641 2809
L 641 3341
Q 956 3463 1253 3523
Q 1550 3584 1831 3584
Q 2591 3584 2966 3190
Q 3341 2797 3341 1997
z
" transform="scale(0.015625)"/>
      <path id="DejaVuSans-64" d="M 2906 2969
L 2906 4863
L 3481 4863
L 3481 0
L 2906 0
L 2906 525
Q 2725 213 2448 61
Q 2172 -91 1784 -91
Q 1150 -91 751 415
Q 353 922 353 1747
Q 353 2572 751 3078
Q 1150 3584 1784 3584
Q 2172 3584 2448 3432
Q 2725 3281 2906 2969
z
M 947 1747
Q 947 1113 1208 752
Q 1469 391 1925 391
Q 2381 391 2643 752
Q 2906 1113 2906 1747
Q 2906 2381 2643 2742
Q 2381 3103 1925 3103
Q 1469 3103 1208 2742
Q 947 2381 947 1747
z
" transform="scale(0.015625)"/>
      <path id="DejaVuSans-69" d="M 603 3500
L 1178 3500
L 1178 0
L 603 0
L 603 3500
z
M 603 4863
L 1178 4863
L 1178 4134
L 603 4134
L 603 4863
z
" transform="scale(0.015625)"/>
      <path id="DejaVuSans-75" d="M 544 1381
L 544 3500
L 1119 3500
L 1119 1403
Q 1119 906 1312 657
Q 1506 409 1894 409
Q 2359 409 2629 706
Q 2900 1003 2900 1516
L 2900 3500
L 3475 3500
L 3475 0
L 2900 0
L 2900 538
Q 2691 219 2414 64
Q 2138 -91 1772 -91
Q 1169 -91 856 284
Q 544 659 544 1381
z
M 1991 3584
L 1991 3584
z
" transform="scale(0.015625)"/>
      <path id="DejaVuSans-73" d="M 2834 3397
L 2834 2853
Q 2591 2978 2328 3040
Q 2066 3103 1784 3103
Q 1356 3103 1142 2972
Q 928 2841 928 2578
Q 928 2378 1081 2264
Q 1234 2150 1697 2047
L 1894 2003
Q 2506 1872 2764 1633
Q 3022 1394 3022 966
Q 3022 478 2636 193
Q 2250 -91 1575 -91
Q 1294 -91 989 -36
Q 684 19 347 128
L 347 722
Q 666 556 975 473
Q 1284 391 1588 391
Q 1994 391 2212 530
Q 2431 669 2431 922
Q 2431 1156 2273 1281
Q 2116 1406 1581 1522
L 1381 1569
Q 847 1681 609 1914
Q 372 2147 372 2553
Q 372 3047 722 3315
Q 1072 3584 1716 3584
Q 2034 3584 2315 3537
Q 2597 3491 2834 3397
z
" transform="scale(0.015625)"/>
      <path id="DejaVuSans-20" transform="scale(0.015625)"/>
      <path id="DejaVuSans-6f" d="M 1959 3097
Q 1497 3097 1228 2736
Q 959 2375 959 1747
Q 959 1119 1226 758
Q 1494 397 1959 397
Q 2419 397 2687 759
Q 2956 1122 2956 1747
Q 2956 2369 2687 2733
Q 2419 3097 1959 3097
z
M 1959 3584
Q 2709 3584 3137 3096
Q 3566 2609 3566 1747
Q 3566 888 3137 398
Q 2709 -91 1959 -91
Q 1206 -91 779 398
Q 353 888 353 1747
Q 353 2609 779 3096
Q 1206 3584 1959 3584
z
" transform="scale(0.015625)"/>
      <path id="DejaVuSans-66" d="M 2375 4863
L 2375 4384
L 1825 4384
Q 1516 4384 1395 4259
Q 1275 4134 1275 3809
L 1275 3500
L 2222 3500
L 2222 3053
L 1275 3053
L 1275 0
L 697 0
L 697 3053
L 147 3053
L 147 3500
L 697 3500
L 697 3744
Q 697 4328 969 4595
Q 1241 4863 1831 4863
L 2375 4863
z
" transform="scale(0.015625)"/>
      <path id="DejaVuSans-63" d="M 3122 3366
L 3122 2828
Q 2878 2963 2633 3030
Q 2388 3097 2138 3097
Q 1578 3097 1268 2742
Q 959 2388 959 1747
Q 959 1106 1268 751
Q 1578 397 2138 397
Q 2388 397 2633 464
Q 2878 531 3122 666
L 3122 134
Q 2881 22 2623 -34
Q 2366 -91 2075 -91
Q 1284 -91 818 406
Q 353 903 353 1747
Q 353 2603 823 3093
Q 1294 3584 2113 3584
Q 2378 3584 2631 3529
Q 2884 3475 3122 3366
z
" transform="scale(0.015625)"/>
      <path id="DejaVuSans-72" d="M 2631 2963
Q 2534 3019 2420 3045
Q 2306 3072 2169 3072
Q 1681 3072 1420 2755
Q 1159 2438 1159 1844
L 1159 0
L 581 0
L 581 3500
L 1159 3500
L 1159 2956
Q 1341 3275 1631 3429
Q 1922 3584 2338 3584
Q 2397 3584 2469 3576
Q 2541 3569 2628 3553
L 2631 2963
z
" transform="scale(0.015625)"/>
      <path id="DejaVuSans-76" d="M 191 3500
L 800 3500
L 1894 563
L 2988 3500
L 3597 3500
L 2284 0
L 1503 0
L 191 3500
z
" transform="scale(0.015625)"/>
      <path id="DejaVuSans-74" d="M 1172 4494
L 1172 3500
L 2356 3500
L 2356 3053
L 1172 3053
L 1172 1153
Q 1172 725 1289 603
Q 1406 481 1766 481
L 2356 481
L 2356 0
L 1766 0
Q 1100 0 847 248
Q 594 497 594 1153
L 594 3053
L 172 3053
L 172 3500
L 594 3500
L 594 4494
L 1172 4494
z
" transform="scale(0.015625)"/>
      <path id="DejaVuSans-65" d="M 3597 1894
L 3597 1613
L 953 1613
Q 991 1019 1311 708
Q 1631 397 2203 397
Q 2534 397 2845 478
Q 3156 559 3463 722
L 3463 178
Q 3153 47 2828 -22
Q 2503 -91 2169 -91
Q 1331 -91 842 396
Q 353 884 353 1716
Q 353 2575 817 3079
Q 1281 3584 2069 3584
Q 2775 3584 3186 3129
Q 3597 2675 3597 1894
z
M 3022 2063
Q 3016 2534 2758 2815
Q 2500 3097 2075 3097
Q 1594 3097 1305 2825
Q 1016 2553 972 2059
L 3022 2063
z
" transform="scale(0.015625)"/>
      <path id="DejaVuSans-Oblique-52" d="M 1613 4147
L 1294 2491
L 2106 2491
Q 2584 2491 2879 2755
Q 3175 3019 3175 3444
Q 3175 3784 2976 3965
Q 2778 4147 2406 4147
L 1613 4147
z
M 2772 2241
Q 2972 2194 3105 2009
Q 3238 1825 3413 1275
L 3809 0
L 3144 0
L 2778 1197
Q 2638 1659 2453 1815
Q 2269 1972 1888 1972
L 1191 1972
L 806 0
L 172 0
L 1081 4666
L 2503 4666
Q 3150 4666 3495 4373
Q 3841 4081 3841 3531
Q 3841 3044 3547 2687
Q 3253 2331 2772 2241
z
" transform="scale(0.015625)"/>
      <path id="DejaVuSans-Oblique-6a" d="M 928 3500
L 1503 3500
L 813 -63
L 809 -78
Q 694 -675 544 -897
Q 403 -1106 132 -1218
Q -138 -1331 -506 -1331
L -722 -1331
L -628 -844
L -481 -844
Q -144 -844 -1 -703
Q 141 -563 238 -63
L 928 3500
z
M 1197 4863
L 1772 4863
L 1631 4134
L 1056 4134
L 1197 4863
z
" transform="scale(0.015625)"/>
     </defs>
     <use xlink:href="#DejaVuSans-52" transform="translate(0 0.015625)"/>
     <use xlink:href="#DejaVuSans-61" transform="translate(69.482422 0.015625)"/>
     <use xlink:href="#DejaVuSans-64" transform="translate(130.761719 0.015625)"/>
     <use xlink:href="#DejaVuSans-69" transform="translate(194.238281 0.015625)"/>
     <use xlink:href="#DejaVuSans-75" transform="translate(222.021484 0.015625)"/>
     <use xlink:href="#DejaVuSans-73" transform="translate(285.400391 0.015625)"/>
     <use xlink:href="#DejaVuSans-20" transform="translate(337.5 0.015625)"/>
     <use xlink:href="#DejaVuSans-6f" transform="translate(369.287109 0.015625)"/>
     <use xlink:href="#DejaVuSans-66" transform="translate(430.46875 0.015625)"/>
     <use xlink:href="#DejaVuSans-20" transform="translate(465.673828 0.015625)"/>
     <use xlink:href="#DejaVuSans-63" transform="translate(497.460938 0.015625)"/>
     <use xlink:href="#DejaVuSans-75" transform="translate(552.441406 0.015625)"/>
     <use xlink:href="#DejaVuSans-72" transform="translate(615.820312 0.015625)"/>
     <use xlink:href="#DejaVuSans-76" transform="translate(656.933594 0.015625)"/>
     <use xlink:href="#DejaVuSans-61" transform="translate(716.113281 0.015625)"/>
     <use xlink:href="#DejaVuSans-74" transform="translate(777.392578 0.015625)"/>
     <use xlink:href="#DejaVuSans-75" transform="translate(816.601562 0.015625)"/>
     <use xlink:href="#DejaVuSans-72" transform="translate(879.980469 0.015625)"/>
     <use xlink:href="#DejaVuSans-65" transform="translate(921.09375 0.015625)"/>
     <use xlink:href="#DejaVuSans-20" transform="translate(982.617188 0.015625)"/>
     <use xlink:href="#DejaVuSans-Oblique-52" transform="translate(1014.404297 0.015625)"/>
     <use xlink:href="#DejaVuSans-Oblique-6a" transform="translate(1083.886719 -16.390625) scale(0.7)"/>
    </g>
   </g>
   <g id="patch_8">
    <path d="M 258.449371 201.6
Q 280.131465 201.6 301.813558 201.6
" style="fill: none; stroke: #007c83; stroke-width: 1.55; stroke-linecap: round"/>
    <path d="M 262.449371 203.6
L 258.449371 201.6
L 262.449371 199.6
" style="fill: none; stroke: #007c83; stroke-width: 1.55; stroke-linecap: round"/>
    <path d="M 297.813558 199.6
L 301.813558 201.6
L 297.813558 203.6
" style="fill: none; stroke: #007c83; stroke-width: 1.55; stroke-linecap: round"/>
   </g>
   <g id="patch_9">
    <path d="M 289.249593 221.67593
Q 285.104028 212.548391 281.628855 204.896894
" style="fill: none; stroke: #007c83; stroke-width: 1.45; stroke-linecap: round"/>
    <path d="M 281.378554 211.600426
L 281.628855 204.896894
L 286.8415 209.119254
" style="fill: none; stroke: #007c83; stroke-width: 1.45; stroke-linecap: round"/>
   </g>
   <g id="text_2">
    <g id="patch_10">
     <path d="M 251.552163 247.547852
L 339.752163 247.547852
Q 343.502163 247.547852 343.502163 243.797852
L 343.502163 227.747852
Q 343.502163 223.997852 339.752163 223.997852
L 251.552163 223.997852
Q 247.802163 223.997852 247.802163 227.747852
L 247.802163 243.797852
Q 247.802163 247.547852 251.552163 247.547852
z
" style="fill: #ffffff; opacity: 0.96; stroke: #007c83; stroke-linejoin: miter"/>
    </g>
    <!-- Thickness $t_j$ -->
    <g style="fill: #007c83" transform="translate(251.552163 239.147852) scale(0.15 -0.15)">
     <defs>
      <path id="DejaVuSans-54" d="M -19 4666
L 3928 4666
L 3928 4134
L 2272 4134
L 2272 0
L 1638 0
L 1638 4134
L -19 4134
L -19 4666
z
" transform="scale(0.015625)"/>
      <path id="DejaVuSans-68" d="M 3513 2113
L 3513 0
L 2938 0
L 2938 2094
Q 2938 2591 2744 2837
Q 2550 3084 2163 3084
Q 1697 3084 1428 2787
Q 1159 2491 1159 1978
L 1159 0
L 581 0
L 581 4863
L 1159 4863
L 1159 2956
Q 1366 3272 1645 3428
Q 1925 3584 2291 3584
Q 2894 3584 3203 3211
Q 3513 2838 3513 2113
z
" transform="scale(0.015625)"/>
      <path id="DejaVuSans-6b" d="M 581 4863
L 1159 4863
L 1159 1991
L 2875 3500
L 3609 3500
L 1753 1863
L 3688 0
L 2938 0
L 1159 1709
L 1159 0
L 581 0
L 581 4863
z
" transform="scale(0.015625)"/>
      <path id="DejaVuSans-6e" d="M 3513 2113
L 3513 0
L 2938 0
L 2938 2094
Q 2938 2591 2744 2837
Q 2550 3084 2163 3084
Q 1697 3084 1428 2787
Q 1159 2491 1159 1978
L 1159 0
L 581 0
L 581 3500
L 1159 3500
L 1159 2956
Q 1366 3272 1645 3428
Q 1925 3584 2291 3584
Q 2894 3584 3203 3211
Q 3513 2838 3513 2113
z
" transform="scale(0.015625)"/>
      <path id="DejaVuSans-Oblique-74" d="M 2706 3500
L 2619 3053
L 1472 3053
L 1100 1153
Q 1081 1047 1072 975
Q 1063 903 1063 863
Q 1063 663 1183 572
Q 1303 481 1569 481
L 2150 481
L 2053 0
L 1503 0
Q 991 0 739 200
Q 488 400 488 806
Q 488 878 497 964
Q 506 1050 525 1153
L 897 3053
L 409 3053
L 500 3500
L 978 3500
L 1172 4494
L 1747 4494
L 1556 3500
L 2706 3500
z
" transform="scale(0.015625)"/>
     </defs>
     <use xlink:href="#DejaVuSans-54" transform="translate(0 0.015625)"/>
     <use xlink:href="#DejaVuSans-68" transform="translate(61.083984 0.015625)"/>
     <use xlink:href="#DejaVuSans-69" transform="translate(124.462891 0.015625)"/>
     <use xlink:href="#DejaVuSans-63" transform="translate(152.246094 0.015625)"/>
     <use xlink:href="#DejaVuSans-6b" transform="translate(207.226562 0.015625)"/>
     <use xlink:href="#DejaVuSans-6e" transform="translate(265.136719 0.015625)"/>
     <use xlink:href="#DejaVuSans-65" transform="translate(328.515625 0.015625)"/>
     <use xlink:href="#DejaVuSans-73" transform="translate(390.039062 0.015625)"/>
     <use xlink:href="#DejaVuSans-73" transform="translate(442.138672 0.015625)"/>
     <use xlink:href="#DejaVuSans-20" transform="translate(494.238281 0.015625)"/>
     <use xlink:href="#DejaVuSans-Oblique-74" transform="translate(526.025391 0.015625)"/>
     <use xlink:href="#DejaVuSans-Oblique-6a" transform="translate(565.234375 -16.390625) scale(0.7)"/>
    </g>
   </g>
   <g id="patch_11">
    <path d="M 280.946864 284.378463
Q 280.546891 232.552362 280.159429 182.347362
" style="fill: none; stroke: #007c83; stroke-width: 1.45; stroke-linecap: round"/>
    <path d="M 277.205822 188.370335
L 280.159429 182.347362
L 283.205644 188.324031
" style="fill: none; stroke: #007c83; stroke-width: 1.45; stroke-linecap: round"/>
   </g>
   <g id="text_3">
    <g id="patch_12">
     <path d="M 246.101259 308.930311
L 316.001259 308.930311
Q 319.751259 308.930311 319.751259 305.180311
L 319.751259 290.630311
Q 319.751259 286.880311 316.001259 286.880311
L 246.101259 286.880311
Q 242.351259 286.880311 242.351259 290.630311
L 242.351259 305.180311
Q 242.351259 308.930311 246.101259 308.930311
z
" style="fill: #ffffff; opacity: 0.96; stroke: #007c83; stroke-linejoin: miter"/>
    </g>
    <!-- Material $j$ -->
    <g style="fill: #007c83" transform="translate(246.101259 302.030311) scale(0.15 -0.15)">
     <defs>
      <path id="DejaVuSans-4d" d="M 628 4666
L 1569 4666
L 2759 1491
L 3956 4666
L 4897 4666
L 4897 0
L 4281 0
L 4281 4097
L 3078 897
L 2444 897
L 1241 4097
L 1241 0
L 628 0
L 628 4666
z
" transform="scale(0.015625)"/>
      <path id="DejaVuSans-6c" d="M 603 4863
L 1178 4863
L 1178 0
L 603 0
L 603 4863
z
" transform="scale(0.015625)"/>
     </defs>
     <use xlink:href="#DejaVuSans-4d" transform="translate(0 0.015625)"/>
     <use xlink:href="#DejaVuSans-61" transform="translate(86.279297 0.015625)"/>
     <use xlink:href="#DejaVuSans-74" transform="translate(147.558594 0.015625)"/>
     <use xlink:href="#DejaVuSans-65" transform="translate(186.767578 0.015625)"/>
     <use xlink:href="#DejaVuSans-72" transform="translate(248.291016 0.015625)"/>
     <use xlink:href="#DejaVuSans-69" transform="translate(289.404297 0.015625)"/>
     <use xlink:href="#DejaVuSans-61" transform="translate(317.1875 0.015625)"/>
     <use xlink:href="#DejaVuSans-6c" transform="translate(378.466797 0.015625)"/>
     <use xlink:href="#DejaVuSans-20" transform="translate(406.25 0.015625)"/>
     <use xlink:href="#DejaVuSans-Oblique-6a" transform="translate(438.037109 0.015625)"/>
    </g>
   </g>
   <g id="patch_13">
    <path d="M 234.815062 199.867047
Q 234.815062 138.05544 234.815062 76.243832
" style="fill: none; stroke: #007c83; stroke-width: 1.55; stroke-linecap: round"/>
    <path d="M 236.815062 195.867047
L 234.815062 199.867047
L 232.815062 195.867047
" style="fill: none; stroke: #007c83; stroke-width: 1.55; stroke-linecap: round"/>
    <path d="M 232.815062 80.243832
L 234.815062 76.243832
L 236.815062 80.243832
" style="fill: none; stroke: #007c83; stroke-width: 1.55; stroke-linecap: round"/>
   </g>
   <g id="patch_14">
    <path d="M 226.897412 115.179398
Q 230.856237 115.179398 234.815062 115.179398
" style="fill: none; stroke: #007c83; stroke-width: 1.2; stroke-linecap: round"/>
   </g>
   <g id="text_4">
    <g id="patch_15">
     <path d="M 94.097642 126.954398
L 222.647642 126.954398
Q 226.397642 126.954398 226.397642 123.204398
L 226.397642 107.154398
Q 226.397642 103.404398 222.647642 103.404398
L 94.097642 103.404398
Q 90.347642 103.404398 90.347642 107.154398
L 90.347642 123.204398
Q 90.347642 126.954398 94.097642 126.954398
z
" style="fill: #ffffff; opacity: 0.96; stroke: #007c83; stroke-linejoin: miter"/>
    </g>
    <!-- Semi-diameter $h_j$ -->
    <g style="fill: #007c83" transform="translate(94.097642 118.554398) scale(0.15 -0.15)">
     <defs>
      <path id="DejaVuSans-53" d="M 3425 4513
L 3425 3897
Q 3066 4069 2747 4153
Q 2428 4238 2131 4238
Q 1616 4238 1336 4038
Q 1056 3838 1056 3469
Q 1056 3159 1242 3001
Q 1428 2844 1947 2747
L 2328 2669
Q 3034 2534 3370 2195
Q 3706 1856 3706 1288
Q 3706 609 3251 259
Q 2797 -91 1919 -91
Q 1588 -91 1214 -16
Q 841 59 441 206
L 441 856
Q 825 641 1194 531
Q 1563 422 1919 422
Q 2459 422 2753 634
Q 3047 847 3047 1241
Q 3047 1584 2836 1778
Q 2625 1972 2144 2069
L 1759 2144
Q 1053 2284 737 2584
Q 422 2884 422 3419
Q 422 4038 858 4394
Q 1294 4750 2059 4750
Q 2388 4750 2728 4690
Q 3069 4631 3425 4513
z
" transform="scale(0.015625)"/>
      <path id="DejaVuSans-6d" d="M 3328 2828
Q 3544 3216 3844 3400
Q 4144 3584 4550 3584
Q 5097 3584 5394 3201
Q 5691 2819 5691 2113
L 5691 0
L 5113 0
L 5113 2094
Q 5113 2597 4934 2840
Q 4756 3084 4391 3084
Q 3944 3084 3684 2787
Q 3425 2491 3425 1978
L 3425 0
L 2847 0
L 2847 2094
Q 2847 2600 2669 2842
Q 2491 3084 2119 3084
Q 1678 3084 1418 2786
Q 1159 2488 1159 1978
L 1159 0
L 581 0
L 581 3500
L 1159 3500
L 1159 2956
Q 1356 3278 1631 3431
Q 1906 3584 2284 3584
Q 2666 3584 2933 3390
Q 3200 3197 3328 2828
z
" transform="scale(0.015625)"/>
      <path id="DejaVuSans-2d" d="M 313 2009
L 1997 2009
L 1997 1497
L 313 1497
L 313 2009
z
" transform="scale(0.015625)"/>
      <path id="DejaVuSans-Oblique-68" d="M 3566 2113
L 3156 0
L 2578 0
L 2988 2091
Q 3016 2238 3031 2350
Q 3047 2463 3047 2528
Q 3047 2791 2881 2937
Q 2716 3084 2419 3084
Q 1956 3084 1617 2771
Q 1278 2459 1178 1941
L 800 0
L 225 0
L 1172 4863
L 1747 4863
L 1375 2950
Q 1594 3244 1934 3414
Q 2275 3584 2650 3584
Q 3113 3584 3367 3334
Q 3622 3084 3622 2631
Q 3622 2519 3608 2391
Q 3594 2263 3566 2113
z
" transform="scale(0.015625)"/>
     </defs>
     <use xlink:href="#DejaVuSans-53" transform="translate(0 0.015625)"/>
     <use xlink:href="#DejaVuSans-65" transform="translate(63.476562 0.015625)"/>
     <use xlink:href="#DejaVuSans-6d" transform="translate(125 0.015625)"/>
     <use xlink:href="#DejaVuSans-69" transform="translate(222.412109 0.015625)"/>
     <use xlink:href="#DejaVuSans-2d" transform="translate(250.195312 0.015625)"/>
     <use xlink:href="#DejaVuSans-64" transform="translate(286.279297 0.015625)"/>
     <use xlink:href="#DejaVuSans-69" transform="translate(349.755859 0.015625)"/>
     <use xlink:href="#DejaVuSans-61" transform="translate(377.539062 0.015625)"/>
     <use xlink:href="#DejaVuSans-6d" transform="translate(438.818359 0.015625)"/>
     <use xlink:href="#DejaVuSans-65" transform="translate(536.230469 0.015625)"/>
     <use xlink:href="#DejaVuSans-74" transform="translate(597.753906 0.015625)"/>
     <use xlink:href="#DejaVuSans-65" transform="translate(636.962891 0.015625)"/>
     <use xlink:href="#DejaVuSans-72" transform="translate(698.486328 0.015625)"/>
     <use xlink:href="#DejaVuSans-20" transform="translate(739.599609 0.015625)"/>
     <use xlink:href="#DejaVuSans-Oblique-68" transform="translate(771.386719 0.015625)"/>
     <use xlink:href="#DejaVuSans-Oblique-6a" transform="translate(834.765625 -16.390625) scale(0.7)"/>
    </g>
   </g>
   <g id="patch_16">
    <path d="M 257.637352 335.686277
Q 253.710613 317.759044 250.130743 301.415416
" style="fill: none; stroke: #8b2c83; stroke-width: 1.45; stroke-linecap: round"/>
    <path d="M 248.484009 307.918359
L 250.130743 301.415416
L 254.345057 306.634569
" style="fill: none; stroke: #8b2c83; stroke-width: 1.45; stroke-linecap: round"/>
   </g>
   <g id="text_5">
    <g id="patch_17">
     <path d="M 227.51461 360.18959
L 293.66461 360.18959
Q 297.41461 360.18959 297.41461 356.43959
L 297.41461 341.88959
Q 297.41461 338.13959 293.66461 338.13959
L 227.51461 338.13959
Q 223.76461 338.13959 223.76461 341.88959
L 223.76461 356.43959
Q 223.76461 360.18959 227.51461 360.18959
z
" style="fill: #ffffff; opacity: 0.96; stroke: #8b2c83; stroke-linejoin: miter"/>
    </g>
    <!-- Surface $j$ -->
    <g style="fill: #8b2c83" transform="translate(227.51461 353.28959) scale(0.15 -0.15)">
     <use xlink:href="#DejaVuSans-53" transform="translate(0 0.015625)"/>
     <use xlink:href="#DejaVuSans-75" transform="translate(63.476562 0.015625)"/>
     <use xlink:href="#DejaVuSans-72" transform="translate(126.855469 0.015625)"/>
     <use xlink:href="#DejaVuSans-66" transform="translate(167.96875 0.015625)"/>
     <use xlink:href="#DejaVuSans-61" transform="translate(203.173828 0.015625)"/>
     <use xlink:href="#DejaVuSans-63" transform="translate(264.453125 0.015625)"/>
     <use xlink:href="#DejaVuSans-65" transform="translate(319.433594 0.015625)"/>
     <use xlink:href="#DejaVuSans-20" transform="translate(380.957031 0.015625)"/>
     <use xlink:href="#DejaVuSans-Oblique-6a" transform="translate(412.744141 0.015625)"/>
    </g>
   </g>
   <g id="patch_18">
    <path d="M 193.600047 263.260652
Q 151.749889 223.587191 111.076245 185.02905
" style="fill: none; stroke: #8b2c83; stroke-width: 1.45; stroke-linecap: round"/>
    <path d="M 113.366668 191.334125
L 111.076245 185.02905
L 117.494558 186.979756
" style="fill: none; stroke: #8b2c83; stroke-width: 1.45; stroke-linecap: round"/>
   </g>
   <g id="text_6">
    <g id="patch_19">
     <path d="M 118.181015 287.183951
L 296.231015 287.183951
Q 299.981015 287.183951 299.981015 283.433951
L 299.981015 268.883951
Q 299.981015 265.133951 296.231015 265.133951
L 118.181015 265.133951
Q 114.431015 265.133951 114.431015 268.883951
L 114.431015 283.433951
Q 114.431015 287.183951 118.181015 287.183951
z
" style="fill: #ffffff; opacity: 0.96; stroke: #8b2c83; stroke-linejoin: miter"/>
    </g>
    <!-- Surface $i$: aperture stop -->
    <g style="fill: #8b2c83" transform="translate(118.181015 280.283951) scale(0.15 -0.15)">
     <defs>
      <path id="DejaVuSans-Oblique-69" d="M 1172 4863
L 1747 4863
L 1606 4134
L 1031 4134
L 1172 4863
z
M 909 3500
L 1484 3500
L 800 0
L 225 0
L 909 3500
z
" transform="scale(0.015625)"/>
      <path id="DejaVuSans-3a" d="M 750 794
L 1409 794
L 1409 0
L 750 0
L 750 794
z
M 750 3309
L 1409 3309
L 1409 2516
L 750 2516
L 750 3309
z
" transform="scale(0.015625)"/>
      <path id="DejaVuSans-70" d="M 1159 525
L 1159 -1331
L 581 -1331
L 581 3500
L 1159 3500
L 1159 2969
Q 1341 3281 1617 3432
Q 1894 3584 2278 3584
Q 2916 3584 3314 3078
Q 3713 2572 3713 1747
Q 3713 922 3314 415
Q 2916 -91 2278 -91
Q 1894 -91 1617 61
Q 1341 213 1159 525
z
M 3116 1747
Q 3116 2381 2855 2742
Q 2594 3103 2138 3103
Q 1681 3103 1420 2742
Q 1159 2381 1159 1747
Q 1159 1113 1420 752
Q 1681 391 2138 391
Q 2594 391 2855 752
Q 3116 1113 3116 1747
z
" transform="scale(0.015625)"/>
     </defs>
     <use xlink:href="#DejaVuSans-53" transform="translate(0 0.015625)"/>
     <use xlink:href="#DejaVuSans-75" transform="translate(63.476562 0.015625)"/>
     <use xlink:href="#DejaVuSans-72" transform="translate(126.855469 0.015625)"/>
     <use xlink:href="#DejaVuSans-66" transform="translate(167.96875 0.015625)"/>
     <use xlink:href="#DejaVuSans-61" transform="translate(203.173828 0.015625)"/>
     <use xlink:href="#DejaVuSans-63" transform="translate(264.453125 0.015625)"/>
     <use xlink:href="#DejaVuSans-65" transform="translate(319.433594 0.015625)"/>
     <use xlink:href="#DejaVuSans-20" transform="translate(380.957031 0.015625)"/>
     <use xlink:href="#DejaVuSans-Oblique-69" transform="translate(412.744141 0.015625)"/>
     <use xlink:href="#DejaVuSans-3a" transform="translate(440.527344 0.015625)"/>
     <use xlink:href="#DejaVuSans-20" transform="translate(474.21875 0.015625)"/>
     <use xlink:href="#DejaVuSans-61" transform="translate(506.005859 0.015625)"/>
     <use xlink:href="#DejaVuSans-70" transform="translate(567.285156 0.015625)"/>
     <use xlink:href="#DejaVuSans-65" transform="translate(630.761719 0.015625)"/>
     <use xlink:href="#DejaVuSans-72" transform="translate(692.285156 0.015625)"/>
     <use xlink:href="#DejaVuSans-74" transform="translate(733.398438 0.015625)"/>
     <use xlink:href="#DejaVuSans-75" transform="translate(772.607422 0.015625)"/>
     <use xlink:href="#DejaVuSans-72" transform="translate(835.986328 0.015625)"/>
     <use xlink:href="#DejaVuSans-65" transform="translate(877.099609 0.015625)"/>
     <use xlink:href="#DejaVuSans-20" transform="translate(938.623047 0.015625)"/>
     <use xlink:href="#DejaVuSans-73" transform="translate(970.410156 0.015625)"/>
     <use xlink:href="#DejaVuSans-74" transform="translate(1022.509766 0.015625)"/>
     <use xlink:href="#DejaVuSans-6f" transform="translate(1061.71875 0.015625)"/>
     <use xlink:href="#DejaVuSans-70" transform="translate(1122.900391 0.015625)"/>
    </g>
   </g>
   <g id="patch_20">
    <path d="M 608.380222 107.201216
Q 595.877493 108.708483 584.984259 110.021718
" style="fill: none; stroke: #8b2c83; stroke-width: 1.45; stroke-linecap: round"/>
    <path d="M 591.300194 112.282022
L 584.984259 110.021718
L 590.582063 106.325153
" style="fill: none; stroke: #8b2c83; stroke-width: 1.45; stroke-linecap: round"/>
   </g>
   <g id="text_7">
    <g id="patch_21">
     <path d="M 614.611753 133.364956
L 788.393784 133.364956
Q 792.143784 133.364956 792.143784 129.614956
L 792.143784 62.934683
Q 792.143784 59.184683 788.393784 59.184683
L 614.611753 59.184683
Q 610.861753 59.184683 610.861753 62.934683
L 610.861753 129.614956
Q 610.861753 133.364956 614.611753 133.364956
z
" style="fill: #ffffff; opacity: 0.96; stroke: #8b2c83; stroke-linejoin: miter"/>
    </g>
    <!-- Aspheric surface $m$ -->
    <g style="fill: #8b2c83" transform="translate(614.611753 73.734683) scale(0.15 -0.15)">
     <defs>
      <path id="DejaVuSans-41" d="M 2188 4044
L 1331 1722
L 3047 1722
L 2188 4044
z
M 1831 4666
L 2547 4666
L 4325 0
L 3669 0
L 3244 1197
L 1141 1197
L 716 0
L 50 0
L 1831 4666
z
" transform="scale(0.015625)"/>
      <path id="DejaVuSans-Oblique-6d" d="M 5747 2113
L 5338 0
L 4763 0
L 5166 2094
Q 5191 2228 5203 2325
Q 5216 2422 5216 2491
Q 5216 2772 5059 2928
Q 4903 3084 4622 3084
Q 4203 3084 3875 2770
Q 3547 2456 3450 1953
L 3066 0
L 2491 0
L 2900 2094
Q 2925 2209 2937 2307
Q 2950 2406 2950 2484
Q 2950 2769 2794 2926
Q 2638 3084 2363 3084
Q 1938 3084 1609 2770
Q 1281 2456 1184 1953
L 800 0
L 225 0
L 909 3500
L 1484 3500
L 1375 2956
Q 1609 3263 1923 3423
Q 2238 3584 2597 3584
Q 2978 3584 3223 3384
Q 3469 3184 3519 2828
Q 3781 3197 4126 3390
Q 4472 3584 4856 3584
Q 5306 3584 5551 3325
Q 5797 3066 5797 2591
Q 5797 2488 5784 2364
Q 5772 2241 5747 2113
z
" transform="scale(0.015625)"/>
     </defs>
     <use xlink:href="#DejaVuSans-41" transform="translate(0 0.015625)"/>
     <use xlink:href="#DejaVuSans-73" transform="translate(68.408203 0.015625)"/>
     <use xlink:href="#DejaVuSans-70" transform="translate(120.507812 0.015625)"/>
     <use xlink:href="#DejaVuSans-68" transform="translate(183.984375 0.015625)"/>
     <use xlink:href="#DejaVuSans-65" transform="translate(247.363281 0.015625)"/>
     <use xlink:href="#DejaVuSans-72" transform="translate(308.886719 0.015625)"/>
     <use xlink:href="#DejaVuSans-69" transform="translate(350 0.015625)"/>
     <use xlink:href="#DejaVuSans-63" transform="translate(377.783203 0.015625)"/>
     <use xlink:href="#DejaVuSans-20" transform="translate(432.763672 0.015625)"/>
     <use xlink:href="#DejaVuSans-73" transform="translate(464.550781 0.015625)"/>
     <use xlink:href="#DejaVuSans-75" transform="translate(516.650391 0.015625)"/>
     <use xlink:href="#DejaVuSans-72" transform="translate(580.029297 0.015625)"/>
     <use xlink:href="#DejaVuSans-66" transform="translate(621.142578 0.015625)"/>
     <use xlink:href="#DejaVuSans-61" transform="translate(656.347656 0.015625)"/>
     <use xlink:href="#DejaVuSans-63" transform="translate(717.626953 0.015625)"/>
     <use xlink:href="#DejaVuSans-65" transform="translate(772.607422 0.015625)"/>
     <use xlink:href="#DejaVuSans-20" transform="translate(834.130859 0.015625)"/>
     <use xlink:href="#DejaVuSans-Oblique-6d" transform="translate(865.917969 0.015625)"/>
    </g>
    <!-- Conic constant $k_m$ -->
    <g style="fill: #8b2c83" transform="translate(614.611753 91.131753) scale(0.15 -0.15)">
     <defs>
      <path id="DejaVuSans-43" d="M 4122 4306
L 4122 3641
Q 3803 3938 3442 4084
Q 3081 4231 2675 4231
Q 1875 4231 1450 3742
Q 1025 3253 1025 2328
Q 1025 1406 1450 917
Q 1875 428 2675 428
Q 3081 428 3442 575
Q 3803 722 4122 1019
L 4122 359
Q 3791 134 3420 21
Q 3050 -91 2638 -91
Q 1578 -91 968 557
Q 359 1206 359 2328
Q 359 3453 968 4101
Q 1578 4750 2638 4750
Q 3056 4750 3426 4639
Q 3797 4528 4122 4306
z
" transform="scale(0.015625)"/>
      <path id="DejaVuSans-Oblique-6b" d="M 1172 4863
L 1747 4863
L 1197 2028
L 3169 3500
L 3916 3500
L 1716 1825
L 3322 0
L 2625 0
L 1131 1709
L 800 0
L 225 0
L 1172 4863
z
" transform="scale(0.015625)"/>
     </defs>
     <use xlink:href="#DejaVuSans-43" transform="translate(0 0.015625)"/>
     <use xlink:href="#DejaVuSans-6f" transform="translate(69.824219 0.015625)"/>
     <use xlink:href="#DejaVuSans-6e" transform="translate(131.005859 0.015625)"/>
     <use xlink:href="#DejaVuSans-69" transform="translate(194.384766 0.015625)"/>
     <use xlink:href="#DejaVuSans-63" transform="translate(222.167969 0.015625)"/>
     <use xlink:href="#DejaVuSans-20" transform="translate(277.148438 0.015625)"/>
     <use xlink:href="#DejaVuSans-63" transform="translate(308.935547 0.015625)"/>
     <use xlink:href="#DejaVuSans-6f" transform="translate(363.916016 0.015625)"/>
     <use xlink:href="#DejaVuSans-6e" transform="translate(425.097656 0.015625)"/>
     <use xlink:href="#DejaVuSans-73" transform="translate(488.476562 0.015625)"/>
     <use xlink:href="#DejaVuSans-74" transform="translate(540.576172 0.015625)"/>
     <use xlink:href="#DejaVuSans-61" transform="translate(579.785156 0.015625)"/>
     <use xlink:href="#DejaVuSans-6e" transform="translate(641.064453 0.015625)"/>
     <use xlink:href="#DejaVuSans-74" transform="translate(704.443359 0.015625)"/>
     <use xlink:href="#DejaVuSans-20" transform="translate(743.652344 0.015625)"/>
     <use xlink:href="#DejaVuSans-Oblique-6b" transform="translate(775.439453 0.015625)"/>
     <use xlink:href="#DejaVuSans-Oblique-6d" transform="translate(833.349609 -16.390625) scale(0.7)"/>
    </g>
    <!-- Even-order coefficients -->
    <g style="fill: #8b2c83" transform="translate(614.611753 108.498355) scale(0.15 -0.15)">
     <defs>
      <path id="DejaVuSans-45" d="M 628 4666
L 3578 4666
L 3578 4134
L 1259 4134
L 1259 2753
L 3481 2753
L 3481 2222
L 1259 2222
L 1259 531
L 3634 531
L 3634 0
L 628 0
L 628 4666
z
" transform="scale(0.015625)"/>
     </defs>
     <use xlink:href="#DejaVuSans-45"/>
     <use xlink:href="#DejaVuSans-76" x="63.183594"/>
     <use xlink:href="#DejaVuSans-65" x="122.363281"/>
     <use xlink:href="#DejaVuSans-6e" x="183.886719"/>
     <use xlink:href="#DejaVuSans-2d" x="247.265625"/>
     <use xlink:href="#DejaVuSans-6f" x="285.224609"/>
     <use xlink:href="#DejaVuSans-72" x="346.40625"/>
     <use xlink:href="#DejaVuSans-64" x="385.769531"/>
     <use xlink:href="#DejaVuSans-65" x="449.246094"/>
     <use xlink:href="#DejaVuSans-72" x="510.769531"/>
     <use xlink:href="#DejaVuSans-20" x="551.882812"/>
     <use xlink:href="#DejaVuSans-63" x="583.669922"/>
     <use xlink:href="#DejaVuSans-6f" x="638.650391"/>
     <use xlink:href="#DejaVuSans-65" x="699.832031"/>
     <use xlink:href="#DejaVuSans-66" x="761.355469"/>
     <use xlink:href="#DejaVuSans-66" x="796.560547"/>
     <use xlink:href="#DejaVuSans-69" x="831.765625"/>
     <use xlink:href="#DejaVuSans-63" x="859.548828"/>
     <use xlink:href="#DejaVuSans-69" x="914.529297"/>
     <use xlink:href="#DejaVuSans-65" x="942.3125"/>
     <use xlink:href="#DejaVuSans-6e" x="1003.835938"/>
     <use xlink:href="#DejaVuSans-74" x="1067.214844"/>
     <use xlink:href="#DejaVuSans-73" x="1106.423828"/>
    </g>
    <!-- $A_{4,m},\ldots,A_{20,m}$ -->
    <g style="fill: #8b2c83" transform="translate(614.611753 125.864956) scale(0.15 -0.15)">
     <defs>
      <path id="DejaVuSans-Oblique-41" d="M 2356 4666
L 3072 4666
L 3938 0
L 3278 0
L 3084 1197
L 984 1197
L 325 0
L -341 0
L 2356 4666
z
M 2584 4044
L 1275 1722
L 2988 1722
L 2584 4044
z
" transform="scale(0.015625)"/>
      <path id="DejaVuSans-34" d="M 2419 4116
L 825 1625
L 2419 1625
L 2419 4116
z
M 2253 4666
L 3047 4666
L 3047 1625
L 3713 1625
L 3713 1100
L 3047 1100
L 3047 0
L 2419 0
L 2419 1100
L 313 1100
L 313 1709
L 2253 4666
z
" transform="scale(0.015625)"/>
      <path id="DejaVuSans-2c" d="M 750 794
L 1409 794
L 1409 256
L 897 -744
L 494 -744
L 750 256
L 750 794
z
" transform="scale(0.015625)"/>
      <path id="DejaVuSans-2026" d="M 2869 794
L 3531 794
L 3531 0
L 2869 0
L 2869 794
z
M 4997 794
L 5663 794
L 5663 0
L 4997 0
L 4997 794
z
M 738 794
L 1403 794
L 1403 0
L 738 0
L 738 794
z
" transform="scale(0.015625)"/>
      <path id="DejaVuSans-32" d="M 1228 531
L 3431 531
L 3431 0
L 469 0
L 469 531
Q 828 903 1448 1529
Q 2069 2156 2228 2338
Q 2531 2678 2651 2914
Q 2772 3150 2772 3378
Q 2772 3750 2511 3984
Q 2250 4219 1831 4219
Q 1534 4219 1204 4116
Q 875 4013 500 3803
L 500 4441
Q 881 4594 1212 4672
Q 1544 4750 1819 4750
Q 2544 4750 2975 4387
Q 3406 4025 3406 3419
Q 3406 3131 3298 2873
Q 3191 2616 2906 2266
Q 2828 2175 2409 1742
Q 1991 1309 1228 531
z
" transform="scale(0.015625)"/>
      <path id="DejaVuSans-30" d="M 2034 4250
Q 1547 4250 1301 3770
Q 1056 3291 1056 2328
Q 1056 1369 1301 889
Q 1547 409 2034 409
Q 2525 409 2770 889
Q 3016 1369 3016 2328
Q 3016 3291 2770 3770
Q 2525 4250 2034 4250
z
M 2034 4750
Q 2819 4750 3233 4129
Q 3647 3509 3647 2328
Q 3647 1150 3233 529
Q 2819 -91 2034 -91
Q 1250 -91 836 529
Q 422 1150 422 2328
Q 422 3509 836 4129
Q 1250 4750 2034 4750
z
" transform="scale(0.015625)"/>
     </defs>
     <use xlink:href="#DejaVuSans-Oblique-41" transform="translate(0 0.09375)"/>
     <use xlink:href="#DejaVuSans-34" transform="translate(68.408203 -16.3125) scale(0.7)"/>
     <use xlink:href="#DejaVuSans-2c" transform="translate(112.944336 -16.3125) scale(0.7)"/>
     <use xlink:href="#DejaVuSans-Oblique-6d" transform="translate(148.833008 -16.3125) scale(0.7)"/>
     <use xlink:href="#DejaVuSans-2c" transform="translate(219.755859 0.09375)"/>
     <use xlink:href="#DejaVuSans-2026" transform="translate(271.025391 0.09375)"/>
     <use xlink:href="#DejaVuSans-2c" transform="translate(371.025391 0.09375)"/>
     <use xlink:href="#DejaVuSans-Oblique-41" transform="translate(422.294922 0.09375)"/>
     <use xlink:href="#DejaVuSans-32" transform="translate(490.703125 -16.3125) scale(0.7)"/>
     <use xlink:href="#DejaVuSans-30" transform="translate(535.239258 -16.3125) scale(0.7)"/>
     <use xlink:href="#DejaVuSans-2c" transform="translate(579.775391 -16.3125) scale(0.7)"/>
     <use xlink:href="#DejaVuSans-Oblique-6d" transform="translate(615.664062 -16.3125) scale(0.7)"/>
    </g>
   </g>
  </g>
 </g>
 <defs>
  <clipPath id="p9df24e51d1">
   <rect x="20.841655" y="12.096" width="807.916691" height="379.008"/>
  </clipPath>
 </defs>
</svg>
